%TF.GenerationSoftware,KiCad,Pcbnew,(5.1.8)-1*%
%TF.CreationDate,2021-05-02T19:24:36+02:00*%
%TF.ProjectId,HERMES PCB,4845524d-4553-4205-9043-422e6b696361,rev?*%
%TF.SameCoordinates,Original*%
%TF.FileFunction,Legend,Top*%
%TF.FilePolarity,Positive*%
%FSLAX46Y46*%
G04 Gerber Fmt 4.6, Leading zero omitted, Abs format (unit mm)*
G04 Created by KiCad (PCBNEW (5.1.8)-1) date 2021-05-02 19:24:36*
%MOMM*%
%LPD*%
G01*
G04 APERTURE LIST*
%ADD10C,0.010000*%
%ADD11C,0.120000*%
%ADD12C,0.150000*%
%ADD13C,0.127000*%
G04 APERTURE END LIST*
D10*
%TO.C,G\u002A\u002A\u002A*%
G36*
X134757313Y-51854929D02*
G01*
X134830254Y-51871719D01*
X134936750Y-51899997D01*
X135069971Y-51937892D01*
X135223089Y-51983534D01*
X135351076Y-52023039D01*
X135753996Y-52149477D01*
X136129635Y-52267870D01*
X136475943Y-52377554D01*
X136790869Y-52477866D01*
X137072363Y-52568143D01*
X137318374Y-52647724D01*
X137526854Y-52715945D01*
X137695750Y-52772144D01*
X137823014Y-52815658D01*
X137906594Y-52845824D01*
X137941216Y-52860197D01*
X138015233Y-52908866D01*
X138089758Y-52974311D01*
X138107583Y-52993404D01*
X138151281Y-53048230D01*
X138185970Y-53106355D01*
X138212656Y-53174087D01*
X138232344Y-53257740D01*
X138246040Y-53363624D01*
X138254749Y-53498051D01*
X138259478Y-53667331D01*
X138261231Y-53877776D01*
X138261329Y-53958255D01*
X138261329Y-54577429D01*
X138743758Y-55530053D01*
X138848185Y-55735248D01*
X138948182Y-55929820D01*
X139041024Y-56108602D01*
X139123984Y-56266428D01*
X139194337Y-56398132D01*
X139249357Y-56498546D01*
X139286319Y-56562505D01*
X139297630Y-56579824D01*
X139341568Y-56631164D01*
X139414020Y-56706570D01*
X139506261Y-56797330D01*
X139609563Y-56894734D01*
X139652359Y-56933908D01*
X139760432Y-57031374D01*
X139837715Y-57104145D01*
X139888491Y-57162613D01*
X139917041Y-57217170D01*
X139927648Y-57278207D01*
X139924595Y-57356116D01*
X139912162Y-57461288D01*
X139902182Y-57540169D01*
X139879591Y-57568693D01*
X139826520Y-57606420D01*
X139793018Y-57625228D01*
X139676012Y-57665383D01*
X139524744Y-57686235D01*
X139350803Y-57687431D01*
X139165774Y-57668617D01*
X139055079Y-57647760D01*
X138854496Y-57597545D01*
X138684373Y-57540581D01*
X138535206Y-57470836D01*
X138397490Y-57382277D01*
X138261722Y-57268870D01*
X138249470Y-57256535D01*
X138745020Y-57256535D01*
X138831836Y-57292775D01*
X138932826Y-57326642D01*
X139062356Y-57358529D01*
X139203612Y-57385444D01*
X139339780Y-57404391D01*
X139454043Y-57412379D01*
X139497776Y-57411323D01*
X139627477Y-57385667D01*
X139714648Y-57343779D01*
X139767349Y-57304078D01*
X139796814Y-57274479D01*
X139799050Y-57269042D01*
X139781498Y-57247173D01*
X139733262Y-57199325D01*
X139661170Y-57131983D01*
X139572047Y-57051636D01*
X139545944Y-57028548D01*
X139292668Y-56805437D01*
X139194726Y-56859896D01*
X139133200Y-56901704D01*
X139050890Y-56967810D01*
X138961541Y-57046894D01*
X138920902Y-57085445D01*
X138745020Y-57256535D01*
X138249470Y-57256535D01*
X138118396Y-57124584D01*
X137973031Y-56960944D01*
X137852984Y-56822836D01*
X137751674Y-56712387D01*
X137659238Y-56621347D01*
X137565814Y-56541465D01*
X137461538Y-56464491D01*
X137336547Y-56382173D01*
X137180978Y-56286261D01*
X137128943Y-56254850D01*
X136915655Y-56117021D01*
X136771836Y-56005694D01*
X137343555Y-56005694D01*
X137363269Y-56029811D01*
X137415100Y-56070062D01*
X137488084Y-56117982D01*
X137492576Y-56120722D01*
X137617602Y-56200821D01*
X137728054Y-56282252D01*
X137833278Y-56373518D01*
X137942618Y-56483122D01*
X138065419Y-56619568D01*
X138151620Y-56720432D01*
X138285217Y-56876830D01*
X138390611Y-56995513D01*
X138469560Y-57078302D01*
X138523824Y-57127020D01*
X138555162Y-57143490D01*
X138559464Y-57142847D01*
X138581558Y-57123318D01*
X138627354Y-57077008D01*
X138687112Y-57013779D01*
X138689532Y-57011170D01*
X138806717Y-56884742D01*
X138310152Y-56223085D01*
X138172545Y-56040353D01*
X138061167Y-55894118D01*
X137972997Y-55780803D01*
X137905017Y-55696833D01*
X137854207Y-55638633D01*
X137817547Y-55602628D01*
X137792019Y-55585243D01*
X137774603Y-55582902D01*
X137770807Y-55584435D01*
X137732390Y-55612678D01*
X137672349Y-55665113D01*
X137599384Y-55733164D01*
X137522193Y-55808255D01*
X137449476Y-55881807D01*
X137389931Y-55945245D01*
X137352257Y-55989991D01*
X137343555Y-56005694D01*
X136771836Y-56005694D01*
X136749507Y-55988410D01*
X136629147Y-55867761D01*
X136553222Y-55753819D01*
X136531902Y-55700286D01*
X136518086Y-55612882D01*
X136529161Y-55538011D01*
X136562162Y-55490333D01*
X136575711Y-55483584D01*
X136585288Y-55470862D01*
X136773047Y-55470862D01*
X136795845Y-55584782D01*
X136858704Y-55695237D01*
X136953327Y-55787702D01*
X136954596Y-55788624D01*
X137016911Y-55830387D01*
X137064347Y-55856156D01*
X137077970Y-55860156D01*
X137089609Y-55836600D01*
X137093450Y-55769804D01*
X137089313Y-55667920D01*
X137079420Y-55574889D01*
X137062334Y-55464025D01*
X137040137Y-55344410D01*
X137014909Y-55225131D01*
X136988733Y-55115272D01*
X136963689Y-55023916D01*
X136941858Y-54960149D01*
X136925321Y-54933055D01*
X136921163Y-54933924D01*
X136903047Y-54969883D01*
X136877914Y-55041244D01*
X136849366Y-55134949D01*
X136821003Y-55237939D01*
X136796430Y-55337157D01*
X136779247Y-55419545D01*
X136773047Y-55470862D01*
X136585288Y-55470862D01*
X136597124Y-55455141D01*
X136625379Y-55387704D01*
X136657886Y-55290984D01*
X136692058Y-55174691D01*
X136725304Y-55048538D01*
X136755036Y-54922235D01*
X136778665Y-54805492D01*
X136788096Y-54743945D01*
X137102641Y-54743945D01*
X137173559Y-54996563D01*
X137207262Y-55123750D01*
X137238498Y-55254138D01*
X137262549Y-55367503D01*
X137270495Y-55412042D01*
X137289761Y-55535201D01*
X137304873Y-55614267D01*
X137322102Y-55653646D01*
X137347719Y-55657747D01*
X137387993Y-55630978D01*
X137449195Y-55577747D01*
X137474598Y-55555519D01*
X137570607Y-55474571D01*
X137646962Y-55412824D01*
X138004861Y-55412824D01*
X138014185Y-55436751D01*
X138050226Y-55495394D01*
X138109669Y-55583982D01*
X138189196Y-55697746D01*
X138285492Y-55831919D01*
X138395238Y-55981730D01*
X138476151Y-56090493D01*
X138968262Y-56747994D01*
X139055079Y-56696643D01*
X139110727Y-56663700D01*
X139144165Y-56643855D01*
X139147672Y-56641754D01*
X139138701Y-56619822D01*
X139110197Y-56561416D01*
X139065870Y-56473892D01*
X139009430Y-56364602D01*
X138965281Y-56280192D01*
X138881810Y-56120177D01*
X138787018Y-55936540D01*
X138691604Y-55750114D01*
X138606267Y-55581731D01*
X138592662Y-55554668D01*
X138408213Y-55187168D01*
X138216948Y-55289913D01*
X138128263Y-55338529D01*
X138056127Y-55379882D01*
X138011993Y-55407336D01*
X138004861Y-55412824D01*
X137646962Y-55412824D01*
X137674680Y-55390409D01*
X137764448Y-55321119D01*
X137765235Y-55320535D01*
X137854359Y-55259494D01*
X137966395Y-55189825D01*
X138079766Y-55124844D01*
X138100098Y-55113902D01*
X138188543Y-55066718D01*
X138258738Y-55028891D01*
X138300354Y-55006006D01*
X138307140Y-55001972D01*
X138300702Y-54978817D01*
X138275200Y-54925487D01*
X138245129Y-54869724D01*
X138174512Y-54743995D01*
X137638577Y-54743970D01*
X137102641Y-54743945D01*
X136788096Y-54743945D01*
X136793602Y-54708021D01*
X136797554Y-54651499D01*
X136795282Y-54563094D01*
X136785254Y-54509919D01*
X136763292Y-54477728D01*
X136742041Y-54462176D01*
X136700359Y-54443258D01*
X136620421Y-54413028D01*
X136511398Y-54374735D01*
X136382459Y-54331624D01*
X136282032Y-54299295D01*
X136125258Y-54248553D01*
X136007759Y-54207403D01*
X135921018Y-54172143D01*
X135856515Y-54139069D01*
X135805731Y-54104479D01*
X135775945Y-54079341D01*
X135675985Y-53966494D01*
X135621312Y-53845857D01*
X135607227Y-53729773D01*
X135606598Y-53722786D01*
X135745567Y-53722786D01*
X135754203Y-53780254D01*
X135757636Y-53796407D01*
X135779410Y-53864008D01*
X135815555Y-53922023D01*
X135871859Y-53974036D01*
X135954111Y-54023629D01*
X136068099Y-54074383D01*
X136219613Y-54129883D01*
X136383940Y-54184011D01*
X136543674Y-54235854D01*
X136663011Y-54277019D01*
X136749205Y-54310633D01*
X136809509Y-54339818D01*
X136851178Y-54367702D01*
X136881466Y-54397407D01*
X136882702Y-54398866D01*
X136923418Y-54452524D01*
X136945417Y-54491776D01*
X136946680Y-54497801D01*
X136968983Y-54510904D01*
X137025971Y-54519192D01*
X137069867Y-54520703D01*
X137193054Y-54520703D01*
X137138186Y-54427709D01*
X137101673Y-54343847D01*
X137075646Y-54244608D01*
X137070810Y-54210908D01*
X137058301Y-54087101D01*
X136407925Y-53885609D01*
X136237377Y-53833242D01*
X136082804Y-53786679D01*
X135950376Y-53747707D01*
X135846264Y-53718112D01*
X135776639Y-53699680D01*
X135747670Y-53694198D01*
X135747292Y-53694375D01*
X135745567Y-53722786D01*
X135606598Y-53722786D01*
X135601061Y-53661297D01*
X135573918Y-53616737D01*
X135520191Y-53577989D01*
X135426816Y-53494363D01*
X135351849Y-53376287D01*
X135303545Y-53237870D01*
X135295371Y-53193695D01*
X135286091Y-53150492D01*
X135431110Y-53150492D01*
X135435051Y-53198769D01*
X135458747Y-53264291D01*
X135496923Y-53336039D01*
X135544305Y-53402998D01*
X135595619Y-53454149D01*
X135612728Y-53465807D01*
X135652946Y-53483357D01*
X135731592Y-53512662D01*
X135840244Y-53550959D01*
X135970481Y-53595484D01*
X136113883Y-53643472D01*
X136262030Y-53692159D01*
X136406500Y-53738782D01*
X136538873Y-53780574D01*
X136650727Y-53814774D01*
X136733643Y-53838615D01*
X136779200Y-53849334D01*
X136781937Y-53849620D01*
X136792559Y-53830371D01*
X136787662Y-53788947D01*
X136774166Y-53723859D01*
X136760343Y-53640755D01*
X136757588Y-53621516D01*
X136743083Y-53516113D01*
X136106942Y-53322713D01*
X135937613Y-53271478D01*
X135783869Y-53225427D01*
X135652082Y-53186430D01*
X135548625Y-53156359D01*
X135479870Y-53137084D01*
X135452198Y-53130476D01*
X135431110Y-53150492D01*
X135286091Y-53150492D01*
X135278788Y-53116496D01*
X135248541Y-53055364D01*
X135193861Y-52991640D01*
X135159367Y-52958050D01*
X135058404Y-52837406D01*
X135002300Y-52705138D01*
X134992763Y-52626657D01*
X135140401Y-52626657D01*
X135151114Y-52702852D01*
X135194165Y-52788486D01*
X135259975Y-52866468D01*
X135287840Y-52889710D01*
X135325033Y-52907600D01*
X135401284Y-52937259D01*
X135508220Y-52975928D01*
X135637465Y-53020844D01*
X135780647Y-53069247D01*
X135929389Y-53118374D01*
X136075318Y-53165466D01*
X136210060Y-53207761D01*
X136325239Y-53242498D01*
X136412482Y-53266914D01*
X136463414Y-53278250D01*
X136467458Y-53278655D01*
X136484355Y-53265479D01*
X136478357Y-53217334D01*
X136473659Y-53200017D01*
X136456847Y-53117432D01*
X136450586Y-53043951D01*
X136450586Y-52968337D01*
X135799463Y-52767314D01*
X135148340Y-52566290D01*
X135140401Y-52626657D01*
X134992763Y-52626657D01*
X134986307Y-52573535D01*
X134975080Y-52517716D01*
X134936191Y-52468993D01*
X134885324Y-52429986D01*
X134800226Y-52351280D01*
X134738221Y-52256878D01*
X134737982Y-52256354D01*
X134710911Y-52174626D01*
X134694464Y-52080543D01*
X134694356Y-52078673D01*
X134838282Y-52078673D01*
X134861785Y-52183334D01*
X134927271Y-52279055D01*
X135003243Y-52340196D01*
X135047523Y-52360752D01*
X135130134Y-52393002D01*
X135242454Y-52434055D01*
X135375863Y-52481020D01*
X135521739Y-52531008D01*
X135671462Y-52581127D01*
X135816412Y-52628487D01*
X135947967Y-52670199D01*
X136057507Y-52703371D01*
X136136411Y-52725113D01*
X136173205Y-52732466D01*
X136194189Y-52719402D01*
X136187276Y-52678955D01*
X136171442Y-52617241D01*
X136156604Y-52537771D01*
X136154599Y-52524337D01*
X136152077Y-52506622D01*
X136303058Y-52506622D01*
X136304558Y-52556338D01*
X136322682Y-52620873D01*
X136350276Y-52677607D01*
X136401518Y-52744064D01*
X136459675Y-52796837D01*
X136462681Y-52798856D01*
X136502857Y-52817157D01*
X136583625Y-52847451D01*
X136698084Y-52887389D01*
X136839338Y-52934618D01*
X137000486Y-52986789D01*
X137174630Y-53041550D01*
X137177000Y-53042285D01*
X137372104Y-53103114D01*
X137524752Y-53151821D01*
X137640052Y-53190376D01*
X137723112Y-53220753D01*
X137779041Y-53244923D01*
X137812947Y-53264856D01*
X137829939Y-53282525D01*
X137834759Y-53296150D01*
X137826236Y-53343811D01*
X137806373Y-53362344D01*
X137773573Y-53359082D01*
X137700391Y-53342618D01*
X137593714Y-53314803D01*
X137460429Y-53277488D01*
X137307423Y-53232527D01*
X137184944Y-53195234D01*
X137003698Y-53139375D01*
X136864328Y-53097074D01*
X136761336Y-53067168D01*
X136689223Y-53048494D01*
X136642491Y-53039888D01*
X136615641Y-53040189D01*
X136603174Y-53048232D01*
X136599592Y-53062856D01*
X136599414Y-53071380D01*
X136623554Y-53188283D01*
X136693632Y-53293768D01*
X136713488Y-53313430D01*
X136741033Y-53335100D01*
X136779872Y-53357598D01*
X136835031Y-53382739D01*
X136911538Y-53412337D01*
X137014420Y-53448207D01*
X137148703Y-53492162D01*
X137319416Y-53546017D01*
X137531586Y-53611587D01*
X137585401Y-53628094D01*
X137701327Y-53665122D01*
X137776874Y-53693767D01*
X137819747Y-53717859D01*
X137837650Y-53741228D01*
X137839649Y-53754462D01*
X137821810Y-53801772D01*
X137800132Y-53818088D01*
X137764521Y-53815914D01*
X137690186Y-53800499D01*
X137585571Y-53773962D01*
X137459122Y-53738427D01*
X137340238Y-53702562D01*
X137203977Y-53661210D01*
X137084508Y-53626872D01*
X136989669Y-53601645D01*
X136927301Y-53587627D01*
X136905488Y-53586244D01*
X136900369Y-53617654D01*
X136905777Y-53677372D01*
X136908607Y-53693853D01*
X136936487Y-53778006D01*
X136989512Y-53849312D01*
X137073519Y-53911956D01*
X137194345Y-53970125D01*
X137357827Y-54028005D01*
X137387419Y-54037238D01*
X137508450Y-54074507D01*
X137619522Y-54108777D01*
X137707907Y-54136118D01*
X137759034Y-54152019D01*
X137822022Y-54184983D01*
X137839649Y-54225749D01*
X137830758Y-54264510D01*
X137800132Y-54284263D01*
X137741844Y-54285018D01*
X137649966Y-54266788D01*
X137518570Y-54229584D01*
X137508206Y-54226413D01*
X137379495Y-54187461D01*
X137291227Y-54163128D01*
X137236596Y-54152916D01*
X137208794Y-54156328D01*
X137201014Y-54172869D01*
X137206450Y-54202041D01*
X137207121Y-54204443D01*
X137245073Y-54315662D01*
X137289928Y-54392519D01*
X137351078Y-54450198D01*
X137365388Y-54460292D01*
X137404935Y-54484979D01*
X137444775Y-54501849D01*
X137495121Y-54512380D01*
X137566186Y-54518047D01*
X137668184Y-54520326D01*
X137783395Y-54520703D01*
X138112500Y-54520703D01*
X138111412Y-53919189D01*
X138109910Y-53694070D01*
X138105330Y-53512736D01*
X138096213Y-53369387D01*
X138081095Y-53258226D01*
X138058516Y-53173453D01*
X138027015Y-53109270D01*
X137985130Y-53059878D01*
X137931400Y-53019480D01*
X137876914Y-52988704D01*
X137839522Y-52973834D01*
X137762928Y-52946775D01*
X137654104Y-52909775D01*
X137520024Y-52865083D01*
X137367661Y-52814948D01*
X137203987Y-52761619D01*
X137035974Y-52707345D01*
X136870597Y-52654375D01*
X136714826Y-52604957D01*
X136575637Y-52561341D01*
X136460000Y-52525776D01*
X136374889Y-52500510D01*
X136327276Y-52487793D01*
X136320520Y-52486718D01*
X136303058Y-52506622D01*
X136152077Y-52506622D01*
X136140528Y-52425529D01*
X135495606Y-52220635D01*
X135326146Y-52166860D01*
X135172894Y-52118352D01*
X135041986Y-52077041D01*
X134939557Y-52044860D01*
X134871744Y-52023741D01*
X134844681Y-52015617D01*
X134844483Y-52015585D01*
X134839849Y-52036792D01*
X134838282Y-52078673D01*
X134694356Y-52078673D01*
X134689086Y-51987738D01*
X134695220Y-51909844D01*
X134713315Y-51860497D01*
X134724758Y-51851497D01*
X134757313Y-51854929D01*
G37*
X134757313Y-51854929D02*
X134830254Y-51871719D01*
X134936750Y-51899997D01*
X135069971Y-51937892D01*
X135223089Y-51983534D01*
X135351076Y-52023039D01*
X135753996Y-52149477D01*
X136129635Y-52267870D01*
X136475943Y-52377554D01*
X136790869Y-52477866D01*
X137072363Y-52568143D01*
X137318374Y-52647724D01*
X137526854Y-52715945D01*
X137695750Y-52772144D01*
X137823014Y-52815658D01*
X137906594Y-52845824D01*
X137941216Y-52860197D01*
X138015233Y-52908866D01*
X138089758Y-52974311D01*
X138107583Y-52993404D01*
X138151281Y-53048230D01*
X138185970Y-53106355D01*
X138212656Y-53174087D01*
X138232344Y-53257740D01*
X138246040Y-53363624D01*
X138254749Y-53498051D01*
X138259478Y-53667331D01*
X138261231Y-53877776D01*
X138261329Y-53958255D01*
X138261329Y-54577429D01*
X138743758Y-55530053D01*
X138848185Y-55735248D01*
X138948182Y-55929820D01*
X139041024Y-56108602D01*
X139123984Y-56266428D01*
X139194337Y-56398132D01*
X139249357Y-56498546D01*
X139286319Y-56562505D01*
X139297630Y-56579824D01*
X139341568Y-56631164D01*
X139414020Y-56706570D01*
X139506261Y-56797330D01*
X139609563Y-56894734D01*
X139652359Y-56933908D01*
X139760432Y-57031374D01*
X139837715Y-57104145D01*
X139888491Y-57162613D01*
X139917041Y-57217170D01*
X139927648Y-57278207D01*
X139924595Y-57356116D01*
X139912162Y-57461288D01*
X139902182Y-57540169D01*
X139879591Y-57568693D01*
X139826520Y-57606420D01*
X139793018Y-57625228D01*
X139676012Y-57665383D01*
X139524744Y-57686235D01*
X139350803Y-57687431D01*
X139165774Y-57668617D01*
X139055079Y-57647760D01*
X138854496Y-57597545D01*
X138684373Y-57540581D01*
X138535206Y-57470836D01*
X138397490Y-57382277D01*
X138261722Y-57268870D01*
X138249470Y-57256535D01*
X138745020Y-57256535D01*
X138831836Y-57292775D01*
X138932826Y-57326642D01*
X139062356Y-57358529D01*
X139203612Y-57385444D01*
X139339780Y-57404391D01*
X139454043Y-57412379D01*
X139497776Y-57411323D01*
X139627477Y-57385667D01*
X139714648Y-57343779D01*
X139767349Y-57304078D01*
X139796814Y-57274479D01*
X139799050Y-57269042D01*
X139781498Y-57247173D01*
X139733262Y-57199325D01*
X139661170Y-57131983D01*
X139572047Y-57051636D01*
X139545944Y-57028548D01*
X139292668Y-56805437D01*
X139194726Y-56859896D01*
X139133200Y-56901704D01*
X139050890Y-56967810D01*
X138961541Y-57046894D01*
X138920902Y-57085445D01*
X138745020Y-57256535D01*
X138249470Y-57256535D01*
X138118396Y-57124584D01*
X137973031Y-56960944D01*
X137852984Y-56822836D01*
X137751674Y-56712387D01*
X137659238Y-56621347D01*
X137565814Y-56541465D01*
X137461538Y-56464491D01*
X137336547Y-56382173D01*
X137180978Y-56286261D01*
X137128943Y-56254850D01*
X136915655Y-56117021D01*
X136771836Y-56005694D01*
X137343555Y-56005694D01*
X137363269Y-56029811D01*
X137415100Y-56070062D01*
X137488084Y-56117982D01*
X137492576Y-56120722D01*
X137617602Y-56200821D01*
X137728054Y-56282252D01*
X137833278Y-56373518D01*
X137942618Y-56483122D01*
X138065419Y-56619568D01*
X138151620Y-56720432D01*
X138285217Y-56876830D01*
X138390611Y-56995513D01*
X138469560Y-57078302D01*
X138523824Y-57127020D01*
X138555162Y-57143490D01*
X138559464Y-57142847D01*
X138581558Y-57123318D01*
X138627354Y-57077008D01*
X138687112Y-57013779D01*
X138689532Y-57011170D01*
X138806717Y-56884742D01*
X138310152Y-56223085D01*
X138172545Y-56040353D01*
X138061167Y-55894118D01*
X137972997Y-55780803D01*
X137905017Y-55696833D01*
X137854207Y-55638633D01*
X137817547Y-55602628D01*
X137792019Y-55585243D01*
X137774603Y-55582902D01*
X137770807Y-55584435D01*
X137732390Y-55612678D01*
X137672349Y-55665113D01*
X137599384Y-55733164D01*
X137522193Y-55808255D01*
X137449476Y-55881807D01*
X137389931Y-55945245D01*
X137352257Y-55989991D01*
X137343555Y-56005694D01*
X136771836Y-56005694D01*
X136749507Y-55988410D01*
X136629147Y-55867761D01*
X136553222Y-55753819D01*
X136531902Y-55700286D01*
X136518086Y-55612882D01*
X136529161Y-55538011D01*
X136562162Y-55490333D01*
X136575711Y-55483584D01*
X136585288Y-55470862D01*
X136773047Y-55470862D01*
X136795845Y-55584782D01*
X136858704Y-55695237D01*
X136953327Y-55787702D01*
X136954596Y-55788624D01*
X137016911Y-55830387D01*
X137064347Y-55856156D01*
X137077970Y-55860156D01*
X137089609Y-55836600D01*
X137093450Y-55769804D01*
X137089313Y-55667920D01*
X137079420Y-55574889D01*
X137062334Y-55464025D01*
X137040137Y-55344410D01*
X137014909Y-55225131D01*
X136988733Y-55115272D01*
X136963689Y-55023916D01*
X136941858Y-54960149D01*
X136925321Y-54933055D01*
X136921163Y-54933924D01*
X136903047Y-54969883D01*
X136877914Y-55041244D01*
X136849366Y-55134949D01*
X136821003Y-55237939D01*
X136796430Y-55337157D01*
X136779247Y-55419545D01*
X136773047Y-55470862D01*
X136585288Y-55470862D01*
X136597124Y-55455141D01*
X136625379Y-55387704D01*
X136657886Y-55290984D01*
X136692058Y-55174691D01*
X136725304Y-55048538D01*
X136755036Y-54922235D01*
X136778665Y-54805492D01*
X136788096Y-54743945D01*
X137102641Y-54743945D01*
X137173559Y-54996563D01*
X137207262Y-55123750D01*
X137238498Y-55254138D01*
X137262549Y-55367503D01*
X137270495Y-55412042D01*
X137289761Y-55535201D01*
X137304873Y-55614267D01*
X137322102Y-55653646D01*
X137347719Y-55657747D01*
X137387993Y-55630978D01*
X137449195Y-55577747D01*
X137474598Y-55555519D01*
X137570607Y-55474571D01*
X137646962Y-55412824D01*
X138004861Y-55412824D01*
X138014185Y-55436751D01*
X138050226Y-55495394D01*
X138109669Y-55583982D01*
X138189196Y-55697746D01*
X138285492Y-55831919D01*
X138395238Y-55981730D01*
X138476151Y-56090493D01*
X138968262Y-56747994D01*
X139055079Y-56696643D01*
X139110727Y-56663700D01*
X139144165Y-56643855D01*
X139147672Y-56641754D01*
X139138701Y-56619822D01*
X139110197Y-56561416D01*
X139065870Y-56473892D01*
X139009430Y-56364602D01*
X138965281Y-56280192D01*
X138881810Y-56120177D01*
X138787018Y-55936540D01*
X138691604Y-55750114D01*
X138606267Y-55581731D01*
X138592662Y-55554668D01*
X138408213Y-55187168D01*
X138216948Y-55289913D01*
X138128263Y-55338529D01*
X138056127Y-55379882D01*
X138011993Y-55407336D01*
X138004861Y-55412824D01*
X137646962Y-55412824D01*
X137674680Y-55390409D01*
X137764448Y-55321119D01*
X137765235Y-55320535D01*
X137854359Y-55259494D01*
X137966395Y-55189825D01*
X138079766Y-55124844D01*
X138100098Y-55113902D01*
X138188543Y-55066718D01*
X138258738Y-55028891D01*
X138300354Y-55006006D01*
X138307140Y-55001972D01*
X138300702Y-54978817D01*
X138275200Y-54925487D01*
X138245129Y-54869724D01*
X138174512Y-54743995D01*
X137638577Y-54743970D01*
X137102641Y-54743945D01*
X136788096Y-54743945D01*
X136793602Y-54708021D01*
X136797554Y-54651499D01*
X136795282Y-54563094D01*
X136785254Y-54509919D01*
X136763292Y-54477728D01*
X136742041Y-54462176D01*
X136700359Y-54443258D01*
X136620421Y-54413028D01*
X136511398Y-54374735D01*
X136382459Y-54331624D01*
X136282032Y-54299295D01*
X136125258Y-54248553D01*
X136007759Y-54207403D01*
X135921018Y-54172143D01*
X135856515Y-54139069D01*
X135805731Y-54104479D01*
X135775945Y-54079341D01*
X135675985Y-53966494D01*
X135621312Y-53845857D01*
X135607227Y-53729773D01*
X135606598Y-53722786D01*
X135745567Y-53722786D01*
X135754203Y-53780254D01*
X135757636Y-53796407D01*
X135779410Y-53864008D01*
X135815555Y-53922023D01*
X135871859Y-53974036D01*
X135954111Y-54023629D01*
X136068099Y-54074383D01*
X136219613Y-54129883D01*
X136383940Y-54184011D01*
X136543674Y-54235854D01*
X136663011Y-54277019D01*
X136749205Y-54310633D01*
X136809509Y-54339818D01*
X136851178Y-54367702D01*
X136881466Y-54397407D01*
X136882702Y-54398866D01*
X136923418Y-54452524D01*
X136945417Y-54491776D01*
X136946680Y-54497801D01*
X136968983Y-54510904D01*
X137025971Y-54519192D01*
X137069867Y-54520703D01*
X137193054Y-54520703D01*
X137138186Y-54427709D01*
X137101673Y-54343847D01*
X137075646Y-54244608D01*
X137070810Y-54210908D01*
X137058301Y-54087101D01*
X136407925Y-53885609D01*
X136237377Y-53833242D01*
X136082804Y-53786679D01*
X135950376Y-53747707D01*
X135846264Y-53718112D01*
X135776639Y-53699680D01*
X135747670Y-53694198D01*
X135747292Y-53694375D01*
X135745567Y-53722786D01*
X135606598Y-53722786D01*
X135601061Y-53661297D01*
X135573918Y-53616737D01*
X135520191Y-53577989D01*
X135426816Y-53494363D01*
X135351849Y-53376287D01*
X135303545Y-53237870D01*
X135295371Y-53193695D01*
X135286091Y-53150492D01*
X135431110Y-53150492D01*
X135435051Y-53198769D01*
X135458747Y-53264291D01*
X135496923Y-53336039D01*
X135544305Y-53402998D01*
X135595619Y-53454149D01*
X135612728Y-53465807D01*
X135652946Y-53483357D01*
X135731592Y-53512662D01*
X135840244Y-53550959D01*
X135970481Y-53595484D01*
X136113883Y-53643472D01*
X136262030Y-53692159D01*
X136406500Y-53738782D01*
X136538873Y-53780574D01*
X136650727Y-53814774D01*
X136733643Y-53838615D01*
X136779200Y-53849334D01*
X136781937Y-53849620D01*
X136792559Y-53830371D01*
X136787662Y-53788947D01*
X136774166Y-53723859D01*
X136760343Y-53640755D01*
X136757588Y-53621516D01*
X136743083Y-53516113D01*
X136106942Y-53322713D01*
X135937613Y-53271478D01*
X135783869Y-53225427D01*
X135652082Y-53186430D01*
X135548625Y-53156359D01*
X135479870Y-53137084D01*
X135452198Y-53130476D01*
X135431110Y-53150492D01*
X135286091Y-53150492D01*
X135278788Y-53116496D01*
X135248541Y-53055364D01*
X135193861Y-52991640D01*
X135159367Y-52958050D01*
X135058404Y-52837406D01*
X135002300Y-52705138D01*
X134992763Y-52626657D01*
X135140401Y-52626657D01*
X135151114Y-52702852D01*
X135194165Y-52788486D01*
X135259975Y-52866468D01*
X135287840Y-52889710D01*
X135325033Y-52907600D01*
X135401284Y-52937259D01*
X135508220Y-52975928D01*
X135637465Y-53020844D01*
X135780647Y-53069247D01*
X135929389Y-53118374D01*
X136075318Y-53165466D01*
X136210060Y-53207761D01*
X136325239Y-53242498D01*
X136412482Y-53266914D01*
X136463414Y-53278250D01*
X136467458Y-53278655D01*
X136484355Y-53265479D01*
X136478357Y-53217334D01*
X136473659Y-53200017D01*
X136456847Y-53117432D01*
X136450586Y-53043951D01*
X136450586Y-52968337D01*
X135799463Y-52767314D01*
X135148340Y-52566290D01*
X135140401Y-52626657D01*
X134992763Y-52626657D01*
X134986307Y-52573535D01*
X134975080Y-52517716D01*
X134936191Y-52468993D01*
X134885324Y-52429986D01*
X134800226Y-52351280D01*
X134738221Y-52256878D01*
X134737982Y-52256354D01*
X134710911Y-52174626D01*
X134694464Y-52080543D01*
X134694356Y-52078673D01*
X134838282Y-52078673D01*
X134861785Y-52183334D01*
X134927271Y-52279055D01*
X135003243Y-52340196D01*
X135047523Y-52360752D01*
X135130134Y-52393002D01*
X135242454Y-52434055D01*
X135375863Y-52481020D01*
X135521739Y-52531008D01*
X135671462Y-52581127D01*
X135816412Y-52628487D01*
X135947967Y-52670199D01*
X136057507Y-52703371D01*
X136136411Y-52725113D01*
X136173205Y-52732466D01*
X136194189Y-52719402D01*
X136187276Y-52678955D01*
X136171442Y-52617241D01*
X136156604Y-52537771D01*
X136154599Y-52524337D01*
X136152077Y-52506622D01*
X136303058Y-52506622D01*
X136304558Y-52556338D01*
X136322682Y-52620873D01*
X136350276Y-52677607D01*
X136401518Y-52744064D01*
X136459675Y-52796837D01*
X136462681Y-52798856D01*
X136502857Y-52817157D01*
X136583625Y-52847451D01*
X136698084Y-52887389D01*
X136839338Y-52934618D01*
X137000486Y-52986789D01*
X137174630Y-53041550D01*
X137177000Y-53042285D01*
X137372104Y-53103114D01*
X137524752Y-53151821D01*
X137640052Y-53190376D01*
X137723112Y-53220753D01*
X137779041Y-53244923D01*
X137812947Y-53264856D01*
X137829939Y-53282525D01*
X137834759Y-53296150D01*
X137826236Y-53343811D01*
X137806373Y-53362344D01*
X137773573Y-53359082D01*
X137700391Y-53342618D01*
X137593714Y-53314803D01*
X137460429Y-53277488D01*
X137307423Y-53232527D01*
X137184944Y-53195234D01*
X137003698Y-53139375D01*
X136864328Y-53097074D01*
X136761336Y-53067168D01*
X136689223Y-53048494D01*
X136642491Y-53039888D01*
X136615641Y-53040189D01*
X136603174Y-53048232D01*
X136599592Y-53062856D01*
X136599414Y-53071380D01*
X136623554Y-53188283D01*
X136693632Y-53293768D01*
X136713488Y-53313430D01*
X136741033Y-53335100D01*
X136779872Y-53357598D01*
X136835031Y-53382739D01*
X136911538Y-53412337D01*
X137014420Y-53448207D01*
X137148703Y-53492162D01*
X137319416Y-53546017D01*
X137531586Y-53611587D01*
X137585401Y-53628094D01*
X137701327Y-53665122D01*
X137776874Y-53693767D01*
X137819747Y-53717859D01*
X137837650Y-53741228D01*
X137839649Y-53754462D01*
X137821810Y-53801772D01*
X137800132Y-53818088D01*
X137764521Y-53815914D01*
X137690186Y-53800499D01*
X137585571Y-53773962D01*
X137459122Y-53738427D01*
X137340238Y-53702562D01*
X137203977Y-53661210D01*
X137084508Y-53626872D01*
X136989669Y-53601645D01*
X136927301Y-53587627D01*
X136905488Y-53586244D01*
X136900369Y-53617654D01*
X136905777Y-53677372D01*
X136908607Y-53693853D01*
X136936487Y-53778006D01*
X136989512Y-53849312D01*
X137073519Y-53911956D01*
X137194345Y-53970125D01*
X137357827Y-54028005D01*
X137387419Y-54037238D01*
X137508450Y-54074507D01*
X137619522Y-54108777D01*
X137707907Y-54136118D01*
X137759034Y-54152019D01*
X137822022Y-54184983D01*
X137839649Y-54225749D01*
X137830758Y-54264510D01*
X137800132Y-54284263D01*
X137741844Y-54285018D01*
X137649966Y-54266788D01*
X137518570Y-54229584D01*
X137508206Y-54226413D01*
X137379495Y-54187461D01*
X137291227Y-54163128D01*
X137236596Y-54152916D01*
X137208794Y-54156328D01*
X137201014Y-54172869D01*
X137206450Y-54202041D01*
X137207121Y-54204443D01*
X137245073Y-54315662D01*
X137289928Y-54392519D01*
X137351078Y-54450198D01*
X137365388Y-54460292D01*
X137404935Y-54484979D01*
X137444775Y-54501849D01*
X137495121Y-54512380D01*
X137566186Y-54518047D01*
X137668184Y-54520326D01*
X137783395Y-54520703D01*
X138112500Y-54520703D01*
X138111412Y-53919189D01*
X138109910Y-53694070D01*
X138105330Y-53512736D01*
X138096213Y-53369387D01*
X138081095Y-53258226D01*
X138058516Y-53173453D01*
X138027015Y-53109270D01*
X137985130Y-53059878D01*
X137931400Y-53019480D01*
X137876914Y-52988704D01*
X137839522Y-52973834D01*
X137762928Y-52946775D01*
X137654104Y-52909775D01*
X137520024Y-52865083D01*
X137367661Y-52814948D01*
X137203987Y-52761619D01*
X137035974Y-52707345D01*
X136870597Y-52654375D01*
X136714826Y-52604957D01*
X136575637Y-52561341D01*
X136460000Y-52525776D01*
X136374889Y-52500510D01*
X136327276Y-52487793D01*
X136320520Y-52486718D01*
X136303058Y-52506622D01*
X136152077Y-52506622D01*
X136140528Y-52425529D01*
X135495606Y-52220635D01*
X135326146Y-52166860D01*
X135172894Y-52118352D01*
X135041986Y-52077041D01*
X134939557Y-52044860D01*
X134871744Y-52023741D01*
X134844681Y-52015617D01*
X134844483Y-52015585D01*
X134839849Y-52036792D01*
X134838282Y-52078673D01*
X134694356Y-52078673D01*
X134689086Y-51987738D01*
X134695220Y-51909844D01*
X134713315Y-51860497D01*
X134724758Y-51851497D01*
X134757313Y-51854929D01*
G36*
X53794813Y-150279929D02*
G01*
X53867754Y-150296719D01*
X53974250Y-150324997D01*
X54107471Y-150362892D01*
X54260589Y-150408534D01*
X54388576Y-150448039D01*
X54791496Y-150574477D01*
X55167135Y-150692870D01*
X55513443Y-150802554D01*
X55828369Y-150902866D01*
X56109863Y-150993143D01*
X56355874Y-151072724D01*
X56564354Y-151140945D01*
X56733250Y-151197144D01*
X56860514Y-151240658D01*
X56944094Y-151270824D01*
X56978716Y-151285197D01*
X57052733Y-151333866D01*
X57127258Y-151399311D01*
X57145083Y-151418404D01*
X57188781Y-151473230D01*
X57223470Y-151531355D01*
X57250156Y-151599087D01*
X57269844Y-151682740D01*
X57283540Y-151788624D01*
X57292249Y-151923051D01*
X57296978Y-152092331D01*
X57298731Y-152302776D01*
X57298829Y-152383255D01*
X57298829Y-153002429D01*
X57781258Y-153955053D01*
X57885685Y-154160248D01*
X57985682Y-154354820D01*
X58078524Y-154533602D01*
X58161484Y-154691428D01*
X58231837Y-154823132D01*
X58286857Y-154923546D01*
X58323819Y-154987505D01*
X58335130Y-155004824D01*
X58379068Y-155056164D01*
X58451520Y-155131570D01*
X58543761Y-155222330D01*
X58647063Y-155319734D01*
X58689859Y-155358908D01*
X58797932Y-155456374D01*
X58875215Y-155529145D01*
X58925991Y-155587613D01*
X58954541Y-155642170D01*
X58965148Y-155703207D01*
X58962095Y-155781116D01*
X58949662Y-155886288D01*
X58939682Y-155965169D01*
X58917091Y-155993693D01*
X58864020Y-156031420D01*
X58830518Y-156050228D01*
X58713512Y-156090383D01*
X58562244Y-156111235D01*
X58388303Y-156112431D01*
X58203274Y-156093617D01*
X58092579Y-156072760D01*
X57891996Y-156022545D01*
X57721873Y-155965581D01*
X57572706Y-155895836D01*
X57434990Y-155807277D01*
X57299222Y-155693870D01*
X57286970Y-155681535D01*
X57782520Y-155681535D01*
X57869336Y-155717775D01*
X57970326Y-155751642D01*
X58099856Y-155783529D01*
X58241112Y-155810444D01*
X58377280Y-155829391D01*
X58491543Y-155837379D01*
X58535276Y-155836323D01*
X58664977Y-155810667D01*
X58752148Y-155768779D01*
X58804849Y-155729078D01*
X58834314Y-155699479D01*
X58836550Y-155694042D01*
X58818998Y-155672173D01*
X58770762Y-155624325D01*
X58698670Y-155556983D01*
X58609547Y-155476636D01*
X58583444Y-155453548D01*
X58330168Y-155230437D01*
X58232226Y-155284896D01*
X58170700Y-155326704D01*
X58088390Y-155392810D01*
X57999041Y-155471894D01*
X57958402Y-155510445D01*
X57782520Y-155681535D01*
X57286970Y-155681535D01*
X57155896Y-155549584D01*
X57010531Y-155385944D01*
X56890484Y-155247836D01*
X56789174Y-155137387D01*
X56696738Y-155046347D01*
X56603314Y-154966465D01*
X56499038Y-154889491D01*
X56374047Y-154807173D01*
X56218478Y-154711261D01*
X56166443Y-154679850D01*
X55953155Y-154542021D01*
X55809336Y-154430694D01*
X56381055Y-154430694D01*
X56400769Y-154454811D01*
X56452600Y-154495062D01*
X56525584Y-154542982D01*
X56530076Y-154545722D01*
X56655102Y-154625821D01*
X56765554Y-154707252D01*
X56870778Y-154798518D01*
X56980118Y-154908122D01*
X57102919Y-155044568D01*
X57189120Y-155145432D01*
X57322717Y-155301830D01*
X57428111Y-155420513D01*
X57507060Y-155503302D01*
X57561324Y-155552020D01*
X57592662Y-155568490D01*
X57596964Y-155567847D01*
X57619058Y-155548318D01*
X57664854Y-155502008D01*
X57724612Y-155438779D01*
X57727032Y-155436170D01*
X57844217Y-155309742D01*
X57347652Y-154648085D01*
X57210045Y-154465353D01*
X57098667Y-154319118D01*
X57010497Y-154205803D01*
X56942517Y-154121833D01*
X56891707Y-154063633D01*
X56855047Y-154027628D01*
X56829519Y-154010243D01*
X56812103Y-154007902D01*
X56808307Y-154009435D01*
X56769890Y-154037678D01*
X56709849Y-154090113D01*
X56636884Y-154158164D01*
X56559693Y-154233255D01*
X56486976Y-154306807D01*
X56427431Y-154370245D01*
X56389757Y-154414991D01*
X56381055Y-154430694D01*
X55809336Y-154430694D01*
X55787007Y-154413410D01*
X55666647Y-154292761D01*
X55590722Y-154178819D01*
X55569402Y-154125286D01*
X55555586Y-154037882D01*
X55566661Y-153963011D01*
X55599662Y-153915333D01*
X55613211Y-153908584D01*
X55622788Y-153895862D01*
X55810547Y-153895862D01*
X55833345Y-154009782D01*
X55896204Y-154120237D01*
X55990827Y-154212702D01*
X55992096Y-154213624D01*
X56054411Y-154255387D01*
X56101847Y-154281156D01*
X56115470Y-154285156D01*
X56127109Y-154261600D01*
X56130950Y-154194804D01*
X56126813Y-154092920D01*
X56116920Y-153999889D01*
X56099834Y-153889025D01*
X56077637Y-153769410D01*
X56052409Y-153650131D01*
X56026233Y-153540272D01*
X56001189Y-153448916D01*
X55979358Y-153385149D01*
X55962821Y-153358055D01*
X55958663Y-153358924D01*
X55940547Y-153394883D01*
X55915414Y-153466244D01*
X55886866Y-153559949D01*
X55858503Y-153662939D01*
X55833930Y-153762157D01*
X55816747Y-153844545D01*
X55810547Y-153895862D01*
X55622788Y-153895862D01*
X55634624Y-153880141D01*
X55662879Y-153812704D01*
X55695386Y-153715984D01*
X55729558Y-153599691D01*
X55762804Y-153473538D01*
X55792536Y-153347235D01*
X55816165Y-153230492D01*
X55825596Y-153168945D01*
X56140141Y-153168945D01*
X56211059Y-153421563D01*
X56244762Y-153548750D01*
X56275998Y-153679138D01*
X56300049Y-153792503D01*
X56307995Y-153837042D01*
X56327261Y-153960201D01*
X56342373Y-154039267D01*
X56359602Y-154078646D01*
X56385219Y-154082747D01*
X56425493Y-154055978D01*
X56486695Y-154002747D01*
X56512098Y-153980519D01*
X56608107Y-153899571D01*
X56684462Y-153837824D01*
X57042361Y-153837824D01*
X57051685Y-153861751D01*
X57087726Y-153920394D01*
X57147169Y-154008982D01*
X57226696Y-154122746D01*
X57322992Y-154256919D01*
X57432738Y-154406730D01*
X57513651Y-154515493D01*
X58005762Y-155172994D01*
X58092579Y-155121643D01*
X58148227Y-155088700D01*
X58181665Y-155068855D01*
X58185172Y-155066754D01*
X58176201Y-155044822D01*
X58147697Y-154986416D01*
X58103370Y-154898892D01*
X58046930Y-154789602D01*
X58002781Y-154705192D01*
X57919310Y-154545177D01*
X57824518Y-154361540D01*
X57729104Y-154175114D01*
X57643767Y-154006731D01*
X57630162Y-153979668D01*
X57445713Y-153612168D01*
X57254448Y-153714913D01*
X57165763Y-153763529D01*
X57093627Y-153804882D01*
X57049493Y-153832336D01*
X57042361Y-153837824D01*
X56684462Y-153837824D01*
X56712180Y-153815409D01*
X56801948Y-153746119D01*
X56802735Y-153745535D01*
X56891859Y-153684494D01*
X57003895Y-153614825D01*
X57117266Y-153549844D01*
X57137598Y-153538902D01*
X57226043Y-153491718D01*
X57296238Y-153453891D01*
X57337854Y-153431006D01*
X57344640Y-153426972D01*
X57338202Y-153403817D01*
X57312700Y-153350487D01*
X57282629Y-153294724D01*
X57212012Y-153168995D01*
X56676077Y-153168970D01*
X56140141Y-153168945D01*
X55825596Y-153168945D01*
X55831102Y-153133021D01*
X55835054Y-153076499D01*
X55832782Y-152988094D01*
X55822754Y-152934919D01*
X55800792Y-152902728D01*
X55779541Y-152887176D01*
X55737859Y-152868258D01*
X55657921Y-152838028D01*
X55548898Y-152799735D01*
X55419959Y-152756624D01*
X55319532Y-152724295D01*
X55162758Y-152673553D01*
X55045259Y-152632403D01*
X54958518Y-152597143D01*
X54894015Y-152564069D01*
X54843231Y-152529479D01*
X54813445Y-152504341D01*
X54713485Y-152391494D01*
X54658812Y-152270857D01*
X54644727Y-152154773D01*
X54644098Y-152147786D01*
X54783067Y-152147786D01*
X54791703Y-152205254D01*
X54795136Y-152221407D01*
X54816910Y-152289008D01*
X54853055Y-152347023D01*
X54909359Y-152399036D01*
X54991611Y-152448629D01*
X55105599Y-152499383D01*
X55257113Y-152554883D01*
X55421440Y-152609011D01*
X55581174Y-152660854D01*
X55700511Y-152702019D01*
X55786705Y-152735633D01*
X55847009Y-152764818D01*
X55888678Y-152792702D01*
X55918966Y-152822407D01*
X55920202Y-152823866D01*
X55960918Y-152877524D01*
X55982917Y-152916776D01*
X55984180Y-152922801D01*
X56006483Y-152935904D01*
X56063471Y-152944192D01*
X56107367Y-152945703D01*
X56230554Y-152945703D01*
X56175686Y-152852709D01*
X56139173Y-152768847D01*
X56113146Y-152669608D01*
X56108310Y-152635908D01*
X56095801Y-152512101D01*
X55445425Y-152310609D01*
X55274877Y-152258242D01*
X55120304Y-152211679D01*
X54987876Y-152172707D01*
X54883764Y-152143112D01*
X54814139Y-152124680D01*
X54785170Y-152119198D01*
X54784792Y-152119375D01*
X54783067Y-152147786D01*
X54644098Y-152147786D01*
X54638561Y-152086297D01*
X54611418Y-152041737D01*
X54557691Y-152002989D01*
X54464316Y-151919363D01*
X54389349Y-151801287D01*
X54341045Y-151662870D01*
X54332871Y-151618695D01*
X54323591Y-151575492D01*
X54468610Y-151575492D01*
X54472551Y-151623769D01*
X54496247Y-151689291D01*
X54534423Y-151761039D01*
X54581805Y-151827998D01*
X54633119Y-151879149D01*
X54650228Y-151890807D01*
X54690446Y-151908357D01*
X54769092Y-151937662D01*
X54877744Y-151975959D01*
X55007981Y-152020484D01*
X55151383Y-152068472D01*
X55299530Y-152117159D01*
X55444000Y-152163782D01*
X55576373Y-152205574D01*
X55688227Y-152239774D01*
X55771143Y-152263615D01*
X55816700Y-152274334D01*
X55819437Y-152274620D01*
X55830059Y-152255371D01*
X55825162Y-152213947D01*
X55811666Y-152148859D01*
X55797843Y-152065755D01*
X55795088Y-152046516D01*
X55780583Y-151941113D01*
X55144442Y-151747713D01*
X54975113Y-151696478D01*
X54821369Y-151650427D01*
X54689582Y-151611430D01*
X54586125Y-151581359D01*
X54517370Y-151562084D01*
X54489698Y-151555476D01*
X54468610Y-151575492D01*
X54323591Y-151575492D01*
X54316288Y-151541496D01*
X54286041Y-151480364D01*
X54231361Y-151416640D01*
X54196867Y-151383050D01*
X54095904Y-151262406D01*
X54039800Y-151130138D01*
X54030263Y-151051657D01*
X54177901Y-151051657D01*
X54188614Y-151127852D01*
X54231665Y-151213486D01*
X54297475Y-151291468D01*
X54325340Y-151314710D01*
X54362533Y-151332600D01*
X54438784Y-151362259D01*
X54545720Y-151400928D01*
X54674965Y-151445844D01*
X54818147Y-151494247D01*
X54966889Y-151543374D01*
X55112818Y-151590466D01*
X55247560Y-151632761D01*
X55362739Y-151667498D01*
X55449982Y-151691914D01*
X55500914Y-151703250D01*
X55504958Y-151703655D01*
X55521855Y-151690479D01*
X55515857Y-151642334D01*
X55511159Y-151625017D01*
X55494347Y-151542432D01*
X55488086Y-151468951D01*
X55488086Y-151393337D01*
X54836963Y-151192314D01*
X54185840Y-150991290D01*
X54177901Y-151051657D01*
X54030263Y-151051657D01*
X54023807Y-150998535D01*
X54012580Y-150942716D01*
X53973691Y-150893993D01*
X53922824Y-150854986D01*
X53837726Y-150776280D01*
X53775721Y-150681878D01*
X53775482Y-150681354D01*
X53748411Y-150599626D01*
X53731964Y-150505543D01*
X53731856Y-150503673D01*
X53875782Y-150503673D01*
X53899285Y-150608334D01*
X53964771Y-150704055D01*
X54040743Y-150765196D01*
X54085023Y-150785752D01*
X54167634Y-150818002D01*
X54279954Y-150859055D01*
X54413363Y-150906020D01*
X54559239Y-150956008D01*
X54708962Y-151006127D01*
X54853912Y-151053487D01*
X54985467Y-151095199D01*
X55095007Y-151128371D01*
X55173911Y-151150113D01*
X55210705Y-151157466D01*
X55231689Y-151144402D01*
X55224776Y-151103955D01*
X55208942Y-151042241D01*
X55194104Y-150962771D01*
X55192099Y-150949337D01*
X55189577Y-150931622D01*
X55340558Y-150931622D01*
X55342058Y-150981338D01*
X55360182Y-151045873D01*
X55387776Y-151102607D01*
X55439018Y-151169064D01*
X55497175Y-151221837D01*
X55500181Y-151223856D01*
X55540357Y-151242157D01*
X55621125Y-151272451D01*
X55735584Y-151312389D01*
X55876838Y-151359618D01*
X56037986Y-151411789D01*
X56212130Y-151466550D01*
X56214500Y-151467285D01*
X56409604Y-151528114D01*
X56562252Y-151576821D01*
X56677552Y-151615376D01*
X56760612Y-151645753D01*
X56816541Y-151669923D01*
X56850447Y-151689856D01*
X56867439Y-151707525D01*
X56872259Y-151721150D01*
X56863736Y-151768811D01*
X56843873Y-151787344D01*
X56811073Y-151784082D01*
X56737891Y-151767618D01*
X56631214Y-151739803D01*
X56497929Y-151702488D01*
X56344923Y-151657527D01*
X56222444Y-151620234D01*
X56041198Y-151564375D01*
X55901828Y-151522074D01*
X55798836Y-151492168D01*
X55726723Y-151473494D01*
X55679991Y-151464888D01*
X55653141Y-151465189D01*
X55640674Y-151473232D01*
X55637092Y-151487856D01*
X55636914Y-151496380D01*
X55661054Y-151613283D01*
X55731132Y-151718768D01*
X55750988Y-151738430D01*
X55778533Y-151760100D01*
X55817372Y-151782598D01*
X55872531Y-151807739D01*
X55949038Y-151837337D01*
X56051920Y-151873207D01*
X56186203Y-151917162D01*
X56356916Y-151971017D01*
X56569086Y-152036587D01*
X56622901Y-152053094D01*
X56738827Y-152090122D01*
X56814374Y-152118767D01*
X56857247Y-152142859D01*
X56875150Y-152166228D01*
X56877149Y-152179462D01*
X56859310Y-152226772D01*
X56837632Y-152243088D01*
X56802021Y-152240914D01*
X56727686Y-152225499D01*
X56623071Y-152198962D01*
X56496622Y-152163427D01*
X56377738Y-152127562D01*
X56241477Y-152086210D01*
X56122008Y-152051872D01*
X56027169Y-152026645D01*
X55964801Y-152012627D01*
X55942988Y-152011244D01*
X55937869Y-152042654D01*
X55943277Y-152102372D01*
X55946107Y-152118853D01*
X55973987Y-152203006D01*
X56027012Y-152274312D01*
X56111019Y-152336956D01*
X56231845Y-152395125D01*
X56395327Y-152453005D01*
X56424919Y-152462238D01*
X56545950Y-152499507D01*
X56657022Y-152533777D01*
X56745407Y-152561118D01*
X56796534Y-152577019D01*
X56859522Y-152609983D01*
X56877149Y-152650749D01*
X56868258Y-152689510D01*
X56837632Y-152709263D01*
X56779344Y-152710018D01*
X56687466Y-152691788D01*
X56556070Y-152654584D01*
X56545706Y-152651413D01*
X56416995Y-152612461D01*
X56328727Y-152588128D01*
X56274096Y-152577916D01*
X56246294Y-152581328D01*
X56238514Y-152597869D01*
X56243950Y-152627041D01*
X56244621Y-152629443D01*
X56282573Y-152740662D01*
X56327428Y-152817519D01*
X56388578Y-152875198D01*
X56402888Y-152885292D01*
X56442435Y-152909979D01*
X56482275Y-152926849D01*
X56532621Y-152937380D01*
X56603686Y-152943047D01*
X56705684Y-152945326D01*
X56820895Y-152945703D01*
X57150000Y-152945703D01*
X57148912Y-152344189D01*
X57147410Y-152119070D01*
X57142830Y-151937736D01*
X57133713Y-151794387D01*
X57118595Y-151683226D01*
X57096016Y-151598453D01*
X57064515Y-151534270D01*
X57022630Y-151484878D01*
X56968900Y-151444480D01*
X56914414Y-151413704D01*
X56877022Y-151398834D01*
X56800428Y-151371775D01*
X56691604Y-151334775D01*
X56557524Y-151290083D01*
X56405161Y-151239948D01*
X56241487Y-151186619D01*
X56073474Y-151132345D01*
X55908097Y-151079375D01*
X55752326Y-151029957D01*
X55613137Y-150986341D01*
X55497500Y-150950776D01*
X55412389Y-150925510D01*
X55364776Y-150912793D01*
X55358020Y-150911718D01*
X55340558Y-150931622D01*
X55189577Y-150931622D01*
X55178028Y-150850529D01*
X54533106Y-150645635D01*
X54363646Y-150591860D01*
X54210394Y-150543352D01*
X54079486Y-150502041D01*
X53977057Y-150469860D01*
X53909244Y-150448741D01*
X53882181Y-150440617D01*
X53881983Y-150440585D01*
X53877349Y-150461792D01*
X53875782Y-150503673D01*
X53731856Y-150503673D01*
X53726586Y-150412738D01*
X53732720Y-150334844D01*
X53750815Y-150285497D01*
X53762258Y-150276497D01*
X53794813Y-150279929D01*
G37*
X53794813Y-150279929D02*
X53867754Y-150296719D01*
X53974250Y-150324997D01*
X54107471Y-150362892D01*
X54260589Y-150408534D01*
X54388576Y-150448039D01*
X54791496Y-150574477D01*
X55167135Y-150692870D01*
X55513443Y-150802554D01*
X55828369Y-150902866D01*
X56109863Y-150993143D01*
X56355874Y-151072724D01*
X56564354Y-151140945D01*
X56733250Y-151197144D01*
X56860514Y-151240658D01*
X56944094Y-151270824D01*
X56978716Y-151285197D01*
X57052733Y-151333866D01*
X57127258Y-151399311D01*
X57145083Y-151418404D01*
X57188781Y-151473230D01*
X57223470Y-151531355D01*
X57250156Y-151599087D01*
X57269844Y-151682740D01*
X57283540Y-151788624D01*
X57292249Y-151923051D01*
X57296978Y-152092331D01*
X57298731Y-152302776D01*
X57298829Y-152383255D01*
X57298829Y-153002429D01*
X57781258Y-153955053D01*
X57885685Y-154160248D01*
X57985682Y-154354820D01*
X58078524Y-154533602D01*
X58161484Y-154691428D01*
X58231837Y-154823132D01*
X58286857Y-154923546D01*
X58323819Y-154987505D01*
X58335130Y-155004824D01*
X58379068Y-155056164D01*
X58451520Y-155131570D01*
X58543761Y-155222330D01*
X58647063Y-155319734D01*
X58689859Y-155358908D01*
X58797932Y-155456374D01*
X58875215Y-155529145D01*
X58925991Y-155587613D01*
X58954541Y-155642170D01*
X58965148Y-155703207D01*
X58962095Y-155781116D01*
X58949662Y-155886288D01*
X58939682Y-155965169D01*
X58917091Y-155993693D01*
X58864020Y-156031420D01*
X58830518Y-156050228D01*
X58713512Y-156090383D01*
X58562244Y-156111235D01*
X58388303Y-156112431D01*
X58203274Y-156093617D01*
X58092579Y-156072760D01*
X57891996Y-156022545D01*
X57721873Y-155965581D01*
X57572706Y-155895836D01*
X57434990Y-155807277D01*
X57299222Y-155693870D01*
X57286970Y-155681535D01*
X57782520Y-155681535D01*
X57869336Y-155717775D01*
X57970326Y-155751642D01*
X58099856Y-155783529D01*
X58241112Y-155810444D01*
X58377280Y-155829391D01*
X58491543Y-155837379D01*
X58535276Y-155836323D01*
X58664977Y-155810667D01*
X58752148Y-155768779D01*
X58804849Y-155729078D01*
X58834314Y-155699479D01*
X58836550Y-155694042D01*
X58818998Y-155672173D01*
X58770762Y-155624325D01*
X58698670Y-155556983D01*
X58609547Y-155476636D01*
X58583444Y-155453548D01*
X58330168Y-155230437D01*
X58232226Y-155284896D01*
X58170700Y-155326704D01*
X58088390Y-155392810D01*
X57999041Y-155471894D01*
X57958402Y-155510445D01*
X57782520Y-155681535D01*
X57286970Y-155681535D01*
X57155896Y-155549584D01*
X57010531Y-155385944D01*
X56890484Y-155247836D01*
X56789174Y-155137387D01*
X56696738Y-155046347D01*
X56603314Y-154966465D01*
X56499038Y-154889491D01*
X56374047Y-154807173D01*
X56218478Y-154711261D01*
X56166443Y-154679850D01*
X55953155Y-154542021D01*
X55809336Y-154430694D01*
X56381055Y-154430694D01*
X56400769Y-154454811D01*
X56452600Y-154495062D01*
X56525584Y-154542982D01*
X56530076Y-154545722D01*
X56655102Y-154625821D01*
X56765554Y-154707252D01*
X56870778Y-154798518D01*
X56980118Y-154908122D01*
X57102919Y-155044568D01*
X57189120Y-155145432D01*
X57322717Y-155301830D01*
X57428111Y-155420513D01*
X57507060Y-155503302D01*
X57561324Y-155552020D01*
X57592662Y-155568490D01*
X57596964Y-155567847D01*
X57619058Y-155548318D01*
X57664854Y-155502008D01*
X57724612Y-155438779D01*
X57727032Y-155436170D01*
X57844217Y-155309742D01*
X57347652Y-154648085D01*
X57210045Y-154465353D01*
X57098667Y-154319118D01*
X57010497Y-154205803D01*
X56942517Y-154121833D01*
X56891707Y-154063633D01*
X56855047Y-154027628D01*
X56829519Y-154010243D01*
X56812103Y-154007902D01*
X56808307Y-154009435D01*
X56769890Y-154037678D01*
X56709849Y-154090113D01*
X56636884Y-154158164D01*
X56559693Y-154233255D01*
X56486976Y-154306807D01*
X56427431Y-154370245D01*
X56389757Y-154414991D01*
X56381055Y-154430694D01*
X55809336Y-154430694D01*
X55787007Y-154413410D01*
X55666647Y-154292761D01*
X55590722Y-154178819D01*
X55569402Y-154125286D01*
X55555586Y-154037882D01*
X55566661Y-153963011D01*
X55599662Y-153915333D01*
X55613211Y-153908584D01*
X55622788Y-153895862D01*
X55810547Y-153895862D01*
X55833345Y-154009782D01*
X55896204Y-154120237D01*
X55990827Y-154212702D01*
X55992096Y-154213624D01*
X56054411Y-154255387D01*
X56101847Y-154281156D01*
X56115470Y-154285156D01*
X56127109Y-154261600D01*
X56130950Y-154194804D01*
X56126813Y-154092920D01*
X56116920Y-153999889D01*
X56099834Y-153889025D01*
X56077637Y-153769410D01*
X56052409Y-153650131D01*
X56026233Y-153540272D01*
X56001189Y-153448916D01*
X55979358Y-153385149D01*
X55962821Y-153358055D01*
X55958663Y-153358924D01*
X55940547Y-153394883D01*
X55915414Y-153466244D01*
X55886866Y-153559949D01*
X55858503Y-153662939D01*
X55833930Y-153762157D01*
X55816747Y-153844545D01*
X55810547Y-153895862D01*
X55622788Y-153895862D01*
X55634624Y-153880141D01*
X55662879Y-153812704D01*
X55695386Y-153715984D01*
X55729558Y-153599691D01*
X55762804Y-153473538D01*
X55792536Y-153347235D01*
X55816165Y-153230492D01*
X55825596Y-153168945D01*
X56140141Y-153168945D01*
X56211059Y-153421563D01*
X56244762Y-153548750D01*
X56275998Y-153679138D01*
X56300049Y-153792503D01*
X56307995Y-153837042D01*
X56327261Y-153960201D01*
X56342373Y-154039267D01*
X56359602Y-154078646D01*
X56385219Y-154082747D01*
X56425493Y-154055978D01*
X56486695Y-154002747D01*
X56512098Y-153980519D01*
X56608107Y-153899571D01*
X56684462Y-153837824D01*
X57042361Y-153837824D01*
X57051685Y-153861751D01*
X57087726Y-153920394D01*
X57147169Y-154008982D01*
X57226696Y-154122746D01*
X57322992Y-154256919D01*
X57432738Y-154406730D01*
X57513651Y-154515493D01*
X58005762Y-155172994D01*
X58092579Y-155121643D01*
X58148227Y-155088700D01*
X58181665Y-155068855D01*
X58185172Y-155066754D01*
X58176201Y-155044822D01*
X58147697Y-154986416D01*
X58103370Y-154898892D01*
X58046930Y-154789602D01*
X58002781Y-154705192D01*
X57919310Y-154545177D01*
X57824518Y-154361540D01*
X57729104Y-154175114D01*
X57643767Y-154006731D01*
X57630162Y-153979668D01*
X57445713Y-153612168D01*
X57254448Y-153714913D01*
X57165763Y-153763529D01*
X57093627Y-153804882D01*
X57049493Y-153832336D01*
X57042361Y-153837824D01*
X56684462Y-153837824D01*
X56712180Y-153815409D01*
X56801948Y-153746119D01*
X56802735Y-153745535D01*
X56891859Y-153684494D01*
X57003895Y-153614825D01*
X57117266Y-153549844D01*
X57137598Y-153538902D01*
X57226043Y-153491718D01*
X57296238Y-153453891D01*
X57337854Y-153431006D01*
X57344640Y-153426972D01*
X57338202Y-153403817D01*
X57312700Y-153350487D01*
X57282629Y-153294724D01*
X57212012Y-153168995D01*
X56676077Y-153168970D01*
X56140141Y-153168945D01*
X55825596Y-153168945D01*
X55831102Y-153133021D01*
X55835054Y-153076499D01*
X55832782Y-152988094D01*
X55822754Y-152934919D01*
X55800792Y-152902728D01*
X55779541Y-152887176D01*
X55737859Y-152868258D01*
X55657921Y-152838028D01*
X55548898Y-152799735D01*
X55419959Y-152756624D01*
X55319532Y-152724295D01*
X55162758Y-152673553D01*
X55045259Y-152632403D01*
X54958518Y-152597143D01*
X54894015Y-152564069D01*
X54843231Y-152529479D01*
X54813445Y-152504341D01*
X54713485Y-152391494D01*
X54658812Y-152270857D01*
X54644727Y-152154773D01*
X54644098Y-152147786D01*
X54783067Y-152147786D01*
X54791703Y-152205254D01*
X54795136Y-152221407D01*
X54816910Y-152289008D01*
X54853055Y-152347023D01*
X54909359Y-152399036D01*
X54991611Y-152448629D01*
X55105599Y-152499383D01*
X55257113Y-152554883D01*
X55421440Y-152609011D01*
X55581174Y-152660854D01*
X55700511Y-152702019D01*
X55786705Y-152735633D01*
X55847009Y-152764818D01*
X55888678Y-152792702D01*
X55918966Y-152822407D01*
X55920202Y-152823866D01*
X55960918Y-152877524D01*
X55982917Y-152916776D01*
X55984180Y-152922801D01*
X56006483Y-152935904D01*
X56063471Y-152944192D01*
X56107367Y-152945703D01*
X56230554Y-152945703D01*
X56175686Y-152852709D01*
X56139173Y-152768847D01*
X56113146Y-152669608D01*
X56108310Y-152635908D01*
X56095801Y-152512101D01*
X55445425Y-152310609D01*
X55274877Y-152258242D01*
X55120304Y-152211679D01*
X54987876Y-152172707D01*
X54883764Y-152143112D01*
X54814139Y-152124680D01*
X54785170Y-152119198D01*
X54784792Y-152119375D01*
X54783067Y-152147786D01*
X54644098Y-152147786D01*
X54638561Y-152086297D01*
X54611418Y-152041737D01*
X54557691Y-152002989D01*
X54464316Y-151919363D01*
X54389349Y-151801287D01*
X54341045Y-151662870D01*
X54332871Y-151618695D01*
X54323591Y-151575492D01*
X54468610Y-151575492D01*
X54472551Y-151623769D01*
X54496247Y-151689291D01*
X54534423Y-151761039D01*
X54581805Y-151827998D01*
X54633119Y-151879149D01*
X54650228Y-151890807D01*
X54690446Y-151908357D01*
X54769092Y-151937662D01*
X54877744Y-151975959D01*
X55007981Y-152020484D01*
X55151383Y-152068472D01*
X55299530Y-152117159D01*
X55444000Y-152163782D01*
X55576373Y-152205574D01*
X55688227Y-152239774D01*
X55771143Y-152263615D01*
X55816700Y-152274334D01*
X55819437Y-152274620D01*
X55830059Y-152255371D01*
X55825162Y-152213947D01*
X55811666Y-152148859D01*
X55797843Y-152065755D01*
X55795088Y-152046516D01*
X55780583Y-151941113D01*
X55144442Y-151747713D01*
X54975113Y-151696478D01*
X54821369Y-151650427D01*
X54689582Y-151611430D01*
X54586125Y-151581359D01*
X54517370Y-151562084D01*
X54489698Y-151555476D01*
X54468610Y-151575492D01*
X54323591Y-151575492D01*
X54316288Y-151541496D01*
X54286041Y-151480364D01*
X54231361Y-151416640D01*
X54196867Y-151383050D01*
X54095904Y-151262406D01*
X54039800Y-151130138D01*
X54030263Y-151051657D01*
X54177901Y-151051657D01*
X54188614Y-151127852D01*
X54231665Y-151213486D01*
X54297475Y-151291468D01*
X54325340Y-151314710D01*
X54362533Y-151332600D01*
X54438784Y-151362259D01*
X54545720Y-151400928D01*
X54674965Y-151445844D01*
X54818147Y-151494247D01*
X54966889Y-151543374D01*
X55112818Y-151590466D01*
X55247560Y-151632761D01*
X55362739Y-151667498D01*
X55449982Y-151691914D01*
X55500914Y-151703250D01*
X55504958Y-151703655D01*
X55521855Y-151690479D01*
X55515857Y-151642334D01*
X55511159Y-151625017D01*
X55494347Y-151542432D01*
X55488086Y-151468951D01*
X55488086Y-151393337D01*
X54836963Y-151192314D01*
X54185840Y-150991290D01*
X54177901Y-151051657D01*
X54030263Y-151051657D01*
X54023807Y-150998535D01*
X54012580Y-150942716D01*
X53973691Y-150893993D01*
X53922824Y-150854986D01*
X53837726Y-150776280D01*
X53775721Y-150681878D01*
X53775482Y-150681354D01*
X53748411Y-150599626D01*
X53731964Y-150505543D01*
X53731856Y-150503673D01*
X53875782Y-150503673D01*
X53899285Y-150608334D01*
X53964771Y-150704055D01*
X54040743Y-150765196D01*
X54085023Y-150785752D01*
X54167634Y-150818002D01*
X54279954Y-150859055D01*
X54413363Y-150906020D01*
X54559239Y-150956008D01*
X54708962Y-151006127D01*
X54853912Y-151053487D01*
X54985467Y-151095199D01*
X55095007Y-151128371D01*
X55173911Y-151150113D01*
X55210705Y-151157466D01*
X55231689Y-151144402D01*
X55224776Y-151103955D01*
X55208942Y-151042241D01*
X55194104Y-150962771D01*
X55192099Y-150949337D01*
X55189577Y-150931622D01*
X55340558Y-150931622D01*
X55342058Y-150981338D01*
X55360182Y-151045873D01*
X55387776Y-151102607D01*
X55439018Y-151169064D01*
X55497175Y-151221837D01*
X55500181Y-151223856D01*
X55540357Y-151242157D01*
X55621125Y-151272451D01*
X55735584Y-151312389D01*
X55876838Y-151359618D01*
X56037986Y-151411789D01*
X56212130Y-151466550D01*
X56214500Y-151467285D01*
X56409604Y-151528114D01*
X56562252Y-151576821D01*
X56677552Y-151615376D01*
X56760612Y-151645753D01*
X56816541Y-151669923D01*
X56850447Y-151689856D01*
X56867439Y-151707525D01*
X56872259Y-151721150D01*
X56863736Y-151768811D01*
X56843873Y-151787344D01*
X56811073Y-151784082D01*
X56737891Y-151767618D01*
X56631214Y-151739803D01*
X56497929Y-151702488D01*
X56344923Y-151657527D01*
X56222444Y-151620234D01*
X56041198Y-151564375D01*
X55901828Y-151522074D01*
X55798836Y-151492168D01*
X55726723Y-151473494D01*
X55679991Y-151464888D01*
X55653141Y-151465189D01*
X55640674Y-151473232D01*
X55637092Y-151487856D01*
X55636914Y-151496380D01*
X55661054Y-151613283D01*
X55731132Y-151718768D01*
X55750988Y-151738430D01*
X55778533Y-151760100D01*
X55817372Y-151782598D01*
X55872531Y-151807739D01*
X55949038Y-151837337D01*
X56051920Y-151873207D01*
X56186203Y-151917162D01*
X56356916Y-151971017D01*
X56569086Y-152036587D01*
X56622901Y-152053094D01*
X56738827Y-152090122D01*
X56814374Y-152118767D01*
X56857247Y-152142859D01*
X56875150Y-152166228D01*
X56877149Y-152179462D01*
X56859310Y-152226772D01*
X56837632Y-152243088D01*
X56802021Y-152240914D01*
X56727686Y-152225499D01*
X56623071Y-152198962D01*
X56496622Y-152163427D01*
X56377738Y-152127562D01*
X56241477Y-152086210D01*
X56122008Y-152051872D01*
X56027169Y-152026645D01*
X55964801Y-152012627D01*
X55942988Y-152011244D01*
X55937869Y-152042654D01*
X55943277Y-152102372D01*
X55946107Y-152118853D01*
X55973987Y-152203006D01*
X56027012Y-152274312D01*
X56111019Y-152336956D01*
X56231845Y-152395125D01*
X56395327Y-152453005D01*
X56424919Y-152462238D01*
X56545950Y-152499507D01*
X56657022Y-152533777D01*
X56745407Y-152561118D01*
X56796534Y-152577019D01*
X56859522Y-152609983D01*
X56877149Y-152650749D01*
X56868258Y-152689510D01*
X56837632Y-152709263D01*
X56779344Y-152710018D01*
X56687466Y-152691788D01*
X56556070Y-152654584D01*
X56545706Y-152651413D01*
X56416995Y-152612461D01*
X56328727Y-152588128D01*
X56274096Y-152577916D01*
X56246294Y-152581328D01*
X56238514Y-152597869D01*
X56243950Y-152627041D01*
X56244621Y-152629443D01*
X56282573Y-152740662D01*
X56327428Y-152817519D01*
X56388578Y-152875198D01*
X56402888Y-152885292D01*
X56442435Y-152909979D01*
X56482275Y-152926849D01*
X56532621Y-152937380D01*
X56603686Y-152943047D01*
X56705684Y-152945326D01*
X56820895Y-152945703D01*
X57150000Y-152945703D01*
X57148912Y-152344189D01*
X57147410Y-152119070D01*
X57142830Y-151937736D01*
X57133713Y-151794387D01*
X57118595Y-151683226D01*
X57096016Y-151598453D01*
X57064515Y-151534270D01*
X57022630Y-151484878D01*
X56968900Y-151444480D01*
X56914414Y-151413704D01*
X56877022Y-151398834D01*
X56800428Y-151371775D01*
X56691604Y-151334775D01*
X56557524Y-151290083D01*
X56405161Y-151239948D01*
X56241487Y-151186619D01*
X56073474Y-151132345D01*
X55908097Y-151079375D01*
X55752326Y-151029957D01*
X55613137Y-150986341D01*
X55497500Y-150950776D01*
X55412389Y-150925510D01*
X55364776Y-150912793D01*
X55358020Y-150911718D01*
X55340558Y-150931622D01*
X55189577Y-150931622D01*
X55178028Y-150850529D01*
X54533106Y-150645635D01*
X54363646Y-150591860D01*
X54210394Y-150543352D01*
X54079486Y-150502041D01*
X53977057Y-150469860D01*
X53909244Y-150448741D01*
X53882181Y-150440617D01*
X53881983Y-150440585D01*
X53877349Y-150461792D01*
X53875782Y-150503673D01*
X53731856Y-150503673D01*
X53726586Y-150412738D01*
X53732720Y-150334844D01*
X53750815Y-150285497D01*
X53762258Y-150276497D01*
X53794813Y-150279929D01*
G36*
X96703042Y-149414281D02*
G01*
X96753072Y-149422629D01*
X96777019Y-149447640D01*
X96779984Y-149498391D01*
X96767064Y-149583961D01*
X96754822Y-149650305D01*
X96704220Y-149832418D01*
X96627575Y-149972469D01*
X96524995Y-150070352D01*
X96396583Y-150125960D01*
X96273442Y-150139938D01*
X96167642Y-150129983D01*
X96070178Y-150096295D01*
X95969739Y-150033145D01*
X95855013Y-149934802D01*
X95839391Y-149920022D01*
X95736696Y-149828950D01*
X95655676Y-149774710D01*
X95588990Y-149753892D01*
X95529300Y-149763089D01*
X95515138Y-149769415D01*
X95465494Y-149818096D01*
X95425455Y-149902488D01*
X95400390Y-150008875D01*
X95394782Y-150077041D01*
X95392875Y-150157656D01*
X95063622Y-150157656D01*
X95076344Y-149999175D01*
X95108038Y-149818749D01*
X95169791Y-149665974D01*
X95258006Y-149545605D01*
X95369085Y-149462396D01*
X95499432Y-149421103D01*
X95515053Y-149419298D01*
X95619085Y-149417632D01*
X95713028Y-149437519D01*
X95807662Y-149483806D01*
X95913766Y-149561340D01*
X96002454Y-149638450D01*
X96108808Y-149729779D01*
X96190459Y-149785459D01*
X96254491Y-149807929D01*
X96307988Y-149799629D01*
X96358033Y-149762995D01*
X96359627Y-149761412D01*
X96388338Y-149728093D01*
X96408633Y-149688215D01*
X96425000Y-149628648D01*
X96441929Y-149536265D01*
X96446769Y-149506533D01*
X96461725Y-149413516D01*
X96621831Y-149413516D01*
X96703042Y-149414281D01*
G37*
X96703042Y-149414281D02*
X96753072Y-149422629D01*
X96777019Y-149447640D01*
X96779984Y-149498391D01*
X96767064Y-149583961D01*
X96754822Y-149650305D01*
X96704220Y-149832418D01*
X96627575Y-149972469D01*
X96524995Y-150070352D01*
X96396583Y-150125960D01*
X96273442Y-150139938D01*
X96167642Y-150129983D01*
X96070178Y-150096295D01*
X95969739Y-150033145D01*
X95855013Y-149934802D01*
X95839391Y-149920022D01*
X95736696Y-149828950D01*
X95655676Y-149774710D01*
X95588990Y-149753892D01*
X95529300Y-149763089D01*
X95515138Y-149769415D01*
X95465494Y-149818096D01*
X95425455Y-149902488D01*
X95400390Y-150008875D01*
X95394782Y-150077041D01*
X95392875Y-150157656D01*
X95063622Y-150157656D01*
X95076344Y-149999175D01*
X95108038Y-149818749D01*
X95169791Y-149665974D01*
X95258006Y-149545605D01*
X95369085Y-149462396D01*
X95499432Y-149421103D01*
X95515053Y-149419298D01*
X95619085Y-149417632D01*
X95713028Y-149437519D01*
X95807662Y-149483806D01*
X95913766Y-149561340D01*
X96002454Y-149638450D01*
X96108808Y-149729779D01*
X96190459Y-149785459D01*
X96254491Y-149807929D01*
X96307988Y-149799629D01*
X96358033Y-149762995D01*
X96359627Y-149761412D01*
X96388338Y-149728093D01*
X96408633Y-149688215D01*
X96425000Y-149628648D01*
X96441929Y-149536265D01*
X96446769Y-149506533D01*
X96461725Y-149413516D01*
X96621831Y-149413516D01*
X96703042Y-149414281D01*
G36*
X83656005Y-149887099D02*
G01*
X83696863Y-149913567D01*
X83737227Y-149950752D01*
X83755241Y-149990629D01*
X83756823Y-150051957D01*
X83753584Y-150093401D01*
X83742541Y-150167539D01*
X83721021Y-150274733D01*
X83692181Y-150400338D01*
X83660841Y-150523525D01*
X83626804Y-150648844D01*
X83601439Y-150733923D01*
X83580951Y-150786539D01*
X83561544Y-150814469D01*
X83539423Y-150825490D01*
X83512547Y-150827383D01*
X83486190Y-150825764D01*
X83465798Y-150816029D01*
X83448345Y-150790862D01*
X83430803Y-150742944D01*
X83410144Y-150664958D01*
X83383341Y-150549587D01*
X83366313Y-150473916D01*
X83337946Y-150343455D01*
X83314152Y-150226345D01*
X83296922Y-150132981D01*
X83288245Y-150073759D01*
X83287599Y-150062730D01*
X83304949Y-150008752D01*
X83347268Y-149946919D01*
X83360694Y-149932506D01*
X83451196Y-149873981D01*
X83554095Y-149858594D01*
X83656005Y-149887099D01*
G37*
X83656005Y-149887099D02*
X83696863Y-149913567D01*
X83737227Y-149950752D01*
X83755241Y-149990629D01*
X83756823Y-150051957D01*
X83753584Y-150093401D01*
X83742541Y-150167539D01*
X83721021Y-150274733D01*
X83692181Y-150400338D01*
X83660841Y-150523525D01*
X83626804Y-150648844D01*
X83601439Y-150733923D01*
X83580951Y-150786539D01*
X83561544Y-150814469D01*
X83539423Y-150825490D01*
X83512547Y-150827383D01*
X83486190Y-150825764D01*
X83465798Y-150816029D01*
X83448345Y-150790862D01*
X83430803Y-150742944D01*
X83410144Y-150664958D01*
X83383341Y-150549587D01*
X83366313Y-150473916D01*
X83337946Y-150343455D01*
X83314152Y-150226345D01*
X83296922Y-150132981D01*
X83288245Y-150073759D01*
X83287599Y-150062730D01*
X83304949Y-150008752D01*
X83347268Y-149946919D01*
X83360694Y-149932506D01*
X83451196Y-149873981D01*
X83554095Y-149858594D01*
X83656005Y-149887099D01*
G36*
X87068136Y-150374697D02*
G01*
X87118568Y-150517804D01*
X87162724Y-150644915D01*
X87198095Y-150748652D01*
X87222169Y-150821637D01*
X87232436Y-150856495D01*
X87232629Y-150858056D01*
X87212030Y-150876705D01*
X87162998Y-150903694D01*
X87103739Y-150930450D01*
X87052457Y-150948396D01*
X87034439Y-150951406D01*
X87015952Y-150930726D01*
X86982477Y-150875671D01*
X86940217Y-150796721D01*
X86925453Y-150767315D01*
X86810209Y-150583436D01*
X86663985Y-150430366D01*
X86494436Y-150315940D01*
X86474577Y-150305994D01*
X86405126Y-150277361D01*
X86323962Y-150254596D01*
X86225033Y-150237112D01*
X86102287Y-150224321D01*
X85949671Y-150215638D01*
X85761134Y-150210476D01*
X85530622Y-150208246D01*
X85464799Y-150208077D01*
X84900493Y-150207266D01*
X84900493Y-151521914D01*
X85227524Y-151521914D01*
X85367906Y-151520879D01*
X85469680Y-151516897D01*
X85543819Y-151508656D01*
X85601298Y-151494842D01*
X85653091Y-151474142D01*
X85661957Y-151469922D01*
X85769376Y-151393221D01*
X85846055Y-151280896D01*
X85893307Y-151130659D01*
X85905918Y-151044424D01*
X85923264Y-150876992D01*
X86165532Y-150876992D01*
X86165532Y-152464492D01*
X85924764Y-152464492D01*
X85908976Y-152277716D01*
X85890431Y-152136774D01*
X85859089Y-152031870D01*
X85809982Y-151950053D01*
X85764812Y-151901838D01*
X85712997Y-151860636D01*
X85653973Y-151831240D01*
X85578623Y-151811814D01*
X85477831Y-151800518D01*
X85342479Y-151795514D01*
X85233741Y-151794766D01*
X84900493Y-151794766D01*
X84900858Y-152458291D01*
X84901732Y-152679934D01*
X84904198Y-152856026D01*
X84908435Y-152990602D01*
X84914618Y-153087700D01*
X84922924Y-153151357D01*
X84932578Y-153183828D01*
X84963932Y-153245840D01*
X85489550Y-153252532D01*
X85723507Y-153253431D01*
X85915888Y-153248894D01*
X86074532Y-153237900D01*
X86207275Y-153219429D01*
X86321954Y-153192460D01*
X86426407Y-153155972D01*
X86506004Y-153120159D01*
X86662291Y-153021907D01*
X86815751Y-152885629D01*
X86956509Y-152722402D01*
X87074689Y-152543305D01*
X87141924Y-152406775D01*
X87179207Y-152317545D01*
X87292486Y-152356143D01*
X87358623Y-152384086D01*
X87399553Y-152411787D01*
X87405999Y-152423416D01*
X87398041Y-152454105D01*
X87375597Y-152524494D01*
X87341023Y-152627619D01*
X87296673Y-152756514D01*
X87244903Y-152904216D01*
X87213888Y-152991592D01*
X87021545Y-153531094D01*
X83957914Y-153531094D01*
X83957914Y-153434975D01*
X83961998Y-153371338D01*
X83982107Y-153340155D01*
X84030028Y-153324453D01*
X84035429Y-153323354D01*
X84118796Y-153312058D01*
X84197787Y-153307851D01*
X84289294Y-153289825D01*
X84355236Y-153233888D01*
X84397819Y-153137258D01*
X84416194Y-153032273D01*
X84419242Y-152976820D01*
X84421802Y-152877127D01*
X84423844Y-152738562D01*
X84425336Y-152566492D01*
X84426246Y-152366285D01*
X84426543Y-152143307D01*
X84426195Y-151902927D01*
X84425171Y-151650511D01*
X84424741Y-151575558D01*
X84416801Y-150277347D01*
X84347205Y-150217502D01*
X84281528Y-150175840D01*
X84200687Y-150159027D01*
X84156997Y-150157656D01*
X84057869Y-150154441D01*
X83998321Y-150140203D01*
X83968498Y-150108059D01*
X83958542Y-150051122D01*
X83957914Y-150018577D01*
X83957914Y-149909609D01*
X86903147Y-149909609D01*
X87068136Y-150374697D01*
G37*
X87068136Y-150374697D02*
X87118568Y-150517804D01*
X87162724Y-150644915D01*
X87198095Y-150748652D01*
X87222169Y-150821637D01*
X87232436Y-150856495D01*
X87232629Y-150858056D01*
X87212030Y-150876705D01*
X87162998Y-150903694D01*
X87103739Y-150930450D01*
X87052457Y-150948396D01*
X87034439Y-150951406D01*
X87015952Y-150930726D01*
X86982477Y-150875671D01*
X86940217Y-150796721D01*
X86925453Y-150767315D01*
X86810209Y-150583436D01*
X86663985Y-150430366D01*
X86494436Y-150315940D01*
X86474577Y-150305994D01*
X86405126Y-150277361D01*
X86323962Y-150254596D01*
X86225033Y-150237112D01*
X86102287Y-150224321D01*
X85949671Y-150215638D01*
X85761134Y-150210476D01*
X85530622Y-150208246D01*
X85464799Y-150208077D01*
X84900493Y-150207266D01*
X84900493Y-151521914D01*
X85227524Y-151521914D01*
X85367906Y-151520879D01*
X85469680Y-151516897D01*
X85543819Y-151508656D01*
X85601298Y-151494842D01*
X85653091Y-151474142D01*
X85661957Y-151469922D01*
X85769376Y-151393221D01*
X85846055Y-151280896D01*
X85893307Y-151130659D01*
X85905918Y-151044424D01*
X85923264Y-150876992D01*
X86165532Y-150876992D01*
X86165532Y-152464492D01*
X85924764Y-152464492D01*
X85908976Y-152277716D01*
X85890431Y-152136774D01*
X85859089Y-152031870D01*
X85809982Y-151950053D01*
X85764812Y-151901838D01*
X85712997Y-151860636D01*
X85653973Y-151831240D01*
X85578623Y-151811814D01*
X85477831Y-151800518D01*
X85342479Y-151795514D01*
X85233741Y-151794766D01*
X84900493Y-151794766D01*
X84900858Y-152458291D01*
X84901732Y-152679934D01*
X84904198Y-152856026D01*
X84908435Y-152990602D01*
X84914618Y-153087700D01*
X84922924Y-153151357D01*
X84932578Y-153183828D01*
X84963932Y-153245840D01*
X85489550Y-153252532D01*
X85723507Y-153253431D01*
X85915888Y-153248894D01*
X86074532Y-153237900D01*
X86207275Y-153219429D01*
X86321954Y-153192460D01*
X86426407Y-153155972D01*
X86506004Y-153120159D01*
X86662291Y-153021907D01*
X86815751Y-152885629D01*
X86956509Y-152722402D01*
X87074689Y-152543305D01*
X87141924Y-152406775D01*
X87179207Y-152317545D01*
X87292486Y-152356143D01*
X87358623Y-152384086D01*
X87399553Y-152411787D01*
X87405999Y-152423416D01*
X87398041Y-152454105D01*
X87375597Y-152524494D01*
X87341023Y-152627619D01*
X87296673Y-152756514D01*
X87244903Y-152904216D01*
X87213888Y-152991592D01*
X87021545Y-153531094D01*
X83957914Y-153531094D01*
X83957914Y-153434975D01*
X83961998Y-153371338D01*
X83982107Y-153340155D01*
X84030028Y-153324453D01*
X84035429Y-153323354D01*
X84118796Y-153312058D01*
X84197787Y-153307851D01*
X84289294Y-153289825D01*
X84355236Y-153233888D01*
X84397819Y-153137258D01*
X84416194Y-153032273D01*
X84419242Y-152976820D01*
X84421802Y-152877127D01*
X84423844Y-152738562D01*
X84425336Y-152566492D01*
X84426246Y-152366285D01*
X84426543Y-152143307D01*
X84426195Y-151902927D01*
X84425171Y-151650511D01*
X84424741Y-151575558D01*
X84416801Y-150277347D01*
X84347205Y-150217502D01*
X84281528Y-150175840D01*
X84200687Y-150159027D01*
X84156997Y-150157656D01*
X84057869Y-150154441D01*
X83998321Y-150140203D01*
X83968498Y-150108059D01*
X83958542Y-150051122D01*
X83957914Y-150018577D01*
X83957914Y-149909609D01*
X86903147Y-149909609D01*
X87068136Y-150374697D01*
G36*
X96287515Y-150576245D02*
G01*
X96505123Y-150627354D01*
X96690513Y-150716018D01*
X96843879Y-150842433D01*
X96965412Y-151006795D01*
X97055306Y-151209298D01*
X97106059Y-151406643D01*
X97110173Y-151452896D01*
X97114049Y-151544172D01*
X97117623Y-151675885D01*
X97120833Y-151843450D01*
X97123614Y-152042280D01*
X97125905Y-152267789D01*
X97127641Y-152515393D01*
X97128761Y-152780504D01*
X97129199Y-153058536D01*
X97129204Y-153087995D01*
X97129204Y-154647305D01*
X96657914Y-154647305D01*
X96657914Y-153167256D01*
X96657418Y-152806996D01*
X96655944Y-152488358D01*
X96653510Y-152212558D01*
X96650139Y-151980812D01*
X96645849Y-151794333D01*
X96640661Y-151654337D01*
X96634596Y-151562039D01*
X96630771Y-151531336D01*
X96579414Y-151345518D01*
X96497024Y-151198124D01*
X96384083Y-151089586D01*
X96241076Y-151020339D01*
X96068485Y-150990818D01*
X96027960Y-150989704D01*
X95817598Y-151006815D01*
X95638875Y-151061342D01*
X95489274Y-151154720D01*
X95366279Y-151288384D01*
X95293657Y-151408660D01*
X95206840Y-151578793D01*
X95199559Y-152554943D01*
X95192278Y-153531094D01*
X94698344Y-153531094D01*
X94698344Y-150627149D01*
X94940190Y-150634248D01*
X95182036Y-150641348D01*
X95189194Y-150843141D01*
X95196352Y-151044935D01*
X95336144Y-150898378D01*
X95512341Y-150747681D01*
X95709946Y-150641202D01*
X95926016Y-150579939D01*
X96157608Y-150564887D01*
X96287515Y-150576245D01*
G37*
X96287515Y-150576245D02*
X96505123Y-150627354D01*
X96690513Y-150716018D01*
X96843879Y-150842433D01*
X96965412Y-151006795D01*
X97055306Y-151209298D01*
X97106059Y-151406643D01*
X97110173Y-151452896D01*
X97114049Y-151544172D01*
X97117623Y-151675885D01*
X97120833Y-151843450D01*
X97123614Y-152042280D01*
X97125905Y-152267789D01*
X97127641Y-152515393D01*
X97128761Y-152780504D01*
X97129199Y-153058536D01*
X97129204Y-153087995D01*
X97129204Y-154647305D01*
X96657914Y-154647305D01*
X96657914Y-153167256D01*
X96657418Y-152806996D01*
X96655944Y-152488358D01*
X96653510Y-152212558D01*
X96650139Y-151980812D01*
X96645849Y-151794333D01*
X96640661Y-151654337D01*
X96634596Y-151562039D01*
X96630771Y-151531336D01*
X96579414Y-151345518D01*
X96497024Y-151198124D01*
X96384083Y-151089586D01*
X96241076Y-151020339D01*
X96068485Y-150990818D01*
X96027960Y-150989704D01*
X95817598Y-151006815D01*
X95638875Y-151061342D01*
X95489274Y-151154720D01*
X95366279Y-151288384D01*
X95293657Y-151408660D01*
X95206840Y-151578793D01*
X95199559Y-152554943D01*
X95192278Y-153531094D01*
X94698344Y-153531094D01*
X94698344Y-150627149D01*
X94940190Y-150634248D01*
X95182036Y-150641348D01*
X95189194Y-150843141D01*
X95196352Y-151044935D01*
X95336144Y-150898378D01*
X95512341Y-150747681D01*
X95709946Y-150641202D01*
X95926016Y-150579939D01*
X96157608Y-150564887D01*
X96287515Y-150576245D01*
G36*
X91647506Y-151908742D02*
G01*
X91648337Y-152179978D01*
X91650701Y-152413315D01*
X91654535Y-152606443D01*
X91659779Y-152757050D01*
X91666369Y-152862822D01*
X91674244Y-152921448D01*
X91674746Y-152923379D01*
X91734985Y-153063224D01*
X91827402Y-153168916D01*
X91948120Y-153240376D01*
X92093260Y-153277522D01*
X92258946Y-153280277D01*
X92441298Y-153248561D01*
X92636441Y-153182295D01*
X92840495Y-153081399D01*
X93041908Y-152951354D01*
X93183812Y-152848965D01*
X93181600Y-152179238D01*
X93180442Y-151998130D01*
X93178309Y-151830204D01*
X93175379Y-151682796D01*
X93171827Y-151563245D01*
X93167831Y-151478886D01*
X93163720Y-151437719D01*
X93130694Y-151362276D01*
X93066084Y-151308776D01*
X92964360Y-151274212D01*
X92829957Y-151256302D01*
X92639555Y-151241902D01*
X92639555Y-151025820D01*
X92796864Y-151025820D01*
X92882914Y-151024580D01*
X93003008Y-151021197D01*
X93141653Y-151016178D01*
X93283354Y-151010030D01*
X93292207Y-151009608D01*
X93630242Y-150993396D01*
X93637193Y-152103222D01*
X93644145Y-153213048D01*
X93702703Y-153260450D01*
X93770415Y-153294787D01*
X93842230Y-153307851D01*
X93928467Y-153313038D01*
X94000712Y-153323354D01*
X94051219Y-153338449D01*
X94073167Y-153367524D01*
X94078205Y-153427470D01*
X94078227Y-153435754D01*
X94070849Y-153502626D01*
X94051910Y-153539959D01*
X94047221Y-153542412D01*
X94012934Y-153546666D01*
X93938164Y-153552131D01*
X93832007Y-153558263D01*
X93703559Y-153564519D01*
X93613139Y-153568365D01*
X93210063Y-153584557D01*
X93210063Y-153108298D01*
X93017827Y-153242307D01*
X92813226Y-153375587D01*
X92629523Y-153473495D01*
X92456967Y-153539668D01*
X92285805Y-153577743D01*
X92106286Y-153591357D01*
X92081450Y-153591520D01*
X91958228Y-153588639D01*
X91868867Y-153578521D01*
X91797843Y-153558670D01*
X91752787Y-153538681D01*
X91647368Y-153485986D01*
X91647368Y-154696914D01*
X91200883Y-154696914D01*
X91198411Y-153090810D01*
X91197729Y-152811534D01*
X91196594Y-152545847D01*
X91195054Y-152298083D01*
X91193161Y-152072576D01*
X91190964Y-151873660D01*
X91188513Y-151705670D01*
X91185858Y-151572940D01*
X91183049Y-151479804D01*
X91180135Y-151430596D01*
X91179217Y-151424931D01*
X91140753Y-151353047D01*
X91068588Y-151302231D01*
X90957681Y-151269936D01*
X90845582Y-151256302D01*
X90655180Y-151241902D01*
X90655180Y-151025820D01*
X90812489Y-151025820D01*
X90898465Y-151024580D01*
X91018521Y-151021197D01*
X91157194Y-151016177D01*
X91299026Y-151010028D01*
X91308582Y-151009572D01*
X91647368Y-150993324D01*
X91647506Y-151908742D01*
G37*
X91647506Y-151908742D02*
X91648337Y-152179978D01*
X91650701Y-152413315D01*
X91654535Y-152606443D01*
X91659779Y-152757050D01*
X91666369Y-152862822D01*
X91674244Y-152921448D01*
X91674746Y-152923379D01*
X91734985Y-153063224D01*
X91827402Y-153168916D01*
X91948120Y-153240376D01*
X92093260Y-153277522D01*
X92258946Y-153280277D01*
X92441298Y-153248561D01*
X92636441Y-153182295D01*
X92840495Y-153081399D01*
X93041908Y-152951354D01*
X93183812Y-152848965D01*
X93181600Y-152179238D01*
X93180442Y-151998130D01*
X93178309Y-151830204D01*
X93175379Y-151682796D01*
X93171827Y-151563245D01*
X93167831Y-151478886D01*
X93163720Y-151437719D01*
X93130694Y-151362276D01*
X93066084Y-151308776D01*
X92964360Y-151274212D01*
X92829957Y-151256302D01*
X92639555Y-151241902D01*
X92639555Y-151025820D01*
X92796864Y-151025820D01*
X92882914Y-151024580D01*
X93003008Y-151021197D01*
X93141653Y-151016178D01*
X93283354Y-151010030D01*
X93292207Y-151009608D01*
X93630242Y-150993396D01*
X93637193Y-152103222D01*
X93644145Y-153213048D01*
X93702703Y-153260450D01*
X93770415Y-153294787D01*
X93842230Y-153307851D01*
X93928467Y-153313038D01*
X94000712Y-153323354D01*
X94051219Y-153338449D01*
X94073167Y-153367524D01*
X94078205Y-153427470D01*
X94078227Y-153435754D01*
X94070849Y-153502626D01*
X94051910Y-153539959D01*
X94047221Y-153542412D01*
X94012934Y-153546666D01*
X93938164Y-153552131D01*
X93832007Y-153558263D01*
X93703559Y-153564519D01*
X93613139Y-153568365D01*
X93210063Y-153584557D01*
X93210063Y-153108298D01*
X93017827Y-153242307D01*
X92813226Y-153375587D01*
X92629523Y-153473495D01*
X92456967Y-153539668D01*
X92285805Y-153577743D01*
X92106286Y-153591357D01*
X92081450Y-153591520D01*
X91958228Y-153588639D01*
X91868867Y-153578521D01*
X91797843Y-153558670D01*
X91752787Y-153538681D01*
X91647368Y-153485986D01*
X91647368Y-154696914D01*
X91200883Y-154696914D01*
X91198411Y-153090810D01*
X91197729Y-152811534D01*
X91196594Y-152545847D01*
X91195054Y-152298083D01*
X91193161Y-152072576D01*
X91190964Y-151873660D01*
X91188513Y-151705670D01*
X91185858Y-151572940D01*
X91183049Y-151479804D01*
X91180135Y-151430596D01*
X91179217Y-151424931D01*
X91140753Y-151353047D01*
X91068588Y-151302231D01*
X90957681Y-151269936D01*
X90845582Y-151256302D01*
X90655180Y-151241902D01*
X90655180Y-151025820D01*
X90812489Y-151025820D01*
X90898465Y-151024580D01*
X91018521Y-151021197D01*
X91157194Y-151016177D01*
X91299026Y-151010028D01*
X91308582Y-151009572D01*
X91647368Y-150993324D01*
X91647506Y-151908742D01*
G36*
X89412129Y-150998709D02*
G01*
X89487211Y-151014442D01*
X89706639Y-151090576D01*
X89901012Y-151208118D01*
X90067550Y-151364151D01*
X90203477Y-151555757D01*
X90306015Y-151780020D01*
X90347657Y-151918149D01*
X90371452Y-152060720D01*
X90380893Y-152229346D01*
X90376702Y-152407705D01*
X90359600Y-152579469D01*
X90330307Y-152728314D01*
X90308916Y-152795391D01*
X90196443Y-153025093D01*
X90051009Y-153217995D01*
X89874046Y-153373050D01*
X89666984Y-153489212D01*
X89431255Y-153565432D01*
X89211948Y-153597840D01*
X88968243Y-153597078D01*
X88747518Y-153556024D01*
X88552931Y-153475602D01*
X88387640Y-153356737D01*
X88387395Y-153356512D01*
X88273930Y-153251924D01*
X88273930Y-154696914D01*
X87827446Y-154696914D01*
X87827506Y-153648916D01*
X87828374Y-153281398D01*
X87831381Y-152959627D01*
X87837198Y-152679761D01*
X87846498Y-152437959D01*
X87856129Y-152289338D01*
X88350609Y-152289338D01*
X88361958Y-152507339D01*
X88397633Y-152716769D01*
X88457409Y-152907527D01*
X88541056Y-153069510D01*
X88589009Y-153133361D01*
X88714728Y-153243565D01*
X88868279Y-153318842D01*
X89039956Y-153356697D01*
X89220051Y-153354637D01*
X89346381Y-153327973D01*
X89481934Y-153262433D01*
X89601112Y-153155809D01*
X89701980Y-153014480D01*
X89782605Y-152844823D01*
X89841050Y-152653215D01*
X89875382Y-152446035D01*
X89883665Y-152229660D01*
X89863965Y-152010469D01*
X89814347Y-151794838D01*
X89812894Y-151790151D01*
X89734339Y-151607392D01*
X89627176Y-151459232D01*
X89497463Y-151346904D01*
X89351255Y-151271641D01*
X89194610Y-151234674D01*
X89033583Y-151237239D01*
X88874233Y-151280566D01*
X88722614Y-151365890D01*
X88584785Y-151494442D01*
X88553029Y-151533692D01*
X88464797Y-151684944D01*
X88401802Y-151868038D01*
X88363815Y-152072870D01*
X88350609Y-152289338D01*
X87856129Y-152289338D01*
X87859951Y-152230380D01*
X87878230Y-152053182D01*
X87902006Y-151902525D01*
X87931951Y-151774566D01*
X87968736Y-151665466D01*
X88013033Y-151571382D01*
X88065514Y-151488473D01*
X88126851Y-151412899D01*
X88197714Y-151340818D01*
X88237445Y-151304426D01*
X88435640Y-151160260D01*
X88658652Y-151056110D01*
X88900035Y-150993471D01*
X89153342Y-150973839D01*
X89412129Y-150998709D01*
G37*
X89412129Y-150998709D02*
X89487211Y-151014442D01*
X89706639Y-151090576D01*
X89901012Y-151208118D01*
X90067550Y-151364151D01*
X90203477Y-151555757D01*
X90306015Y-151780020D01*
X90347657Y-151918149D01*
X90371452Y-152060720D01*
X90380893Y-152229346D01*
X90376702Y-152407705D01*
X90359600Y-152579469D01*
X90330307Y-152728314D01*
X90308916Y-152795391D01*
X90196443Y-153025093D01*
X90051009Y-153217995D01*
X89874046Y-153373050D01*
X89666984Y-153489212D01*
X89431255Y-153565432D01*
X89211948Y-153597840D01*
X88968243Y-153597078D01*
X88747518Y-153556024D01*
X88552931Y-153475602D01*
X88387640Y-153356737D01*
X88387395Y-153356512D01*
X88273930Y-153251924D01*
X88273930Y-154696914D01*
X87827446Y-154696914D01*
X87827506Y-153648916D01*
X87828374Y-153281398D01*
X87831381Y-152959627D01*
X87837198Y-152679761D01*
X87846498Y-152437959D01*
X87856129Y-152289338D01*
X88350609Y-152289338D01*
X88361958Y-152507339D01*
X88397633Y-152716769D01*
X88457409Y-152907527D01*
X88541056Y-153069510D01*
X88589009Y-153133361D01*
X88714728Y-153243565D01*
X88868279Y-153318842D01*
X89039956Y-153356697D01*
X89220051Y-153354637D01*
X89346381Y-153327973D01*
X89481934Y-153262433D01*
X89601112Y-153155809D01*
X89701980Y-153014480D01*
X89782605Y-152844823D01*
X89841050Y-152653215D01*
X89875382Y-152446035D01*
X89883665Y-152229660D01*
X89863965Y-152010469D01*
X89814347Y-151794838D01*
X89812894Y-151790151D01*
X89734339Y-151607392D01*
X89627176Y-151459232D01*
X89497463Y-151346904D01*
X89351255Y-151271641D01*
X89194610Y-151234674D01*
X89033583Y-151237239D01*
X88874233Y-151280566D01*
X88722614Y-151365890D01*
X88584785Y-151494442D01*
X88553029Y-151533692D01*
X88464797Y-151684944D01*
X88401802Y-151868038D01*
X88363815Y-152072870D01*
X88350609Y-152289338D01*
X87856129Y-152289338D01*
X87859951Y-152230380D01*
X87878230Y-152053182D01*
X87902006Y-151902525D01*
X87931951Y-151774566D01*
X87968736Y-151665466D01*
X88013033Y-151571382D01*
X88065514Y-151488473D01*
X88126851Y-151412899D01*
X88197714Y-151340818D01*
X88237445Y-151304426D01*
X88435640Y-151160260D01*
X88658652Y-151056110D01*
X88900035Y-150993471D01*
X89153342Y-150973839D01*
X89412129Y-150998709D01*
G36*
X99313768Y-150997028D02*
G01*
X99533780Y-151053796D01*
X99731866Y-151144943D01*
X99845317Y-151222887D01*
X99960194Y-151334417D01*
X100038459Y-151451971D01*
X100077960Y-151569049D01*
X100076544Y-151679152D01*
X100032056Y-151775781D01*
X100029552Y-151779018D01*
X99981735Y-151824086D01*
X99920277Y-151842350D01*
X99873840Y-151844375D01*
X99789153Y-151835887D01*
X99720771Y-151805387D01*
X99658992Y-151745322D01*
X99594116Y-151648137D01*
X99571797Y-151609182D01*
X99461797Y-151446547D01*
X99337960Y-151330265D01*
X99196559Y-151258120D01*
X99033865Y-151227897D01*
X98931246Y-151228509D01*
X98767596Y-151258278D01*
X98626899Y-151327469D01*
X98503179Y-151439746D01*
X98430337Y-151535628D01*
X98337190Y-151694840D01*
X98276190Y-151853689D01*
X98242933Y-152027648D01*
X98233012Y-152228848D01*
X98234265Y-152346757D01*
X98239753Y-152429137D01*
X98252070Y-152490038D01*
X98273812Y-152543513D01*
X98299778Y-152590463D01*
X98358263Y-152669723D01*
X98440964Y-152746247D01*
X98552658Y-152822934D01*
X98698119Y-152902683D01*
X98882123Y-152988392D01*
X99109445Y-153082961D01*
X99114113Y-153084822D01*
X99341541Y-153181120D01*
X99524155Y-153272407D01*
X99665965Y-153362473D01*
X99770981Y-153455107D01*
X99843211Y-153554099D01*
X99886664Y-153663238D01*
X99905350Y-153786313D01*
X99906784Y-153834021D01*
X99883596Y-154021015D01*
X99815175Y-154196816D01*
X99705443Y-154356950D01*
X99558319Y-154496944D01*
X99377722Y-154612323D01*
X99167574Y-154698614D01*
X99142572Y-154706211D01*
X99016050Y-154733084D01*
X98860107Y-154751129D01*
X98694327Y-154759239D01*
X98538295Y-154756307D01*
X98438314Y-154746018D01*
X98272858Y-154707543D01*
X98132723Y-154650255D01*
X98023808Y-154578163D01*
X97952014Y-154495278D01*
X97923239Y-154405609D01*
X97922954Y-154395724D01*
X97938563Y-154298835D01*
X97989255Y-154232834D01*
X98046178Y-154201151D01*
X98145125Y-154181084D01*
X98245638Y-154204742D01*
X98352942Y-154273767D01*
X98395087Y-154310831D01*
X98496978Y-154390763D01*
X98597204Y-154442375D01*
X98618995Y-154449274D01*
X98757551Y-154466799D01*
X98906388Y-154452589D01*
X99053807Y-154411089D01*
X99188107Y-154346746D01*
X99297591Y-154264006D01*
X99370558Y-154167314D01*
X99372738Y-154162827D01*
X99407180Y-154046951D01*
X99412058Y-153921146D01*
X99387157Y-153807413D01*
X99376469Y-153783862D01*
X99343569Y-153732500D01*
X99296883Y-153684989D01*
X99229405Y-153636761D01*
X99134127Y-153583249D01*
X99004042Y-153519884D01*
X98895610Y-153470400D01*
X98652505Y-153359729D01*
X98450804Y-153263757D01*
X98285696Y-153179146D01*
X98152370Y-153102557D01*
X98046018Y-153030650D01*
X97961828Y-152960087D01*
X97894989Y-152887529D01*
X97840693Y-152809637D01*
X97794129Y-152723072D01*
X97782128Y-152697496D01*
X97722044Y-152509078D01*
X97703046Y-152305403D01*
X97722182Y-152094059D01*
X97776504Y-151882637D01*
X97863062Y-151678727D01*
X97978905Y-151489919D01*
X98121086Y-151323803D01*
X98286653Y-151187970D01*
X98392967Y-151125683D01*
X98611430Y-151038965D01*
X98843668Y-150989015D01*
X99080756Y-150975235D01*
X99313768Y-150997028D01*
G37*
X99313768Y-150997028D02*
X99533780Y-151053796D01*
X99731866Y-151144943D01*
X99845317Y-151222887D01*
X99960194Y-151334417D01*
X100038459Y-151451971D01*
X100077960Y-151569049D01*
X100076544Y-151679152D01*
X100032056Y-151775781D01*
X100029552Y-151779018D01*
X99981735Y-151824086D01*
X99920277Y-151842350D01*
X99873840Y-151844375D01*
X99789153Y-151835887D01*
X99720771Y-151805387D01*
X99658992Y-151745322D01*
X99594116Y-151648137D01*
X99571797Y-151609182D01*
X99461797Y-151446547D01*
X99337960Y-151330265D01*
X99196559Y-151258120D01*
X99033865Y-151227897D01*
X98931246Y-151228509D01*
X98767596Y-151258278D01*
X98626899Y-151327469D01*
X98503179Y-151439746D01*
X98430337Y-151535628D01*
X98337190Y-151694840D01*
X98276190Y-151853689D01*
X98242933Y-152027648D01*
X98233012Y-152228848D01*
X98234265Y-152346757D01*
X98239753Y-152429137D01*
X98252070Y-152490038D01*
X98273812Y-152543513D01*
X98299778Y-152590463D01*
X98358263Y-152669723D01*
X98440964Y-152746247D01*
X98552658Y-152822934D01*
X98698119Y-152902683D01*
X98882123Y-152988392D01*
X99109445Y-153082961D01*
X99114113Y-153084822D01*
X99341541Y-153181120D01*
X99524155Y-153272407D01*
X99665965Y-153362473D01*
X99770981Y-153455107D01*
X99843211Y-153554099D01*
X99886664Y-153663238D01*
X99905350Y-153786313D01*
X99906784Y-153834021D01*
X99883596Y-154021015D01*
X99815175Y-154196816D01*
X99705443Y-154356950D01*
X99558319Y-154496944D01*
X99377722Y-154612323D01*
X99167574Y-154698614D01*
X99142572Y-154706211D01*
X99016050Y-154733084D01*
X98860107Y-154751129D01*
X98694327Y-154759239D01*
X98538295Y-154756307D01*
X98438314Y-154746018D01*
X98272858Y-154707543D01*
X98132723Y-154650255D01*
X98023808Y-154578163D01*
X97952014Y-154495278D01*
X97923239Y-154405609D01*
X97922954Y-154395724D01*
X97938563Y-154298835D01*
X97989255Y-154232834D01*
X98046178Y-154201151D01*
X98145125Y-154181084D01*
X98245638Y-154204742D01*
X98352942Y-154273767D01*
X98395087Y-154310831D01*
X98496978Y-154390763D01*
X98597204Y-154442375D01*
X98618995Y-154449274D01*
X98757551Y-154466799D01*
X98906388Y-154452589D01*
X99053807Y-154411089D01*
X99188107Y-154346746D01*
X99297591Y-154264006D01*
X99370558Y-154167314D01*
X99372738Y-154162827D01*
X99407180Y-154046951D01*
X99412058Y-153921146D01*
X99387157Y-153807413D01*
X99376469Y-153783862D01*
X99343569Y-153732500D01*
X99296883Y-153684989D01*
X99229405Y-153636761D01*
X99134127Y-153583249D01*
X99004042Y-153519884D01*
X98895610Y-153470400D01*
X98652505Y-153359729D01*
X98450804Y-153263757D01*
X98285696Y-153179146D01*
X98152370Y-153102557D01*
X98046018Y-153030650D01*
X97961828Y-152960087D01*
X97894989Y-152887529D01*
X97840693Y-152809637D01*
X97794129Y-152723072D01*
X97782128Y-152697496D01*
X97722044Y-152509078D01*
X97703046Y-152305403D01*
X97722182Y-152094059D01*
X97776504Y-151882637D01*
X97863062Y-151678727D01*
X97978905Y-151489919D01*
X98121086Y-151323803D01*
X98286653Y-151187970D01*
X98392967Y-151125683D01*
X98611430Y-151038965D01*
X98843668Y-150989015D01*
X99080756Y-150975235D01*
X99313768Y-150997028D01*
G36*
X102015727Y-155118594D02*
G01*
X81651079Y-155118594D01*
X81651079Y-154895351D01*
X102015727Y-154895351D01*
X102015727Y-155118594D01*
G37*
X102015727Y-155118594D02*
X81651079Y-155118594D01*
X81651079Y-154895351D01*
X102015727Y-154895351D01*
X102015727Y-155118594D01*
G36*
X92930785Y-155865738D02*
G01*
X92955488Y-155884284D01*
X92961822Y-155932676D01*
X92962016Y-155961953D01*
X92959388Y-156025479D01*
X92943160Y-156053711D01*
X92900817Y-156060950D01*
X92875200Y-156061172D01*
X92819614Y-156058168D01*
X92794912Y-156039622D01*
X92788577Y-155991230D01*
X92788383Y-155961953D01*
X92791011Y-155898427D01*
X92807240Y-155870195D01*
X92849582Y-155862956D01*
X92875200Y-155862734D01*
X92930785Y-155865738D01*
G37*
X92930785Y-155865738D02*
X92955488Y-155884284D01*
X92961822Y-155932676D01*
X92962016Y-155961953D01*
X92959388Y-156025479D01*
X92943160Y-156053711D01*
X92900817Y-156060950D01*
X92875200Y-156061172D01*
X92819614Y-156058168D01*
X92794912Y-156039622D01*
X92788577Y-155991230D01*
X92788383Y-155961953D01*
X92791011Y-155898427D01*
X92807240Y-155870195D01*
X92849582Y-155862956D01*
X92875200Y-155862734D01*
X92930785Y-155865738D01*
G36*
X94276664Y-156557266D02*
G01*
X94400688Y-156557266D01*
X94474295Y-156559276D01*
X94511015Y-156569537D01*
X94523536Y-156594390D01*
X94524711Y-156619277D01*
X94524711Y-156681289D01*
X93854985Y-156681289D01*
X93854985Y-156619277D01*
X93859006Y-156582474D01*
X93879527Y-156564114D01*
X93929235Y-156557853D01*
X93979008Y-156557266D01*
X94103032Y-156557266D01*
X94103032Y-156109110D01*
X94102717Y-155949868D01*
X94101345Y-155833781D01*
X94098273Y-155754396D01*
X94092856Y-155705259D01*
X94084451Y-155679918D01*
X94072416Y-155671919D01*
X94059623Y-155673705D01*
X94006586Y-155686487D01*
X93933649Y-155701059D01*
X93923198Y-155702942D01*
X93862714Y-155711175D01*
X93836527Y-155700780D01*
X93830299Y-155662931D01*
X93830180Y-155645677D01*
X93833600Y-155603429D01*
X93851673Y-155577754D01*
X93896117Y-155560149D01*
X93970743Y-155543698D01*
X94065311Y-155527664D01*
X94153939Y-155517436D01*
X94193985Y-155515469D01*
X94276664Y-155515469D01*
X94276664Y-156557266D01*
G37*
X94276664Y-156557266D02*
X94400688Y-156557266D01*
X94474295Y-156559276D01*
X94511015Y-156569537D01*
X94523536Y-156594390D01*
X94524711Y-156619277D01*
X94524711Y-156681289D01*
X93854985Y-156681289D01*
X93854985Y-156619277D01*
X93859006Y-156582474D01*
X93879527Y-156564114D01*
X93929235Y-156557853D01*
X93979008Y-156557266D01*
X94103032Y-156557266D01*
X94103032Y-156109110D01*
X94102717Y-155949868D01*
X94101345Y-155833781D01*
X94098273Y-155754396D01*
X94092856Y-155705259D01*
X94084451Y-155679918D01*
X94072416Y-155671919D01*
X94059623Y-155673705D01*
X94006586Y-155686487D01*
X93933649Y-155701059D01*
X93923198Y-155702942D01*
X93862714Y-155711175D01*
X93836527Y-155700780D01*
X93830299Y-155662931D01*
X93830180Y-155645677D01*
X93833600Y-155603429D01*
X93851673Y-155577754D01*
X93896117Y-155560149D01*
X93970743Y-155543698D01*
X94065311Y-155527664D01*
X94153939Y-155517436D01*
X94193985Y-155515469D01*
X94276664Y-155515469D01*
X94276664Y-156557266D01*
G36*
X92930785Y-156485855D02*
G01*
X92955488Y-156504402D01*
X92961822Y-156552793D01*
X92962016Y-156582070D01*
X92959388Y-156645596D01*
X92943160Y-156673828D01*
X92900817Y-156681067D01*
X92875200Y-156681289D01*
X92819614Y-156678285D01*
X92794912Y-156659739D01*
X92788577Y-156611347D01*
X92788383Y-156582070D01*
X92791011Y-156518544D01*
X92807240Y-156490313D01*
X92849582Y-156483073D01*
X92875200Y-156482851D01*
X92930785Y-156485855D01*
G37*
X92930785Y-156485855D02*
X92955488Y-156504402D01*
X92961822Y-156552793D01*
X92962016Y-156582070D01*
X92959388Y-156645596D01*
X92943160Y-156673828D01*
X92900817Y-156681067D01*
X92875200Y-156681289D01*
X92819614Y-156678285D01*
X92794912Y-156659739D01*
X92788577Y-156611347D01*
X92788383Y-156582070D01*
X92791011Y-156518544D01*
X92807240Y-156490313D01*
X92849582Y-156483073D01*
X92875200Y-156482851D01*
X92930785Y-156485855D01*
G36*
X91373598Y-156000081D02*
G01*
X91427799Y-156144031D01*
X91476192Y-156270296D01*
X91516140Y-156372183D01*
X91545006Y-156442997D01*
X91560154Y-156476043D01*
X91561654Y-156477571D01*
X91572083Y-156453257D01*
X91597137Y-156389457D01*
X91634129Y-156293172D01*
X91680374Y-156171409D01*
X91733185Y-156031170D01*
X91747505Y-155992959D01*
X91926279Y-155515469D01*
X92010065Y-155515469D01*
X92066153Y-155517080D01*
X92093043Y-155521023D01*
X92093457Y-155521670D01*
X92084836Y-155545539D01*
X92060804Y-155609373D01*
X92023773Y-155706837D01*
X91976155Y-155831598D01*
X91920360Y-155977322D01*
X91873901Y-156098379D01*
X91654739Y-156668887D01*
X91566541Y-156676448D01*
X91504892Y-156676351D01*
X91468118Y-156666285D01*
X91465865Y-156663818D01*
X91453757Y-156635699D01*
X91426739Y-156568093D01*
X91387503Y-156467897D01*
X91338741Y-156342006D01*
X91283146Y-156197316D01*
X91254725Y-156122956D01*
X91196338Y-155969985D01*
X91143197Y-155830866D01*
X91098092Y-155712893D01*
X91063813Y-155623360D01*
X91043148Y-155569562D01*
X91039004Y-155558877D01*
X91035423Y-155529481D01*
X91063279Y-155517307D01*
X91107281Y-155515469D01*
X91192620Y-155515469D01*
X91373598Y-156000081D01*
G37*
X91373598Y-156000081D02*
X91427799Y-156144031D01*
X91476192Y-156270296D01*
X91516140Y-156372183D01*
X91545006Y-156442997D01*
X91560154Y-156476043D01*
X91561654Y-156477571D01*
X91572083Y-156453257D01*
X91597137Y-156389457D01*
X91634129Y-156293172D01*
X91680374Y-156171409D01*
X91733185Y-156031170D01*
X91747505Y-155992959D01*
X91926279Y-155515469D01*
X92010065Y-155515469D01*
X92066153Y-155517080D01*
X92093043Y-155521023D01*
X92093457Y-155521670D01*
X92084836Y-155545539D01*
X92060804Y-155609373D01*
X92023773Y-155706837D01*
X91976155Y-155831598D01*
X91920360Y-155977322D01*
X91873901Y-156098379D01*
X91654739Y-156668887D01*
X91566541Y-156676448D01*
X91504892Y-156676351D01*
X91468118Y-156666285D01*
X91465865Y-156663818D01*
X91453757Y-156635699D01*
X91426739Y-156568093D01*
X91387503Y-156467897D01*
X91338741Y-156342006D01*
X91283146Y-156197316D01*
X91254725Y-156122956D01*
X91196338Y-155969985D01*
X91143197Y-155830866D01*
X91098092Y-155712893D01*
X91063813Y-155623360D01*
X91043148Y-155569562D01*
X91039004Y-155558877D01*
X91035423Y-155529481D01*
X91063279Y-155517307D01*
X91107281Y-155515469D01*
X91192620Y-155515469D01*
X91373598Y-156000081D01*
G36*
X90898673Y-155583682D02*
G01*
X90890825Y-155651894D01*
X90332719Y-155665922D01*
X90332719Y-155986758D01*
X90878422Y-155986758D01*
X90878422Y-156135586D01*
X90332719Y-156135586D01*
X90332719Y-156557266D01*
X90903227Y-156557266D01*
X90903227Y-156681289D01*
X90159086Y-156681289D01*
X90159086Y-155515469D01*
X90906522Y-155515469D01*
X90898673Y-155583682D01*
G37*
X90898673Y-155583682D02*
X90890825Y-155651894D01*
X90332719Y-155665922D01*
X90332719Y-155986758D01*
X90878422Y-155986758D01*
X90878422Y-156135586D01*
X90332719Y-156135586D01*
X90332719Y-156557266D01*
X90903227Y-156557266D01*
X90903227Y-156681289D01*
X90159086Y-156681289D01*
X90159086Y-155515469D01*
X90906522Y-155515469D01*
X90898673Y-155583682D01*
G36*
X89284721Y-155516013D02*
G01*
X89456996Y-155523541D01*
X89587498Y-155546777D01*
X89682216Y-155588018D01*
X89747141Y-155649561D01*
X89777708Y-155705083D01*
X89805673Y-155824815D01*
X89792935Y-155940362D01*
X89741914Y-156038954D01*
X89707822Y-156073790D01*
X89631350Y-156138137D01*
X89694214Y-156205074D01*
X89733894Y-156257830D01*
X89785450Y-156340739D01*
X89839866Y-156438960D01*
X89859140Y-156476650D01*
X89961202Y-156681289D01*
X89874386Y-156681289D01*
X89831312Y-156678884D01*
X89799085Y-156665826D01*
X89769339Y-156633354D01*
X89733706Y-156572704D01*
X89690830Y-156489053D01*
X89626676Y-156368583D01*
X89571487Y-156286513D01*
X89516344Y-156234971D01*
X89452332Y-156206080D01*
X89370533Y-156191969D01*
X89352550Y-156190334D01*
X89216508Y-156179052D01*
X89216508Y-156681289D01*
X89042875Y-156681289D01*
X89042875Y-156066951D01*
X89216508Y-156066951D01*
X89381053Y-156056474D01*
X89477063Y-156047180D01*
X89537942Y-156031286D01*
X89578131Y-156004160D01*
X89591893Y-155988824D01*
X89633327Y-155901220D01*
X89627396Y-155800702D01*
X89610023Y-155753645D01*
X89585723Y-155711529D01*
X89551534Y-155683972D01*
X89495732Y-155665974D01*
X89406589Y-155652534D01*
X89361186Y-155647547D01*
X89216508Y-155632425D01*
X89216508Y-156066951D01*
X89042875Y-156066951D01*
X89042875Y-155515469D01*
X89284721Y-155516013D01*
G37*
X89284721Y-155516013D02*
X89456996Y-155523541D01*
X89587498Y-155546777D01*
X89682216Y-155588018D01*
X89747141Y-155649561D01*
X89777708Y-155705083D01*
X89805673Y-155824815D01*
X89792935Y-155940362D01*
X89741914Y-156038954D01*
X89707822Y-156073790D01*
X89631350Y-156138137D01*
X89694214Y-156205074D01*
X89733894Y-156257830D01*
X89785450Y-156340739D01*
X89839866Y-156438960D01*
X89859140Y-156476650D01*
X89961202Y-156681289D01*
X89874386Y-156681289D01*
X89831312Y-156678884D01*
X89799085Y-156665826D01*
X89769339Y-156633354D01*
X89733706Y-156572704D01*
X89690830Y-156489053D01*
X89626676Y-156368583D01*
X89571487Y-156286513D01*
X89516344Y-156234971D01*
X89452332Y-156206080D01*
X89370533Y-156191969D01*
X89352550Y-156190334D01*
X89216508Y-156179052D01*
X89216508Y-156681289D01*
X89042875Y-156681289D01*
X89042875Y-156066951D01*
X89216508Y-156066951D01*
X89381053Y-156056474D01*
X89477063Y-156047180D01*
X89537942Y-156031286D01*
X89578131Y-156004160D01*
X89591893Y-155988824D01*
X89633327Y-155901220D01*
X89627396Y-155800702D01*
X89610023Y-155753645D01*
X89585723Y-155711529D01*
X89551534Y-155683972D01*
X89495732Y-155665974D01*
X89406589Y-155652534D01*
X89361186Y-155647547D01*
X89216508Y-155632425D01*
X89216508Y-156066951D01*
X89042875Y-156066951D01*
X89042875Y-155515469D01*
X89284721Y-155516013D01*
D11*
%TO.C,D23*%
X147929000Y-88455000D02*
X147919000Y-91445000D01*
X145929000Y-88465000D02*
X145929000Y-91435000D01*
X145929000Y-88455000D02*
X147929000Y-88455000D01*
X146939000Y-88195000D02*
X146939000Y-89475000D01*
X146939000Y-91655000D02*
X146939000Y-90535000D01*
X145929000Y-91445000D02*
X147919000Y-91445000D01*
X146399000Y-90535000D02*
X147479000Y-90535000D01*
X146939000Y-89585000D02*
X147479000Y-90535000D01*
X146399000Y-89485000D02*
X147479000Y-89485000D01*
X146929000Y-89595000D02*
X146399000Y-90505000D01*
X148059000Y-87415000D02*
X145819000Y-87415000D01*
X145819000Y-87415000D02*
X145819000Y-91655000D01*
X145819000Y-91655000D02*
X148059000Y-91655000D01*
X148059000Y-91655000D02*
X148059000Y-87415000D01*
X146939000Y-86765000D02*
X146939000Y-87415000D01*
X146939000Y-92305000D02*
X146939000Y-91655000D01*
X148059000Y-88135000D02*
X145819000Y-88135000D01*
X148059000Y-88255000D02*
X145819000Y-88255000D01*
X148059000Y-88015000D02*
X145819000Y-88015000D01*
%TO.C,D22*%
X127196250Y-48767500D02*
X127186250Y-51757500D01*
X125196250Y-48777500D02*
X125196250Y-51747500D01*
X125196250Y-48767500D02*
X127196250Y-48767500D01*
X126206250Y-48507500D02*
X126206250Y-49787500D01*
X126206250Y-51967500D02*
X126206250Y-50847500D01*
X125196250Y-51757500D02*
X127186250Y-51757500D01*
X125666250Y-50847500D02*
X126746250Y-50847500D01*
X126206250Y-49897500D02*
X126746250Y-50847500D01*
X125666250Y-49797500D02*
X126746250Y-49797500D01*
X126196250Y-49907500D02*
X125666250Y-50817500D01*
X127326250Y-47727500D02*
X125086250Y-47727500D01*
X125086250Y-47727500D02*
X125086250Y-51967500D01*
X125086250Y-51967500D02*
X127326250Y-51967500D01*
X127326250Y-51967500D02*
X127326250Y-47727500D01*
X126206250Y-47077500D02*
X126206250Y-47727500D01*
X126206250Y-52617500D02*
X126206250Y-51967500D01*
X127326250Y-48447500D02*
X125086250Y-48447500D01*
X127326250Y-48567500D02*
X125086250Y-48567500D01*
X127326250Y-48327500D02*
X125086250Y-48327500D01*
%TO.C,D21*%
X108146250Y-48767500D02*
X108136250Y-51757500D01*
X106146250Y-48777500D02*
X106146250Y-51747500D01*
X106146250Y-48767500D02*
X108146250Y-48767500D01*
X107156250Y-48507500D02*
X107156250Y-49787500D01*
X107156250Y-51967500D02*
X107156250Y-50847500D01*
X106146250Y-51757500D02*
X108136250Y-51757500D01*
X106616250Y-50847500D02*
X107696250Y-50847500D01*
X107156250Y-49897500D02*
X107696250Y-50847500D01*
X106616250Y-49797500D02*
X107696250Y-49797500D01*
X107146250Y-49907500D02*
X106616250Y-50817500D01*
X108276250Y-47727500D02*
X106036250Y-47727500D01*
X106036250Y-47727500D02*
X106036250Y-51967500D01*
X106036250Y-51967500D02*
X108276250Y-51967500D01*
X108276250Y-51967500D02*
X108276250Y-47727500D01*
X107156250Y-47077500D02*
X107156250Y-47727500D01*
X107156250Y-52617500D02*
X107156250Y-51967500D01*
X108276250Y-48447500D02*
X106036250Y-48447500D01*
X108276250Y-48567500D02*
X106036250Y-48567500D01*
X108276250Y-48327500D02*
X106036250Y-48327500D01*
%TO.C,D20*%
X89096250Y-51942500D02*
X89086250Y-54932500D01*
X87096250Y-51952500D02*
X87096250Y-54922500D01*
X87096250Y-51942500D02*
X89096250Y-51942500D01*
X88106250Y-51682500D02*
X88106250Y-52962500D01*
X88106250Y-55142500D02*
X88106250Y-54022500D01*
X87096250Y-54932500D02*
X89086250Y-54932500D01*
X87566250Y-54022500D02*
X88646250Y-54022500D01*
X88106250Y-53072500D02*
X88646250Y-54022500D01*
X87566250Y-52972500D02*
X88646250Y-52972500D01*
X88096250Y-53082500D02*
X87566250Y-53992500D01*
X89226250Y-50902500D02*
X86986250Y-50902500D01*
X86986250Y-50902500D02*
X86986250Y-55142500D01*
X86986250Y-55142500D02*
X89226250Y-55142500D01*
X89226250Y-55142500D02*
X89226250Y-50902500D01*
X88106250Y-50252500D02*
X88106250Y-50902500D01*
X88106250Y-55792500D02*
X88106250Y-55142500D01*
X89226250Y-51622500D02*
X86986250Y-51622500D01*
X89226250Y-51742500D02*
X86986250Y-51742500D01*
X89226250Y-51502500D02*
X86986250Y-51502500D01*
%TO.C,D19*%
X70046250Y-51942500D02*
X70036250Y-54932500D01*
X68046250Y-51952500D02*
X68046250Y-54922500D01*
X68046250Y-51942500D02*
X70046250Y-51942500D01*
X69056250Y-51682500D02*
X69056250Y-52962500D01*
X69056250Y-55142500D02*
X69056250Y-54022500D01*
X68046250Y-54932500D02*
X70036250Y-54932500D01*
X68516250Y-54022500D02*
X69596250Y-54022500D01*
X69056250Y-53072500D02*
X69596250Y-54022500D01*
X68516250Y-52972500D02*
X69596250Y-52972500D01*
X69046250Y-53082500D02*
X68516250Y-53992500D01*
X70176250Y-50902500D02*
X67936250Y-50902500D01*
X67936250Y-50902500D02*
X67936250Y-55142500D01*
X67936250Y-55142500D02*
X70176250Y-55142500D01*
X70176250Y-55142500D02*
X70176250Y-50902500D01*
X69056250Y-50252500D02*
X69056250Y-50902500D01*
X69056250Y-55792500D02*
X69056250Y-55142500D01*
X70176250Y-51622500D02*
X67936250Y-51622500D01*
X70176250Y-51742500D02*
X67936250Y-51742500D01*
X70176250Y-51502500D02*
X67936250Y-51502500D01*
%TO.C,D18*%
X124021250Y-49561250D02*
X124011250Y-52551250D01*
X122021250Y-49571250D02*
X122021250Y-52541250D01*
X122021250Y-49561250D02*
X124021250Y-49561250D01*
X123031250Y-49301250D02*
X123031250Y-50581250D01*
X123031250Y-52761250D02*
X123031250Y-51641250D01*
X122021250Y-52551250D02*
X124011250Y-52551250D01*
X122491250Y-51641250D02*
X123571250Y-51641250D01*
X123031250Y-50691250D02*
X123571250Y-51641250D01*
X122491250Y-50591250D02*
X123571250Y-50591250D01*
X123021250Y-50701250D02*
X122491250Y-51611250D01*
X124151250Y-48521250D02*
X121911250Y-48521250D01*
X121911250Y-48521250D02*
X121911250Y-52761250D01*
X121911250Y-52761250D02*
X124151250Y-52761250D01*
X124151250Y-52761250D02*
X124151250Y-48521250D01*
X123031250Y-47871250D02*
X123031250Y-48521250D01*
X123031250Y-53411250D02*
X123031250Y-52761250D01*
X124151250Y-49241250D02*
X121911250Y-49241250D01*
X124151250Y-49361250D02*
X121911250Y-49361250D01*
X124151250Y-49121250D02*
X121911250Y-49121250D01*
%TO.C,D17*%
X104971250Y-49561250D02*
X104961250Y-52551250D01*
X102971250Y-49571250D02*
X102971250Y-52541250D01*
X102971250Y-49561250D02*
X104971250Y-49561250D01*
X103981250Y-49301250D02*
X103981250Y-50581250D01*
X103981250Y-52761250D02*
X103981250Y-51641250D01*
X102971250Y-52551250D02*
X104961250Y-52551250D01*
X103441250Y-51641250D02*
X104521250Y-51641250D01*
X103981250Y-50691250D02*
X104521250Y-51641250D01*
X103441250Y-50591250D02*
X104521250Y-50591250D01*
X103971250Y-50701250D02*
X103441250Y-51611250D01*
X105101250Y-48521250D02*
X102861250Y-48521250D01*
X102861250Y-48521250D02*
X102861250Y-52761250D01*
X102861250Y-52761250D02*
X105101250Y-52761250D01*
X105101250Y-52761250D02*
X105101250Y-48521250D01*
X103981250Y-47871250D02*
X103981250Y-48521250D01*
X103981250Y-53411250D02*
X103981250Y-52761250D01*
X105101250Y-49241250D02*
X102861250Y-49241250D01*
X105101250Y-49361250D02*
X102861250Y-49361250D01*
X105101250Y-49121250D02*
X102861250Y-49121250D01*
%TO.C,D16*%
X85921250Y-51148750D02*
X85911250Y-54138750D01*
X83921250Y-51158750D02*
X83921250Y-54128750D01*
X83921250Y-51148750D02*
X85921250Y-51148750D01*
X84931250Y-50888750D02*
X84931250Y-52168750D01*
X84931250Y-54348750D02*
X84931250Y-53228750D01*
X83921250Y-54138750D02*
X85911250Y-54138750D01*
X84391250Y-53228750D02*
X85471250Y-53228750D01*
X84931250Y-52278750D02*
X85471250Y-53228750D01*
X84391250Y-52178750D02*
X85471250Y-52178750D01*
X84921250Y-52288750D02*
X84391250Y-53198750D01*
X86051250Y-50108750D02*
X83811250Y-50108750D01*
X83811250Y-50108750D02*
X83811250Y-54348750D01*
X83811250Y-54348750D02*
X86051250Y-54348750D01*
X86051250Y-54348750D02*
X86051250Y-50108750D01*
X84931250Y-49458750D02*
X84931250Y-50108750D01*
X84931250Y-54998750D02*
X84931250Y-54348750D01*
X86051250Y-50828750D02*
X83811250Y-50828750D01*
X86051250Y-50948750D02*
X83811250Y-50948750D01*
X86051250Y-50708750D02*
X83811250Y-50708750D01*
%TO.C,D15*%
X66871250Y-51148750D02*
X66861250Y-54138750D01*
X64871250Y-51158750D02*
X64871250Y-54128750D01*
X64871250Y-51148750D02*
X66871250Y-51148750D01*
X65881250Y-50888750D02*
X65881250Y-52168750D01*
X65881250Y-54348750D02*
X65881250Y-53228750D01*
X64871250Y-54138750D02*
X66861250Y-54138750D01*
X65341250Y-53228750D02*
X66421250Y-53228750D01*
X65881250Y-52278750D02*
X66421250Y-53228750D01*
X65341250Y-52178750D02*
X66421250Y-52178750D01*
X65871250Y-52288750D02*
X65341250Y-53198750D01*
X67001250Y-50108750D02*
X64761250Y-50108750D01*
X64761250Y-50108750D02*
X64761250Y-54348750D01*
X64761250Y-54348750D02*
X67001250Y-54348750D01*
X67001250Y-54348750D02*
X67001250Y-50108750D01*
X65881250Y-49458750D02*
X65881250Y-50108750D01*
X65881250Y-54998750D02*
X65881250Y-54348750D01*
X67001250Y-50828750D02*
X64761250Y-50828750D01*
X67001250Y-50948750D02*
X64761250Y-50948750D01*
X67001250Y-50708750D02*
X64761250Y-50708750D01*
%TO.C,D14*%
X134340000Y-88455000D02*
X134330000Y-91445000D01*
X132340000Y-88465000D02*
X132340000Y-91435000D01*
X132340000Y-88455000D02*
X134340000Y-88455000D01*
X133350000Y-88195000D02*
X133350000Y-89475000D01*
X133350000Y-91655000D02*
X133350000Y-90535000D01*
X132340000Y-91445000D02*
X134330000Y-91445000D01*
X132810000Y-90535000D02*
X133890000Y-90535000D01*
X133350000Y-89585000D02*
X133890000Y-90535000D01*
X132810000Y-89485000D02*
X133890000Y-89485000D01*
X133340000Y-89595000D02*
X132810000Y-90505000D01*
X134470000Y-87415000D02*
X132230000Y-87415000D01*
X132230000Y-87415000D02*
X132230000Y-91655000D01*
X132230000Y-91655000D02*
X134470000Y-91655000D01*
X134470000Y-91655000D02*
X134470000Y-87415000D01*
X133350000Y-86765000D02*
X133350000Y-87415000D01*
X133350000Y-92305000D02*
X133350000Y-91655000D01*
X134470000Y-88135000D02*
X132230000Y-88135000D01*
X134470000Y-88255000D02*
X132230000Y-88255000D01*
X134470000Y-88015000D02*
X132230000Y-88015000D01*
%TO.C,D13*%
X120846250Y-50355000D02*
X120836250Y-53345000D01*
X118846250Y-50365000D02*
X118846250Y-53335000D01*
X118846250Y-50355000D02*
X120846250Y-50355000D01*
X119856250Y-50095000D02*
X119856250Y-51375000D01*
X119856250Y-53555000D02*
X119856250Y-52435000D01*
X118846250Y-53345000D02*
X120836250Y-53345000D01*
X119316250Y-52435000D02*
X120396250Y-52435000D01*
X119856250Y-51485000D02*
X120396250Y-52435000D01*
X119316250Y-51385000D02*
X120396250Y-51385000D01*
X119846250Y-51495000D02*
X119316250Y-52405000D01*
X120976250Y-49315000D02*
X118736250Y-49315000D01*
X118736250Y-49315000D02*
X118736250Y-53555000D01*
X118736250Y-53555000D02*
X120976250Y-53555000D01*
X120976250Y-53555000D02*
X120976250Y-49315000D01*
X119856250Y-48665000D02*
X119856250Y-49315000D01*
X119856250Y-54205000D02*
X119856250Y-53555000D01*
X120976250Y-50035000D02*
X118736250Y-50035000D01*
X120976250Y-50155000D02*
X118736250Y-50155000D01*
X120976250Y-49915000D02*
X118736250Y-49915000D01*
%TO.C,D12*%
X101796250Y-50355000D02*
X101786250Y-53345000D01*
X99796250Y-50365000D02*
X99796250Y-53335000D01*
X99796250Y-50355000D02*
X101796250Y-50355000D01*
X100806250Y-50095000D02*
X100806250Y-51375000D01*
X100806250Y-53555000D02*
X100806250Y-52435000D01*
X99796250Y-53345000D02*
X101786250Y-53345000D01*
X100266250Y-52435000D02*
X101346250Y-52435000D01*
X100806250Y-51485000D02*
X101346250Y-52435000D01*
X100266250Y-51385000D02*
X101346250Y-51385000D01*
X100796250Y-51495000D02*
X100266250Y-52405000D01*
X101926250Y-49315000D02*
X99686250Y-49315000D01*
X99686250Y-49315000D02*
X99686250Y-53555000D01*
X99686250Y-53555000D02*
X101926250Y-53555000D01*
X101926250Y-53555000D02*
X101926250Y-49315000D01*
X100806250Y-48665000D02*
X100806250Y-49315000D01*
X100806250Y-54205000D02*
X100806250Y-53555000D01*
X101926250Y-50035000D02*
X99686250Y-50035000D01*
X101926250Y-50155000D02*
X99686250Y-50155000D01*
X101926250Y-49915000D02*
X99686250Y-49915000D01*
%TO.C,D11*%
X82746250Y-50355000D02*
X82736250Y-53345000D01*
X80746250Y-50365000D02*
X80746250Y-53335000D01*
X80746250Y-50355000D02*
X82746250Y-50355000D01*
X81756250Y-50095000D02*
X81756250Y-51375000D01*
X81756250Y-53555000D02*
X81756250Y-52435000D01*
X80746250Y-53345000D02*
X82736250Y-53345000D01*
X81216250Y-52435000D02*
X82296250Y-52435000D01*
X81756250Y-51485000D02*
X82296250Y-52435000D01*
X81216250Y-51385000D02*
X82296250Y-51385000D01*
X81746250Y-51495000D02*
X81216250Y-52405000D01*
X82876250Y-49315000D02*
X80636250Y-49315000D01*
X80636250Y-49315000D02*
X80636250Y-53555000D01*
X80636250Y-53555000D02*
X82876250Y-53555000D01*
X82876250Y-53555000D02*
X82876250Y-49315000D01*
X81756250Y-48665000D02*
X81756250Y-49315000D01*
X81756250Y-54205000D02*
X81756250Y-53555000D01*
X82876250Y-50035000D02*
X80636250Y-50035000D01*
X82876250Y-50155000D02*
X80636250Y-50155000D01*
X82876250Y-49915000D02*
X80636250Y-49915000D01*
%TO.C,D10*%
X63696250Y-50355000D02*
X63686250Y-53345000D01*
X61696250Y-50365000D02*
X61696250Y-53335000D01*
X61696250Y-50355000D02*
X63696250Y-50355000D01*
X62706250Y-50095000D02*
X62706250Y-51375000D01*
X62706250Y-53555000D02*
X62706250Y-52435000D01*
X61696250Y-53345000D02*
X63686250Y-53345000D01*
X62166250Y-52435000D02*
X63246250Y-52435000D01*
X62706250Y-51485000D02*
X63246250Y-52435000D01*
X62166250Y-51385000D02*
X63246250Y-51385000D01*
X62696250Y-51495000D02*
X62166250Y-52405000D01*
X63826250Y-49315000D02*
X61586250Y-49315000D01*
X61586250Y-49315000D02*
X61586250Y-53555000D01*
X61586250Y-53555000D02*
X63826250Y-53555000D01*
X63826250Y-53555000D02*
X63826250Y-49315000D01*
X62706250Y-48665000D02*
X62706250Y-49315000D01*
X62706250Y-54205000D02*
X62706250Y-53555000D01*
X63826250Y-50035000D02*
X61586250Y-50035000D01*
X63826250Y-50155000D02*
X61586250Y-50155000D01*
X63826250Y-49915000D02*
X61586250Y-49915000D01*
%TO.C,D9*%
X131800000Y-88455000D02*
X131790000Y-91445000D01*
X129800000Y-88465000D02*
X129800000Y-91435000D01*
X129800000Y-88455000D02*
X131800000Y-88455000D01*
X130810000Y-88195000D02*
X130810000Y-89475000D01*
X130810000Y-91655000D02*
X130810000Y-90535000D01*
X129800000Y-91445000D02*
X131790000Y-91445000D01*
X130270000Y-90535000D02*
X131350000Y-90535000D01*
X130810000Y-89585000D02*
X131350000Y-90535000D01*
X130270000Y-89485000D02*
X131350000Y-89485000D01*
X130800000Y-89595000D02*
X130270000Y-90505000D01*
X131930000Y-87415000D02*
X129690000Y-87415000D01*
X129690000Y-87415000D02*
X129690000Y-91655000D01*
X129690000Y-91655000D02*
X131930000Y-91655000D01*
X131930000Y-91655000D02*
X131930000Y-87415000D01*
X130810000Y-86765000D02*
X130810000Y-87415000D01*
X130810000Y-92305000D02*
X130810000Y-91655000D01*
X131930000Y-88135000D02*
X129690000Y-88135000D01*
X131930000Y-88255000D02*
X129690000Y-88255000D01*
X131930000Y-88015000D02*
X129690000Y-88015000D01*
%TO.C,D8*%
X117671250Y-51148750D02*
X117661250Y-54138750D01*
X115671250Y-51158750D02*
X115671250Y-54128750D01*
X115671250Y-51148750D02*
X117671250Y-51148750D01*
X116681250Y-50888750D02*
X116681250Y-52168750D01*
X116681250Y-54348750D02*
X116681250Y-53228750D01*
X115671250Y-54138750D02*
X117661250Y-54138750D01*
X116141250Y-53228750D02*
X117221250Y-53228750D01*
X116681250Y-52278750D02*
X117221250Y-53228750D01*
X116141250Y-52178750D02*
X117221250Y-52178750D01*
X116671250Y-52288750D02*
X116141250Y-53198750D01*
X117801250Y-50108750D02*
X115561250Y-50108750D01*
X115561250Y-50108750D02*
X115561250Y-54348750D01*
X115561250Y-54348750D02*
X117801250Y-54348750D01*
X117801250Y-54348750D02*
X117801250Y-50108750D01*
X116681250Y-49458750D02*
X116681250Y-50108750D01*
X116681250Y-54998750D02*
X116681250Y-54348750D01*
X117801250Y-50828750D02*
X115561250Y-50828750D01*
X117801250Y-50948750D02*
X115561250Y-50948750D01*
X117801250Y-50708750D02*
X115561250Y-50708750D01*
%TO.C,D7*%
X98621250Y-51148750D02*
X98611250Y-54138750D01*
X96621250Y-51158750D02*
X96621250Y-54128750D01*
X96621250Y-51148750D02*
X98621250Y-51148750D01*
X97631250Y-50888750D02*
X97631250Y-52168750D01*
X97631250Y-54348750D02*
X97631250Y-53228750D01*
X96621250Y-54138750D02*
X98611250Y-54138750D01*
X97091250Y-53228750D02*
X98171250Y-53228750D01*
X97631250Y-52278750D02*
X98171250Y-53228750D01*
X97091250Y-52178750D02*
X98171250Y-52178750D01*
X97621250Y-52288750D02*
X97091250Y-53198750D01*
X98751250Y-50108750D02*
X96511250Y-50108750D01*
X96511250Y-50108750D02*
X96511250Y-54348750D01*
X96511250Y-54348750D02*
X98751250Y-54348750D01*
X98751250Y-54348750D02*
X98751250Y-50108750D01*
X97631250Y-49458750D02*
X97631250Y-50108750D01*
X97631250Y-54998750D02*
X97631250Y-54348750D01*
X98751250Y-50828750D02*
X96511250Y-50828750D01*
X98751250Y-50948750D02*
X96511250Y-50948750D01*
X98751250Y-50708750D02*
X96511250Y-50708750D01*
%TO.C,D6*%
X79571250Y-49561250D02*
X79561250Y-52551250D01*
X77571250Y-49571250D02*
X77571250Y-52541250D01*
X77571250Y-49561250D02*
X79571250Y-49561250D01*
X78581250Y-49301250D02*
X78581250Y-50581250D01*
X78581250Y-52761250D02*
X78581250Y-51641250D01*
X77571250Y-52551250D02*
X79561250Y-52551250D01*
X78041250Y-51641250D02*
X79121250Y-51641250D01*
X78581250Y-50691250D02*
X79121250Y-51641250D01*
X78041250Y-50591250D02*
X79121250Y-50591250D01*
X78571250Y-50701250D02*
X78041250Y-51611250D01*
X79701250Y-48521250D02*
X77461250Y-48521250D01*
X77461250Y-48521250D02*
X77461250Y-52761250D01*
X77461250Y-52761250D02*
X79701250Y-52761250D01*
X79701250Y-52761250D02*
X79701250Y-48521250D01*
X78581250Y-47871250D02*
X78581250Y-48521250D01*
X78581250Y-53411250D02*
X78581250Y-52761250D01*
X79701250Y-49241250D02*
X77461250Y-49241250D01*
X79701250Y-49361250D02*
X77461250Y-49361250D01*
X79701250Y-49121250D02*
X77461250Y-49121250D01*
%TO.C,D5*%
X60521250Y-49561250D02*
X60511250Y-52551250D01*
X58521250Y-49571250D02*
X58521250Y-52541250D01*
X58521250Y-49561250D02*
X60521250Y-49561250D01*
X59531250Y-49301250D02*
X59531250Y-50581250D01*
X59531250Y-52761250D02*
X59531250Y-51641250D01*
X58521250Y-52551250D02*
X60511250Y-52551250D01*
X58991250Y-51641250D02*
X60071250Y-51641250D01*
X59531250Y-50691250D02*
X60071250Y-51641250D01*
X58991250Y-50591250D02*
X60071250Y-50591250D01*
X59521250Y-50701250D02*
X58991250Y-51611250D01*
X60651250Y-48521250D02*
X58411250Y-48521250D01*
X58411250Y-48521250D02*
X58411250Y-52761250D01*
X58411250Y-52761250D02*
X60651250Y-52761250D01*
X60651250Y-52761250D02*
X60651250Y-48521250D01*
X59531250Y-47871250D02*
X59531250Y-48521250D01*
X59531250Y-53411250D02*
X59531250Y-52761250D01*
X60651250Y-49241250D02*
X58411250Y-49241250D01*
X60651250Y-49361250D02*
X58411250Y-49361250D01*
X60651250Y-49121250D02*
X58411250Y-49121250D01*
%TO.C,D4*%
X114496250Y-51942500D02*
X114486250Y-54932500D01*
X112496250Y-51952500D02*
X112496250Y-54922500D01*
X112496250Y-51942500D02*
X114496250Y-51942500D01*
X113506250Y-51682500D02*
X113506250Y-52962500D01*
X113506250Y-55142500D02*
X113506250Y-54022500D01*
X112496250Y-54932500D02*
X114486250Y-54932500D01*
X112966250Y-54022500D02*
X114046250Y-54022500D01*
X113506250Y-53072500D02*
X114046250Y-54022500D01*
X112966250Y-52972500D02*
X114046250Y-52972500D01*
X113496250Y-53082500D02*
X112966250Y-53992500D01*
X114626250Y-50902500D02*
X112386250Y-50902500D01*
X112386250Y-50902500D02*
X112386250Y-55142500D01*
X112386250Y-55142500D02*
X114626250Y-55142500D01*
X114626250Y-55142500D02*
X114626250Y-50902500D01*
X113506250Y-50252500D02*
X113506250Y-50902500D01*
X113506250Y-55792500D02*
X113506250Y-55142500D01*
X114626250Y-51622500D02*
X112386250Y-51622500D01*
X114626250Y-51742500D02*
X112386250Y-51742500D01*
X114626250Y-51502500D02*
X112386250Y-51502500D01*
%TO.C,D3*%
X95446250Y-51942500D02*
X95436250Y-54932500D01*
X93446250Y-51952500D02*
X93446250Y-54922500D01*
X93446250Y-51942500D02*
X95446250Y-51942500D01*
X94456250Y-51682500D02*
X94456250Y-52962500D01*
X94456250Y-55142500D02*
X94456250Y-54022500D01*
X93446250Y-54932500D02*
X95436250Y-54932500D01*
X93916250Y-54022500D02*
X94996250Y-54022500D01*
X94456250Y-53072500D02*
X94996250Y-54022500D01*
X93916250Y-52972500D02*
X94996250Y-52972500D01*
X94446250Y-53082500D02*
X93916250Y-53992500D01*
X95576250Y-50902500D02*
X93336250Y-50902500D01*
X93336250Y-50902500D02*
X93336250Y-55142500D01*
X93336250Y-55142500D02*
X95576250Y-55142500D01*
X95576250Y-55142500D02*
X95576250Y-50902500D01*
X94456250Y-50252500D02*
X94456250Y-50902500D01*
X94456250Y-55792500D02*
X94456250Y-55142500D01*
X95576250Y-51622500D02*
X93336250Y-51622500D01*
X95576250Y-51742500D02*
X93336250Y-51742500D01*
X95576250Y-51502500D02*
X93336250Y-51502500D01*
%TO.C,D2*%
X76396250Y-48767500D02*
X76386250Y-51757500D01*
X74396250Y-48777500D02*
X74396250Y-51747500D01*
X74396250Y-48767500D02*
X76396250Y-48767500D01*
X75406250Y-48507500D02*
X75406250Y-49787500D01*
X75406250Y-51967500D02*
X75406250Y-50847500D01*
X74396250Y-51757500D02*
X76386250Y-51757500D01*
X74866250Y-50847500D02*
X75946250Y-50847500D01*
X75406250Y-49897500D02*
X75946250Y-50847500D01*
X74866250Y-49797500D02*
X75946250Y-49797500D01*
X75396250Y-49907500D02*
X74866250Y-50817500D01*
X76526250Y-47727500D02*
X74286250Y-47727500D01*
X74286250Y-47727500D02*
X74286250Y-51967500D01*
X74286250Y-51967500D02*
X76526250Y-51967500D01*
X76526250Y-51967500D02*
X76526250Y-47727500D01*
X75406250Y-47077500D02*
X75406250Y-47727500D01*
X75406250Y-52617500D02*
X75406250Y-51967500D01*
X76526250Y-48447500D02*
X74286250Y-48447500D01*
X76526250Y-48567500D02*
X74286250Y-48567500D01*
X76526250Y-48327500D02*
X74286250Y-48327500D01*
%TO.C,D1*%
X57346250Y-48767500D02*
X57336250Y-51757500D01*
X55346250Y-48777500D02*
X55346250Y-51747500D01*
X55346250Y-48767500D02*
X57346250Y-48767500D01*
X56356250Y-48507500D02*
X56356250Y-49787500D01*
X56356250Y-51967500D02*
X56356250Y-50847500D01*
X55346250Y-51757500D02*
X57336250Y-51757500D01*
X55816250Y-50847500D02*
X56896250Y-50847500D01*
X56356250Y-49897500D02*
X56896250Y-50847500D01*
X55816250Y-49797500D02*
X56896250Y-49797500D01*
X56346250Y-49907500D02*
X55816250Y-50817500D01*
X57476250Y-47727500D02*
X55236250Y-47727500D01*
X55236250Y-47727500D02*
X55236250Y-51967500D01*
X55236250Y-51967500D02*
X57476250Y-51967500D01*
X57476250Y-51967500D02*
X57476250Y-47727500D01*
X56356250Y-47077500D02*
X56356250Y-47727500D01*
X56356250Y-52617500D02*
X56356250Y-51967500D01*
X57476250Y-48447500D02*
X55236250Y-48447500D01*
X57476250Y-48567500D02*
X55236250Y-48567500D01*
X57476250Y-48327500D02*
X55236250Y-48327500D01*
D10*
%TO.C,G\u002A\u002A\u002A*%
G36*
X89109092Y-139379403D02*
G01*
X89168276Y-139381926D01*
X89323780Y-139397673D01*
X89443461Y-139431786D01*
X89539474Y-139490029D01*
X89623978Y-139578166D01*
X89647230Y-139608982D01*
X89715919Y-139721089D01*
X89766726Y-139846914D01*
X89801457Y-139994695D01*
X89821917Y-140172674D01*
X89829911Y-140389090D01*
X89830176Y-140444141D01*
X89829180Y-140601498D01*
X89825434Y-140720800D01*
X89817801Y-140813572D01*
X89805147Y-140891342D01*
X89786334Y-140965637D01*
X89775164Y-141002246D01*
X89712108Y-141166293D01*
X89637191Y-141290364D01*
X89543901Y-141383801D01*
X89478689Y-141427712D01*
X89406756Y-141464518D01*
X89334436Y-141486559D01*
X89243324Y-141498181D01*
X89162734Y-141502296D01*
X89057873Y-141502879D01*
X88963741Y-141497985D01*
X88898157Y-141488641D01*
X88890913Y-141486615D01*
X88760100Y-141421641D01*
X88644286Y-141320881D01*
X88568925Y-141215649D01*
X88495910Y-141041464D01*
X88444759Y-140832708D01*
X88416922Y-140600023D01*
X88414976Y-140444141D01*
X88713965Y-140444141D01*
X88714229Y-140611509D01*
X88715584Y-140737522D01*
X88718872Y-140830432D01*
X88724935Y-140898493D01*
X88734615Y-140949958D01*
X88748754Y-140993080D01*
X88768194Y-141036112D01*
X88775977Y-141051820D01*
X88829653Y-141137188D01*
X88893800Y-141209033D01*
X88922272Y-141231654D01*
X89030783Y-141276459D01*
X89156110Y-141286181D01*
X89279554Y-141260373D01*
X89322067Y-141241165D01*
X89399167Y-141182887D01*
X89458441Y-141097171D01*
X89502453Y-140977987D01*
X89533767Y-140819306D01*
X89546476Y-140713297D01*
X89558191Y-140525699D01*
X89557564Y-140334616D01*
X89545542Y-140151868D01*
X89523072Y-139989273D01*
X89491103Y-139858650D01*
X89474457Y-139814771D01*
X89402713Y-139702822D01*
X89304086Y-139632308D01*
X89176974Y-139602207D01*
X89139393Y-139600874D01*
X89006406Y-139614509D01*
X88905665Y-139659908D01*
X88826786Y-139743462D01*
X88782753Y-139820376D01*
X88759111Y-139869880D01*
X88741621Y-139913927D01*
X88729355Y-139960922D01*
X88721388Y-140019267D01*
X88716791Y-140097365D01*
X88714638Y-140203622D01*
X88714003Y-140346438D01*
X88713965Y-140444141D01*
X88414976Y-140444141D01*
X88413851Y-140354051D01*
X88427437Y-140177721D01*
X88462858Y-139956759D01*
X88514443Y-139778465D01*
X88584835Y-139637778D01*
X88676675Y-139529634D01*
X88792607Y-139448971D01*
X88813317Y-139438399D01*
X88885548Y-139405593D01*
X88947515Y-139386639D01*
X89016327Y-139378817D01*
X89109092Y-139379403D01*
G37*
X89109092Y-139379403D02*
X89168276Y-139381926D01*
X89323780Y-139397673D01*
X89443461Y-139431786D01*
X89539474Y-139490029D01*
X89623978Y-139578166D01*
X89647230Y-139608982D01*
X89715919Y-139721089D01*
X89766726Y-139846914D01*
X89801457Y-139994695D01*
X89821917Y-140172674D01*
X89829911Y-140389090D01*
X89830176Y-140444141D01*
X89829180Y-140601498D01*
X89825434Y-140720800D01*
X89817801Y-140813572D01*
X89805147Y-140891342D01*
X89786334Y-140965637D01*
X89775164Y-141002246D01*
X89712108Y-141166293D01*
X89637191Y-141290364D01*
X89543901Y-141383801D01*
X89478689Y-141427712D01*
X89406756Y-141464518D01*
X89334436Y-141486559D01*
X89243324Y-141498181D01*
X89162734Y-141502296D01*
X89057873Y-141502879D01*
X88963741Y-141497985D01*
X88898157Y-141488641D01*
X88890913Y-141486615D01*
X88760100Y-141421641D01*
X88644286Y-141320881D01*
X88568925Y-141215649D01*
X88495910Y-141041464D01*
X88444759Y-140832708D01*
X88416922Y-140600023D01*
X88414976Y-140444141D01*
X88713965Y-140444141D01*
X88714229Y-140611509D01*
X88715584Y-140737522D01*
X88718872Y-140830432D01*
X88724935Y-140898493D01*
X88734615Y-140949958D01*
X88748754Y-140993080D01*
X88768194Y-141036112D01*
X88775977Y-141051820D01*
X88829653Y-141137188D01*
X88893800Y-141209033D01*
X88922272Y-141231654D01*
X89030783Y-141276459D01*
X89156110Y-141286181D01*
X89279554Y-141260373D01*
X89322067Y-141241165D01*
X89399167Y-141182887D01*
X89458441Y-141097171D01*
X89502453Y-140977987D01*
X89533767Y-140819306D01*
X89546476Y-140713297D01*
X89558191Y-140525699D01*
X89557564Y-140334616D01*
X89545542Y-140151868D01*
X89523072Y-139989273D01*
X89491103Y-139858650D01*
X89474457Y-139814771D01*
X89402713Y-139702822D01*
X89304086Y-139632308D01*
X89176974Y-139602207D01*
X89139393Y-139600874D01*
X89006406Y-139614509D01*
X88905665Y-139659908D01*
X88826786Y-139743462D01*
X88782753Y-139820376D01*
X88759111Y-139869880D01*
X88741621Y-139913927D01*
X88729355Y-139960922D01*
X88721388Y-140019267D01*
X88716791Y-140097365D01*
X88714638Y-140203622D01*
X88714003Y-140346438D01*
X88713965Y-140444141D01*
X88414976Y-140444141D01*
X88413851Y-140354051D01*
X88427437Y-140177721D01*
X88462858Y-139956759D01*
X88514443Y-139778465D01*
X88584835Y-139637778D01*
X88676675Y-139529634D01*
X88792607Y-139448971D01*
X88813317Y-139438399D01*
X88885548Y-139405593D01*
X88947515Y-139386639D01*
X89016327Y-139378817D01*
X89109092Y-139379403D01*
G36*
X91107617Y-141262696D02*
G01*
X91529297Y-141262696D01*
X91529297Y-141485938D01*
X90987728Y-141485938D01*
X90828596Y-141485212D01*
X90686438Y-141483180D01*
X90568651Y-141480061D01*
X90482636Y-141476075D01*
X90435792Y-141471441D01*
X90429623Y-141469401D01*
X90418912Y-141435905D01*
X90413320Y-141373938D01*
X90413086Y-141357780D01*
X90413086Y-141262696D01*
X90860355Y-141262696D01*
X90853762Y-140574366D01*
X90847168Y-139886035D01*
X90628689Y-139878848D01*
X90410209Y-139871660D01*
X90417849Y-139779629D01*
X90425488Y-139687598D01*
X90570558Y-139672014D01*
X90707827Y-139643161D01*
X90806346Y-139588075D01*
X90871649Y-139502887D01*
X90894209Y-139445752D01*
X90919773Y-139415280D01*
X90978504Y-139403082D01*
X91007620Y-139402344D01*
X91107617Y-139402344D01*
X91107617Y-141262696D01*
G37*
X91107617Y-141262696D02*
X91529297Y-141262696D01*
X91529297Y-141485938D01*
X90987728Y-141485938D01*
X90828596Y-141485212D01*
X90686438Y-141483180D01*
X90568651Y-141480061D01*
X90482636Y-141476075D01*
X90435792Y-141471441D01*
X90429623Y-141469401D01*
X90418912Y-141435905D01*
X90413320Y-141373938D01*
X90413086Y-141357780D01*
X90413086Y-141262696D01*
X90860355Y-141262696D01*
X90853762Y-140574366D01*
X90847168Y-139886035D01*
X90628689Y-139878848D01*
X90410209Y-139871660D01*
X90417849Y-139779629D01*
X90425488Y-139687598D01*
X90570558Y-139672014D01*
X90707827Y-139643161D01*
X90806346Y-139588075D01*
X90871649Y-139502887D01*
X90894209Y-139445752D01*
X90919773Y-139415280D01*
X90978504Y-139403082D01*
X91007620Y-139402344D01*
X91107617Y-139402344D01*
X91107617Y-141262696D01*
G36*
X94858700Y-132777057D02*
G01*
X95149882Y-132839421D01*
X95412690Y-132935541D01*
X95644261Y-133064371D01*
X95841737Y-133224859D01*
X96002254Y-133415959D01*
X96003670Y-133418031D01*
X96131286Y-133646112D01*
X96215444Y-133886962D01*
X96257841Y-134135140D01*
X96260173Y-134385204D01*
X96224136Y-134631711D01*
X96151426Y-134869220D01*
X96043738Y-135092288D01*
X95902769Y-135295474D01*
X95730215Y-135473336D01*
X95527772Y-135620432D01*
X95297135Y-135731319D01*
X95280878Y-135737263D01*
X95189402Y-135775387D01*
X95139520Y-135808546D01*
X95131554Y-135827147D01*
X95158059Y-135849997D01*
X95222946Y-135877486D01*
X95315804Y-135905276D01*
X95324414Y-135907454D01*
X95497854Y-135962445D01*
X95681299Y-136040578D01*
X95858663Y-136133677D01*
X96013864Y-136233564D01*
X96098123Y-136300824D01*
X96231738Y-136440568D01*
X96356291Y-136607710D01*
X96458925Y-136783518D01*
X96511068Y-136902330D01*
X96572025Y-137128237D01*
X96601042Y-137380083D01*
X96598201Y-137645911D01*
X96563582Y-137913767D01*
X96502672Y-138155041D01*
X96390716Y-138425628D01*
X96236722Y-138675252D01*
X96045480Y-138899325D01*
X95821781Y-139093257D01*
X95570415Y-139252461D01*
X95296173Y-139372347D01*
X95199712Y-139403008D01*
X94970002Y-139450588D01*
X94712837Y-139471747D01*
X94439786Y-139467818D01*
X94162417Y-139440138D01*
X93892300Y-139390041D01*
X93641004Y-139318862D01*
X93420097Y-139227935D01*
X93348025Y-139189349D01*
X93284692Y-139154330D01*
X93240517Y-139132778D01*
X93230202Y-139129493D01*
X93227127Y-139153427D01*
X93224281Y-139221753D01*
X93221737Y-139329252D01*
X93219571Y-139470705D01*
X93217855Y-139640894D01*
X93216663Y-139834601D01*
X93216069Y-140046608D01*
X93216016Y-140134082D01*
X93216016Y-141138672D01*
X92420911Y-141138672D01*
X92426911Y-138457691D01*
X93213320Y-138457691D01*
X93357295Y-138529690D01*
X93572630Y-138622786D01*
X93798164Y-138689051D01*
X93955892Y-138720309D01*
X94126510Y-138741239D01*
X94316599Y-138751770D01*
X94509338Y-138751907D01*
X94687907Y-138741659D01*
X94835486Y-138721031D01*
X94840723Y-138719944D01*
X95079980Y-138647611D01*
X95285424Y-138539386D01*
X95456067Y-138396571D01*
X95590920Y-138220473D01*
X95688995Y-138012395D01*
X95749303Y-137773643D01*
X95770856Y-137505520D01*
X95770899Y-137492383D01*
X95754216Y-137241184D01*
X95702980Y-137023829D01*
X95615409Y-136836917D01*
X95489721Y-136677048D01*
X95324133Y-136540821D01*
X95246890Y-136492515D01*
X95084716Y-136416719D01*
X94884111Y-136352797D01*
X94655282Y-136302866D01*
X94408438Y-136269041D01*
X94153787Y-136253439D01*
X94089681Y-136252633D01*
X93884342Y-136252149D01*
X93891244Y-135911084D01*
X93898145Y-135570020D01*
X94195801Y-135554873D01*
X94443228Y-135533927D01*
X94650735Y-135496597D01*
X94826160Y-135439925D01*
X94977343Y-135360954D01*
X95112120Y-135256724D01*
X95189119Y-135180026D01*
X95285135Y-135058048D01*
X95354797Y-134923645D01*
X95402267Y-134765796D01*
X95431710Y-134573477D01*
X95436129Y-134526072D01*
X95436886Y-134283746D01*
X95396459Y-134067589D01*
X95315550Y-133878823D01*
X95194860Y-133718672D01*
X95035089Y-133588358D01*
X94843056Y-133491469D01*
X94720116Y-133457626D01*
X94566272Y-133435834D01*
X94398903Y-133426758D01*
X94235391Y-133431061D01*
X94093116Y-133449406D01*
X94045383Y-133461016D01*
X93832346Y-133546522D01*
X93650254Y-133670353D01*
X93498792Y-133832860D01*
X93377646Y-134034394D01*
X93286498Y-134275307D01*
X93274132Y-134319571D01*
X93266335Y-134352636D01*
X93259494Y-134391829D01*
X93253525Y-134440573D01*
X93248348Y-134502290D01*
X93243879Y-134580404D01*
X93240037Y-134678337D01*
X93236739Y-134799513D01*
X93233903Y-134947354D01*
X93231447Y-135125284D01*
X93229288Y-135336724D01*
X93227345Y-135585099D01*
X93225536Y-135873831D01*
X93223777Y-136206344D01*
X93222527Y-136468152D01*
X93213320Y-138457691D01*
X92426911Y-138457691D01*
X92428503Y-137746631D01*
X92436096Y-134354590D01*
X92492001Y-134143750D01*
X92576165Y-133884763D01*
X92684655Y-133660002D01*
X92824334Y-133457261D01*
X92967123Y-133298715D01*
X93182418Y-133111004D01*
X93414847Y-132964937D01*
X93669671Y-132858208D01*
X93952153Y-132788515D01*
X94202657Y-132757797D01*
X94542005Y-132749500D01*
X94858700Y-132777057D01*
G37*
X94858700Y-132777057D02*
X95149882Y-132839421D01*
X95412690Y-132935541D01*
X95644261Y-133064371D01*
X95841737Y-133224859D01*
X96002254Y-133415959D01*
X96003670Y-133418031D01*
X96131286Y-133646112D01*
X96215444Y-133886962D01*
X96257841Y-134135140D01*
X96260173Y-134385204D01*
X96224136Y-134631711D01*
X96151426Y-134869220D01*
X96043738Y-135092288D01*
X95902769Y-135295474D01*
X95730215Y-135473336D01*
X95527772Y-135620432D01*
X95297135Y-135731319D01*
X95280878Y-135737263D01*
X95189402Y-135775387D01*
X95139520Y-135808546D01*
X95131554Y-135827147D01*
X95158059Y-135849997D01*
X95222946Y-135877486D01*
X95315804Y-135905276D01*
X95324414Y-135907454D01*
X95497854Y-135962445D01*
X95681299Y-136040578D01*
X95858663Y-136133677D01*
X96013864Y-136233564D01*
X96098123Y-136300824D01*
X96231738Y-136440568D01*
X96356291Y-136607710D01*
X96458925Y-136783518D01*
X96511068Y-136902330D01*
X96572025Y-137128237D01*
X96601042Y-137380083D01*
X96598201Y-137645911D01*
X96563582Y-137913767D01*
X96502672Y-138155041D01*
X96390716Y-138425628D01*
X96236722Y-138675252D01*
X96045480Y-138899325D01*
X95821781Y-139093257D01*
X95570415Y-139252461D01*
X95296173Y-139372347D01*
X95199712Y-139403008D01*
X94970002Y-139450588D01*
X94712837Y-139471747D01*
X94439786Y-139467818D01*
X94162417Y-139440138D01*
X93892300Y-139390041D01*
X93641004Y-139318862D01*
X93420097Y-139227935D01*
X93348025Y-139189349D01*
X93284692Y-139154330D01*
X93240517Y-139132778D01*
X93230202Y-139129493D01*
X93227127Y-139153427D01*
X93224281Y-139221753D01*
X93221737Y-139329252D01*
X93219571Y-139470705D01*
X93217855Y-139640894D01*
X93216663Y-139834601D01*
X93216069Y-140046608D01*
X93216016Y-140134082D01*
X93216016Y-141138672D01*
X92420911Y-141138672D01*
X92426911Y-138457691D01*
X93213320Y-138457691D01*
X93357295Y-138529690D01*
X93572630Y-138622786D01*
X93798164Y-138689051D01*
X93955892Y-138720309D01*
X94126510Y-138741239D01*
X94316599Y-138751770D01*
X94509338Y-138751907D01*
X94687907Y-138741659D01*
X94835486Y-138721031D01*
X94840723Y-138719944D01*
X95079980Y-138647611D01*
X95285424Y-138539386D01*
X95456067Y-138396571D01*
X95590920Y-138220473D01*
X95688995Y-138012395D01*
X95749303Y-137773643D01*
X95770856Y-137505520D01*
X95770899Y-137492383D01*
X95754216Y-137241184D01*
X95702980Y-137023829D01*
X95615409Y-136836917D01*
X95489721Y-136677048D01*
X95324133Y-136540821D01*
X95246890Y-136492515D01*
X95084716Y-136416719D01*
X94884111Y-136352797D01*
X94655282Y-136302866D01*
X94408438Y-136269041D01*
X94153787Y-136253439D01*
X94089681Y-136252633D01*
X93884342Y-136252149D01*
X93891244Y-135911084D01*
X93898145Y-135570020D01*
X94195801Y-135554873D01*
X94443228Y-135533927D01*
X94650735Y-135496597D01*
X94826160Y-135439925D01*
X94977343Y-135360954D01*
X95112120Y-135256724D01*
X95189119Y-135180026D01*
X95285135Y-135058048D01*
X95354797Y-134923645D01*
X95402267Y-134765796D01*
X95431710Y-134573477D01*
X95436129Y-134526072D01*
X95436886Y-134283746D01*
X95396459Y-134067589D01*
X95315550Y-133878823D01*
X95194860Y-133718672D01*
X95035089Y-133588358D01*
X94843056Y-133491469D01*
X94720116Y-133457626D01*
X94566272Y-133435834D01*
X94398903Y-133426758D01*
X94235391Y-133431061D01*
X94093116Y-133449406D01*
X94045383Y-133461016D01*
X93832346Y-133546522D01*
X93650254Y-133670353D01*
X93498792Y-133832860D01*
X93377646Y-134034394D01*
X93286498Y-134275307D01*
X93274132Y-134319571D01*
X93266335Y-134352636D01*
X93259494Y-134391829D01*
X93253525Y-134440573D01*
X93248348Y-134502290D01*
X93243879Y-134580404D01*
X93240037Y-134678337D01*
X93236739Y-134799513D01*
X93233903Y-134947354D01*
X93231447Y-135125284D01*
X93229288Y-135336724D01*
X93227345Y-135585099D01*
X93225536Y-135873831D01*
X93223777Y-136206344D01*
X93222527Y-136468152D01*
X93213320Y-138457691D01*
X92426911Y-138457691D01*
X92428503Y-137746631D01*
X92436096Y-134354590D01*
X92492001Y-134143750D01*
X92576165Y-133884763D01*
X92684655Y-133660002D01*
X92824334Y-133457261D01*
X92967123Y-133298715D01*
X93182418Y-133111004D01*
X93414847Y-132964937D01*
X93669671Y-132858208D01*
X93952153Y-132788515D01*
X94202657Y-132757797D01*
X94542005Y-132749500D01*
X94858700Y-132777057D01*
G36*
X92893555Y-132897448D02*
G01*
X92674940Y-132907900D01*
X92526260Y-132922557D01*
X92416001Y-132953824D01*
X92334236Y-133007203D01*
X92271037Y-133088193D01*
X92239305Y-133149277D01*
X92230805Y-133168218D01*
X92223264Y-133188086D01*
X92216616Y-133211832D01*
X92210795Y-133242409D01*
X92205735Y-133282768D01*
X92201370Y-133335862D01*
X92197635Y-133404643D01*
X92194464Y-133492062D01*
X92191790Y-133601072D01*
X92189548Y-133734625D01*
X92187672Y-133895672D01*
X92186096Y-134087167D01*
X92184754Y-134312060D01*
X92183581Y-134573304D01*
X92182509Y-134873851D01*
X92181474Y-135216653D01*
X92180410Y-135604662D01*
X92179856Y-135812727D01*
X92173091Y-138362270D01*
X91919407Y-138355208D01*
X91665723Y-138348145D01*
X90115430Y-135800461D01*
X89916830Y-135474104D01*
X89724906Y-135158747D01*
X89541291Y-134857070D01*
X89367619Y-134571757D01*
X89205523Y-134305488D01*
X89056634Y-134060946D01*
X88922588Y-133840812D01*
X88805016Y-133647769D01*
X88705552Y-133484499D01*
X88625829Y-133353683D01*
X88567480Y-133258004D01*
X88532138Y-133200143D01*
X88521955Y-133183566D01*
X88514618Y-133173544D01*
X88508176Y-133170402D01*
X88502582Y-133177018D01*
X88497786Y-133196270D01*
X88493741Y-133231037D01*
X88490397Y-133284198D01*
X88487707Y-133358629D01*
X88485622Y-133457209D01*
X88484094Y-133582817D01*
X88483073Y-133738331D01*
X88482513Y-133926629D01*
X88482364Y-134150589D01*
X88482579Y-134413090D01*
X88483108Y-134717009D01*
X88483903Y-135065226D01*
X88484748Y-135396387D01*
X88485734Y-135788718D01*
X88486628Y-136134546D01*
X88487599Y-136436977D01*
X88488822Y-136699115D01*
X88490467Y-136924067D01*
X88492707Y-137114937D01*
X88495714Y-137274833D01*
X88499661Y-137406858D01*
X88504719Y-137514119D01*
X88511061Y-137599720D01*
X88518858Y-137666769D01*
X88528283Y-137718369D01*
X88539509Y-137757627D01*
X88552706Y-137787648D01*
X88568048Y-137811538D01*
X88585706Y-137832402D01*
X88605853Y-137853346D01*
X88621868Y-137870081D01*
X88676530Y-137917988D01*
X88743555Y-137952357D01*
X88833655Y-137976619D01*
X88957540Y-137994204D01*
X89031308Y-138001208D01*
X89224627Y-138017717D01*
X89210059Y-138348145D01*
X88224072Y-138354631D01*
X87238086Y-138361116D01*
X87238086Y-138020414D01*
X87439254Y-138003637D01*
X87593122Y-137984824D01*
X87707236Y-137955599D01*
X87790958Y-137912534D01*
X87853651Y-137852204D01*
X87853954Y-137851819D01*
X87873440Y-137826606D01*
X87890608Y-137801486D01*
X87905607Y-137773322D01*
X87918581Y-137738974D01*
X87929679Y-137695302D01*
X87939046Y-137639167D01*
X87946829Y-137567430D01*
X87953175Y-137476952D01*
X87958232Y-137364593D01*
X87962144Y-137227215D01*
X87965059Y-137061678D01*
X87967124Y-136864843D01*
X87968485Y-136633570D01*
X87969289Y-136364720D01*
X87969682Y-136055155D01*
X87969812Y-135701735D01*
X87969824Y-135371582D01*
X87969777Y-134989010D01*
X87969596Y-134652914D01*
X87969221Y-134360159D01*
X87968592Y-134107612D01*
X87967649Y-133892140D01*
X87966331Y-133710607D01*
X87964579Y-133559880D01*
X87962333Y-133436826D01*
X87959533Y-133338311D01*
X87956118Y-133261200D01*
X87952029Y-133202360D01*
X87947206Y-133158657D01*
X87941588Y-133126958D01*
X87935116Y-133104128D01*
X87927729Y-133087034D01*
X87925996Y-133083770D01*
X87876056Y-133014872D01*
X87808024Y-132965981D01*
X87713391Y-132933748D01*
X87583649Y-132914824D01*
X87479932Y-132908223D01*
X87238086Y-132897746D01*
X87238086Y-132556250D01*
X89036426Y-132557690D01*
X90337158Y-134704009D01*
X90518037Y-135002261D01*
X90691872Y-135288479D01*
X90856918Y-135559815D01*
X91011431Y-135813418D01*
X91153665Y-136046440D01*
X91281877Y-136256030D01*
X91394322Y-136439340D01*
X91489255Y-136593520D01*
X91564932Y-136715721D01*
X91619608Y-136803092D01*
X91651539Y-136852786D01*
X91659356Y-136863594D01*
X91662860Y-136841680D01*
X91665964Y-136773795D01*
X91668638Y-136663577D01*
X91670856Y-136514663D01*
X91672587Y-136330691D01*
X91673804Y-136115298D01*
X91674479Y-135872122D01*
X91674582Y-135604799D01*
X91674087Y-135316968D01*
X91673273Y-135082425D01*
X91671762Y-134739149D01*
X91670255Y-134441943D01*
X91668656Y-134187268D01*
X91666868Y-133971587D01*
X91664793Y-133791360D01*
X91662336Y-133643049D01*
X91659397Y-133523115D01*
X91655882Y-133428019D01*
X91651692Y-133354222D01*
X91646730Y-133298186D01*
X91640900Y-133256372D01*
X91634104Y-133225241D01*
X91626246Y-133201255D01*
X91621369Y-133189678D01*
X91549404Y-133067399D01*
X91457059Y-132981941D01*
X91337499Y-132929457D01*
X91183887Y-132906103D01*
X91113818Y-132904061D01*
X90933985Y-132903516D01*
X90933985Y-132556250D01*
X92893555Y-132556250D01*
X92893555Y-132897448D01*
G37*
X92893555Y-132897448D02*
X92674940Y-132907900D01*
X92526260Y-132922557D01*
X92416001Y-132953824D01*
X92334236Y-133007203D01*
X92271037Y-133088193D01*
X92239305Y-133149277D01*
X92230805Y-133168218D01*
X92223264Y-133188086D01*
X92216616Y-133211832D01*
X92210795Y-133242409D01*
X92205735Y-133282768D01*
X92201370Y-133335862D01*
X92197635Y-133404643D01*
X92194464Y-133492062D01*
X92191790Y-133601072D01*
X92189548Y-133734625D01*
X92187672Y-133895672D01*
X92186096Y-134087167D01*
X92184754Y-134312060D01*
X92183581Y-134573304D01*
X92182509Y-134873851D01*
X92181474Y-135216653D01*
X92180410Y-135604662D01*
X92179856Y-135812727D01*
X92173091Y-138362270D01*
X91919407Y-138355208D01*
X91665723Y-138348145D01*
X90115430Y-135800461D01*
X89916830Y-135474104D01*
X89724906Y-135158747D01*
X89541291Y-134857070D01*
X89367619Y-134571757D01*
X89205523Y-134305488D01*
X89056634Y-134060946D01*
X88922588Y-133840812D01*
X88805016Y-133647769D01*
X88705552Y-133484499D01*
X88625829Y-133353683D01*
X88567480Y-133258004D01*
X88532138Y-133200143D01*
X88521955Y-133183566D01*
X88514618Y-133173544D01*
X88508176Y-133170402D01*
X88502582Y-133177018D01*
X88497786Y-133196270D01*
X88493741Y-133231037D01*
X88490397Y-133284198D01*
X88487707Y-133358629D01*
X88485622Y-133457209D01*
X88484094Y-133582817D01*
X88483073Y-133738331D01*
X88482513Y-133926629D01*
X88482364Y-134150589D01*
X88482579Y-134413090D01*
X88483108Y-134717009D01*
X88483903Y-135065226D01*
X88484748Y-135396387D01*
X88485734Y-135788718D01*
X88486628Y-136134546D01*
X88487599Y-136436977D01*
X88488822Y-136699115D01*
X88490467Y-136924067D01*
X88492707Y-137114937D01*
X88495714Y-137274833D01*
X88499661Y-137406858D01*
X88504719Y-137514119D01*
X88511061Y-137599720D01*
X88518858Y-137666769D01*
X88528283Y-137718369D01*
X88539509Y-137757627D01*
X88552706Y-137787648D01*
X88568048Y-137811538D01*
X88585706Y-137832402D01*
X88605853Y-137853346D01*
X88621868Y-137870081D01*
X88676530Y-137917988D01*
X88743555Y-137952357D01*
X88833655Y-137976619D01*
X88957540Y-137994204D01*
X89031308Y-138001208D01*
X89224627Y-138017717D01*
X89210059Y-138348145D01*
X88224072Y-138354631D01*
X87238086Y-138361116D01*
X87238086Y-138020414D01*
X87439254Y-138003637D01*
X87593122Y-137984824D01*
X87707236Y-137955599D01*
X87790958Y-137912534D01*
X87853651Y-137852204D01*
X87853954Y-137851819D01*
X87873440Y-137826606D01*
X87890608Y-137801486D01*
X87905607Y-137773322D01*
X87918581Y-137738974D01*
X87929679Y-137695302D01*
X87939046Y-137639167D01*
X87946829Y-137567430D01*
X87953175Y-137476952D01*
X87958232Y-137364593D01*
X87962144Y-137227215D01*
X87965059Y-137061678D01*
X87967124Y-136864843D01*
X87968485Y-136633570D01*
X87969289Y-136364720D01*
X87969682Y-136055155D01*
X87969812Y-135701735D01*
X87969824Y-135371582D01*
X87969777Y-134989010D01*
X87969596Y-134652914D01*
X87969221Y-134360159D01*
X87968592Y-134107612D01*
X87967649Y-133892140D01*
X87966331Y-133710607D01*
X87964579Y-133559880D01*
X87962333Y-133436826D01*
X87959533Y-133338311D01*
X87956118Y-133261200D01*
X87952029Y-133202360D01*
X87947206Y-133158657D01*
X87941588Y-133126958D01*
X87935116Y-133104128D01*
X87927729Y-133087034D01*
X87925996Y-133083770D01*
X87876056Y-133014872D01*
X87808024Y-132965981D01*
X87713391Y-132933748D01*
X87583649Y-132914824D01*
X87479932Y-132908223D01*
X87238086Y-132897746D01*
X87238086Y-132556250D01*
X89036426Y-132557690D01*
X90337158Y-134704009D01*
X90518037Y-135002261D01*
X90691872Y-135288479D01*
X90856918Y-135559815D01*
X91011431Y-135813418D01*
X91153665Y-136046440D01*
X91281877Y-136256030D01*
X91394322Y-136439340D01*
X91489255Y-136593520D01*
X91564932Y-136715721D01*
X91619608Y-136803092D01*
X91651539Y-136852786D01*
X91659356Y-136863594D01*
X91662860Y-136841680D01*
X91665964Y-136773795D01*
X91668638Y-136663577D01*
X91670856Y-136514663D01*
X91672587Y-136330691D01*
X91673804Y-136115298D01*
X91674479Y-135872122D01*
X91674582Y-135604799D01*
X91674087Y-135316968D01*
X91673273Y-135082425D01*
X91671762Y-134739149D01*
X91670255Y-134441943D01*
X91668656Y-134187268D01*
X91666868Y-133971587D01*
X91664793Y-133791360D01*
X91662336Y-133643049D01*
X91659397Y-133523115D01*
X91655882Y-133428019D01*
X91651692Y-133354222D01*
X91646730Y-133298186D01*
X91640900Y-133256372D01*
X91634104Y-133225241D01*
X91626246Y-133201255D01*
X91621369Y-133189678D01*
X91549404Y-133067399D01*
X91457059Y-132981941D01*
X91337499Y-132929457D01*
X91183887Y-132906103D01*
X91113818Y-132904061D01*
X90933985Y-132903516D01*
X90933985Y-132556250D01*
X92893555Y-132556250D01*
X92893555Y-132897448D01*
D12*
%TO.C,RESET*%
X135906250Y-86693750D02*
X141906250Y-86693750D01*
X141906250Y-86693750D02*
X141906250Y-92693750D01*
X141906250Y-92693750D02*
X135906250Y-92693750D01*
X135906250Y-92693750D02*
X135906250Y-86693750D01*
X140702301Y-89693750D02*
G75*
G03*
X140702301Y-89693750I-1796051J0D01*
G01*
D11*
%TO.C,RE2*%
X141851000Y-146819000D02*
G75*
G03*
X141851000Y-146819000I-3000000J0D01*
G01*
X144751000Y-148819000D02*
X144751000Y-152919000D01*
X132951000Y-152919000D02*
X132951000Y-148819000D01*
X132951000Y-144819000D02*
X132951000Y-140719000D01*
X144751000Y-144819000D02*
X144751000Y-140719000D01*
X144751000Y-140719000D02*
X132951000Y-140719000D01*
X142651000Y-139319000D02*
X142951000Y-139019000D01*
X142951000Y-139019000D02*
X142951000Y-139619000D01*
X142951000Y-139619000D02*
X142651000Y-139319000D01*
X144751000Y-152919000D02*
X142351000Y-152919000D01*
X140151000Y-152919000D02*
X137551000Y-152919000D01*
X135351000Y-152919000D02*
X132951000Y-152919000D01*
X139351000Y-146819000D02*
X138351000Y-146819000D01*
X138851000Y-146319000D02*
X138851000Y-147319000D01*
%TO.C,RE1*%
X141851000Y-127896000D02*
G75*
G03*
X141851000Y-127896000I-3000000J0D01*
G01*
X144751000Y-129896000D02*
X144751000Y-133996000D01*
X132951000Y-133996000D02*
X132951000Y-129896000D01*
X132951000Y-125896000D02*
X132951000Y-121796000D01*
X144751000Y-125896000D02*
X144751000Y-121796000D01*
X144751000Y-121796000D02*
X132951000Y-121796000D01*
X142651000Y-120396000D02*
X142951000Y-120096000D01*
X142951000Y-120096000D02*
X142951000Y-120696000D01*
X142951000Y-120696000D02*
X142651000Y-120396000D01*
X144751000Y-133996000D02*
X142351000Y-133996000D01*
X140151000Y-133996000D02*
X137551000Y-133996000D01*
X135351000Y-133996000D02*
X132951000Y-133996000D01*
X139351000Y-127896000D02*
X138351000Y-127896000D01*
X138851000Y-127396000D02*
X138851000Y-128396000D01*
%TO.C,10k*%
X143205000Y-81756250D02*
X142255000Y-81756250D01*
X137465000Y-81756250D02*
X138415000Y-81756250D01*
X142255000Y-80836250D02*
X138415000Y-80836250D01*
X142255000Y-82676250D02*
X142255000Y-80836250D01*
X138415000Y-82676250D02*
X142255000Y-82676250D01*
X138415000Y-80836250D02*
X138415000Y-82676250D01*
%TO.C,OLED*%
X137777000Y-78292000D02*
X137777000Y-77597000D01*
X138462000Y-78292000D02*
X137777000Y-78292000D01*
X139147000Y-76988724D02*
X139147000Y-76902000D01*
X139147000Y-78292000D02*
X139147000Y-78205276D01*
X139147000Y-76902000D02*
X142022000Y-76902000D01*
X139147000Y-78292000D02*
X142022000Y-78292000D01*
X142022000Y-77202507D02*
X142022000Y-76902000D01*
X142022000Y-78292000D02*
X142022000Y-77991493D01*
%TO.C,100nF*%
X54101250Y-53354000D02*
X54101250Y-52096000D01*
X52261250Y-53354000D02*
X52261250Y-52096000D01*
X54596000Y-59657500D02*
X55854000Y-59657500D01*
X54596000Y-57817500D02*
X55854000Y-57817500D01*
X149002000Y-128665000D02*
X149002000Y-127407000D01*
X147162000Y-128665000D02*
X147162000Y-127407000D01*
X132574000Y-78263000D02*
X133832000Y-78263000D01*
X132574000Y-76423000D02*
X133832000Y-76423000D01*
%TO.C,D23*%
D12*
X145724714Y-84399380D02*
X145724714Y-83399380D01*
X145962809Y-83399380D01*
X146105666Y-83447000D01*
X146200904Y-83542238D01*
X146248523Y-83637476D01*
X146296142Y-83827952D01*
X146296142Y-83970809D01*
X146248523Y-84161285D01*
X146200904Y-84256523D01*
X146105666Y-84351761D01*
X145962809Y-84399380D01*
X145724714Y-84399380D01*
X146677095Y-83494619D02*
X146724714Y-83447000D01*
X146819952Y-83399380D01*
X147058047Y-83399380D01*
X147153285Y-83447000D01*
X147200904Y-83494619D01*
X147248523Y-83589857D01*
X147248523Y-83685095D01*
X147200904Y-83827952D01*
X146629476Y-84399380D01*
X147248523Y-84399380D01*
X147581857Y-83399380D02*
X148200904Y-83399380D01*
X147867571Y-83780333D01*
X148010428Y-83780333D01*
X148105666Y-83827952D01*
X148153285Y-83875571D01*
X148200904Y-83970809D01*
X148200904Y-84208904D01*
X148153285Y-84304142D01*
X148105666Y-84351761D01*
X148010428Y-84399380D01*
X147724714Y-84399380D01*
X147629476Y-84351761D01*
X147581857Y-84304142D01*
X149191380Y-85986904D02*
X148191380Y-85986904D01*
X149191380Y-85415476D02*
X148619952Y-85844047D01*
X148191380Y-85415476D02*
X148762809Y-85986904D01*
%TO.C,D22*%
X125023714Y-44775380D02*
X125023714Y-43775380D01*
X125261809Y-43775380D01*
X125404666Y-43823000D01*
X125499904Y-43918238D01*
X125547523Y-44013476D01*
X125595142Y-44203952D01*
X125595142Y-44346809D01*
X125547523Y-44537285D01*
X125499904Y-44632523D01*
X125404666Y-44727761D01*
X125261809Y-44775380D01*
X125023714Y-44775380D01*
X125976095Y-43870619D02*
X126023714Y-43823000D01*
X126118952Y-43775380D01*
X126357047Y-43775380D01*
X126452285Y-43823000D01*
X126499904Y-43870619D01*
X126547523Y-43965857D01*
X126547523Y-44061095D01*
X126499904Y-44203952D01*
X125928476Y-44775380D01*
X126547523Y-44775380D01*
X126928476Y-43870619D02*
X126976095Y-43823000D01*
X127071333Y-43775380D01*
X127309428Y-43775380D01*
X127404666Y-43823000D01*
X127452285Y-43870619D01*
X127499904Y-43965857D01*
X127499904Y-44061095D01*
X127452285Y-44203952D01*
X126880857Y-44775380D01*
X127499904Y-44775380D01*
X127531845Y-46489880D02*
X127531845Y-45489880D01*
X128103273Y-46489880D02*
X127674702Y-45918452D01*
X128103273Y-45489880D02*
X127531845Y-46061309D01*
%TO.C,D21*%
X105973714Y-44775380D02*
X105973714Y-43775380D01*
X106211809Y-43775380D01*
X106354666Y-43823000D01*
X106449904Y-43918238D01*
X106497523Y-44013476D01*
X106545142Y-44203952D01*
X106545142Y-44346809D01*
X106497523Y-44537285D01*
X106449904Y-44632523D01*
X106354666Y-44727761D01*
X106211809Y-44775380D01*
X105973714Y-44775380D01*
X106926095Y-43870619D02*
X106973714Y-43823000D01*
X107068952Y-43775380D01*
X107307047Y-43775380D01*
X107402285Y-43823000D01*
X107449904Y-43870619D01*
X107497523Y-43965857D01*
X107497523Y-44061095D01*
X107449904Y-44203952D01*
X106878476Y-44775380D01*
X107497523Y-44775380D01*
X108449904Y-44775380D02*
X107878476Y-44775380D01*
X108164190Y-44775380D02*
X108164190Y-43775380D01*
X108068952Y-43918238D01*
X107973714Y-44013476D01*
X107878476Y-44061095D01*
X108481845Y-46489880D02*
X108481845Y-45489880D01*
X109053273Y-46489880D02*
X108624702Y-45918452D01*
X109053273Y-45489880D02*
X108481845Y-46061309D01*
%TO.C,D20*%
X86923714Y-47823380D02*
X86923714Y-46823380D01*
X87161809Y-46823380D01*
X87304666Y-46871000D01*
X87399904Y-46966238D01*
X87447523Y-47061476D01*
X87495142Y-47251952D01*
X87495142Y-47394809D01*
X87447523Y-47585285D01*
X87399904Y-47680523D01*
X87304666Y-47775761D01*
X87161809Y-47823380D01*
X86923714Y-47823380D01*
X87876095Y-46918619D02*
X87923714Y-46871000D01*
X88018952Y-46823380D01*
X88257047Y-46823380D01*
X88352285Y-46871000D01*
X88399904Y-46918619D01*
X88447523Y-47013857D01*
X88447523Y-47109095D01*
X88399904Y-47251952D01*
X87828476Y-47823380D01*
X88447523Y-47823380D01*
X89066571Y-46823380D02*
X89161809Y-46823380D01*
X89257047Y-46871000D01*
X89304666Y-46918619D01*
X89352285Y-47013857D01*
X89399904Y-47204333D01*
X89399904Y-47442428D01*
X89352285Y-47632904D01*
X89304666Y-47728142D01*
X89257047Y-47775761D01*
X89161809Y-47823380D01*
X89066571Y-47823380D01*
X88971333Y-47775761D01*
X88923714Y-47728142D01*
X88876095Y-47632904D01*
X88828476Y-47442428D01*
X88828476Y-47204333D01*
X88876095Y-47013857D01*
X88923714Y-46918619D01*
X88971333Y-46871000D01*
X89066571Y-46823380D01*
X89527095Y-49664880D02*
X89527095Y-48664880D01*
X90098523Y-49664880D02*
X89669952Y-49093452D01*
X90098523Y-48664880D02*
X89527095Y-49236309D01*
%TO.C,D19*%
X67873714Y-47950380D02*
X67873714Y-46950380D01*
X68111809Y-46950380D01*
X68254666Y-46998000D01*
X68349904Y-47093238D01*
X68397523Y-47188476D01*
X68445142Y-47378952D01*
X68445142Y-47521809D01*
X68397523Y-47712285D01*
X68349904Y-47807523D01*
X68254666Y-47902761D01*
X68111809Y-47950380D01*
X67873714Y-47950380D01*
X69397523Y-47950380D02*
X68826095Y-47950380D01*
X69111809Y-47950380D02*
X69111809Y-46950380D01*
X69016571Y-47093238D01*
X68921333Y-47188476D01*
X68826095Y-47236095D01*
X69873714Y-47950380D02*
X70064190Y-47950380D01*
X70159428Y-47902761D01*
X70207047Y-47855142D01*
X70302285Y-47712285D01*
X70349904Y-47521809D01*
X70349904Y-47140857D01*
X70302285Y-47045619D01*
X70254666Y-46998000D01*
X70159428Y-46950380D01*
X69968952Y-46950380D01*
X69873714Y-46998000D01*
X69826095Y-47045619D01*
X69778476Y-47140857D01*
X69778476Y-47378952D01*
X69826095Y-47474190D01*
X69873714Y-47521809D01*
X69968952Y-47569428D01*
X70159428Y-47569428D01*
X70254666Y-47521809D01*
X70302285Y-47474190D01*
X70349904Y-47378952D01*
X70350095Y-49664880D02*
X70350095Y-48664880D01*
X70921523Y-49664880D02*
X70492952Y-49093452D01*
X70921523Y-48664880D02*
X70350095Y-49236309D01*
%TO.C,D18*%
X121848714Y-45537380D02*
X121848714Y-44537380D01*
X122086809Y-44537380D01*
X122229666Y-44585000D01*
X122324904Y-44680238D01*
X122372523Y-44775476D01*
X122420142Y-44965952D01*
X122420142Y-45108809D01*
X122372523Y-45299285D01*
X122324904Y-45394523D01*
X122229666Y-45489761D01*
X122086809Y-45537380D01*
X121848714Y-45537380D01*
X123372523Y-45537380D02*
X122801095Y-45537380D01*
X123086809Y-45537380D02*
X123086809Y-44537380D01*
X122991571Y-44680238D01*
X122896333Y-44775476D01*
X122801095Y-44823095D01*
X123943952Y-44965952D02*
X123848714Y-44918333D01*
X123801095Y-44870714D01*
X123753476Y-44775476D01*
X123753476Y-44727857D01*
X123801095Y-44632619D01*
X123848714Y-44585000D01*
X123943952Y-44537380D01*
X124134428Y-44537380D01*
X124229666Y-44585000D01*
X124277285Y-44632619D01*
X124324904Y-44727857D01*
X124324904Y-44775476D01*
X124277285Y-44870714D01*
X124229666Y-44918333D01*
X124134428Y-44965952D01*
X123943952Y-44965952D01*
X123848714Y-45013571D01*
X123801095Y-45061190D01*
X123753476Y-45156428D01*
X123753476Y-45346904D01*
X123801095Y-45442142D01*
X123848714Y-45489761D01*
X123943952Y-45537380D01*
X124134428Y-45537380D01*
X124229666Y-45489761D01*
X124277285Y-45442142D01*
X124324904Y-45346904D01*
X124324904Y-45156428D01*
X124277285Y-45061190D01*
X124229666Y-45013571D01*
X124134428Y-44965952D01*
X124356845Y-47283630D02*
X124356845Y-46283630D01*
X124928273Y-47283630D02*
X124499702Y-46712202D01*
X124928273Y-46283630D02*
X124356845Y-46855059D01*
%TO.C,D17*%
X102798714Y-45537380D02*
X102798714Y-44537380D01*
X103036809Y-44537380D01*
X103179666Y-44585000D01*
X103274904Y-44680238D01*
X103322523Y-44775476D01*
X103370142Y-44965952D01*
X103370142Y-45108809D01*
X103322523Y-45299285D01*
X103274904Y-45394523D01*
X103179666Y-45489761D01*
X103036809Y-45537380D01*
X102798714Y-45537380D01*
X104322523Y-45537380D02*
X103751095Y-45537380D01*
X104036809Y-45537380D02*
X104036809Y-44537380D01*
X103941571Y-44680238D01*
X103846333Y-44775476D01*
X103751095Y-44823095D01*
X104655857Y-44537380D02*
X105322523Y-44537380D01*
X104893952Y-45537380D01*
X105275095Y-47315380D02*
X105275095Y-46315380D01*
X105846523Y-47315380D02*
X105417952Y-46743952D01*
X105846523Y-46315380D02*
X105275095Y-46886809D01*
%TO.C,D16*%
X83748714Y-47061380D02*
X83748714Y-46061380D01*
X83986809Y-46061380D01*
X84129666Y-46109000D01*
X84224904Y-46204238D01*
X84272523Y-46299476D01*
X84320142Y-46489952D01*
X84320142Y-46632809D01*
X84272523Y-46823285D01*
X84224904Y-46918523D01*
X84129666Y-47013761D01*
X83986809Y-47061380D01*
X83748714Y-47061380D01*
X85272523Y-47061380D02*
X84701095Y-47061380D01*
X84986809Y-47061380D02*
X84986809Y-46061380D01*
X84891571Y-46204238D01*
X84796333Y-46299476D01*
X84701095Y-46347095D01*
X86129666Y-46061380D02*
X85939190Y-46061380D01*
X85843952Y-46109000D01*
X85796333Y-46156619D01*
X85701095Y-46299476D01*
X85653476Y-46489952D01*
X85653476Y-46870904D01*
X85701095Y-46966142D01*
X85748714Y-47013761D01*
X85843952Y-47061380D01*
X86034428Y-47061380D01*
X86129666Y-47013761D01*
X86177285Y-46966142D01*
X86224904Y-46870904D01*
X86224904Y-46632809D01*
X86177285Y-46537571D01*
X86129666Y-46489952D01*
X86034428Y-46442333D01*
X85843952Y-46442333D01*
X85748714Y-46489952D01*
X85701095Y-46537571D01*
X85653476Y-46632809D01*
X86225095Y-48871130D02*
X86225095Y-47871130D01*
X86796523Y-48871130D02*
X86367952Y-48299702D01*
X86796523Y-47871130D02*
X86225095Y-48442559D01*
%TO.C,D15*%
X64698714Y-47061380D02*
X64698714Y-46061380D01*
X64936809Y-46061380D01*
X65079666Y-46109000D01*
X65174904Y-46204238D01*
X65222523Y-46299476D01*
X65270142Y-46489952D01*
X65270142Y-46632809D01*
X65222523Y-46823285D01*
X65174904Y-46918523D01*
X65079666Y-47013761D01*
X64936809Y-47061380D01*
X64698714Y-47061380D01*
X66222523Y-47061380D02*
X65651095Y-47061380D01*
X65936809Y-47061380D02*
X65936809Y-46061380D01*
X65841571Y-46204238D01*
X65746333Y-46299476D01*
X65651095Y-46347095D01*
X67127285Y-46061380D02*
X66651095Y-46061380D01*
X66603476Y-46537571D01*
X66651095Y-46489952D01*
X66746333Y-46442333D01*
X66984428Y-46442333D01*
X67079666Y-46489952D01*
X67127285Y-46537571D01*
X67174904Y-46632809D01*
X67174904Y-46870904D01*
X67127285Y-46966142D01*
X67079666Y-47013761D01*
X66984428Y-47061380D01*
X66746333Y-47061380D01*
X66651095Y-47013761D01*
X66603476Y-46966142D01*
X67175095Y-48871130D02*
X67175095Y-47871130D01*
X67746523Y-48871130D02*
X67317952Y-48299702D01*
X67746523Y-47871130D02*
X67175095Y-48442559D01*
%TO.C,D14*%
X132135714Y-84399380D02*
X132135714Y-83399380D01*
X132373809Y-83399380D01*
X132516666Y-83447000D01*
X132611904Y-83542238D01*
X132659523Y-83637476D01*
X132707142Y-83827952D01*
X132707142Y-83970809D01*
X132659523Y-84161285D01*
X132611904Y-84256523D01*
X132516666Y-84351761D01*
X132373809Y-84399380D01*
X132135714Y-84399380D01*
X133659523Y-84399380D02*
X133088095Y-84399380D01*
X133373809Y-84399380D02*
X133373809Y-83399380D01*
X133278571Y-83542238D01*
X133183333Y-83637476D01*
X133088095Y-83685095D01*
X134516666Y-83732714D02*
X134516666Y-84399380D01*
X134278571Y-83351761D02*
X134040476Y-84066047D01*
X134659523Y-84066047D01*
X134612095Y-86177380D02*
X134612095Y-85177380D01*
X135183523Y-86177380D02*
X134754952Y-85605952D01*
X135183523Y-85177380D02*
X134612095Y-85748809D01*
%TO.C,D13*%
X118673714Y-46299380D02*
X118673714Y-45299380D01*
X118911809Y-45299380D01*
X119054666Y-45347000D01*
X119149904Y-45442238D01*
X119197523Y-45537476D01*
X119245142Y-45727952D01*
X119245142Y-45870809D01*
X119197523Y-46061285D01*
X119149904Y-46156523D01*
X119054666Y-46251761D01*
X118911809Y-46299380D01*
X118673714Y-46299380D01*
X120197523Y-46299380D02*
X119626095Y-46299380D01*
X119911809Y-46299380D02*
X119911809Y-45299380D01*
X119816571Y-45442238D01*
X119721333Y-45537476D01*
X119626095Y-45585095D01*
X120530857Y-45299380D02*
X121149904Y-45299380D01*
X120816571Y-45680333D01*
X120959428Y-45680333D01*
X121054666Y-45727952D01*
X121102285Y-45775571D01*
X121149904Y-45870809D01*
X121149904Y-46108904D01*
X121102285Y-46204142D01*
X121054666Y-46251761D01*
X120959428Y-46299380D01*
X120673714Y-46299380D01*
X120578476Y-46251761D01*
X120530857Y-46204142D01*
X121181845Y-48077380D02*
X121181845Y-47077380D01*
X121753273Y-48077380D02*
X121324702Y-47505952D01*
X121753273Y-47077380D02*
X121181845Y-47648809D01*
%TO.C,D12*%
X99623714Y-46299380D02*
X99623714Y-45299380D01*
X99861809Y-45299380D01*
X100004666Y-45347000D01*
X100099904Y-45442238D01*
X100147523Y-45537476D01*
X100195142Y-45727952D01*
X100195142Y-45870809D01*
X100147523Y-46061285D01*
X100099904Y-46156523D01*
X100004666Y-46251761D01*
X99861809Y-46299380D01*
X99623714Y-46299380D01*
X101147523Y-46299380D02*
X100576095Y-46299380D01*
X100861809Y-46299380D02*
X100861809Y-45299380D01*
X100766571Y-45442238D01*
X100671333Y-45537476D01*
X100576095Y-45585095D01*
X101528476Y-45394619D02*
X101576095Y-45347000D01*
X101671333Y-45299380D01*
X101909428Y-45299380D01*
X102004666Y-45347000D01*
X102052285Y-45394619D01*
X102099904Y-45489857D01*
X102099904Y-45585095D01*
X102052285Y-45727952D01*
X101480857Y-46299380D01*
X102099904Y-46299380D01*
X102100095Y-48077380D02*
X102100095Y-47077380D01*
X102671523Y-48077380D02*
X102242952Y-47505952D01*
X102671523Y-47077380D02*
X102100095Y-47648809D01*
%TO.C,D11*%
X80573714Y-46299380D02*
X80573714Y-45299380D01*
X80811809Y-45299380D01*
X80954666Y-45347000D01*
X81049904Y-45442238D01*
X81097523Y-45537476D01*
X81145142Y-45727952D01*
X81145142Y-45870809D01*
X81097523Y-46061285D01*
X81049904Y-46156523D01*
X80954666Y-46251761D01*
X80811809Y-46299380D01*
X80573714Y-46299380D01*
X82097523Y-46299380D02*
X81526095Y-46299380D01*
X81811809Y-46299380D02*
X81811809Y-45299380D01*
X81716571Y-45442238D01*
X81621333Y-45537476D01*
X81526095Y-45585095D01*
X83049904Y-46299380D02*
X82478476Y-46299380D01*
X82764190Y-46299380D02*
X82764190Y-45299380D01*
X82668952Y-45442238D01*
X82573714Y-45537476D01*
X82478476Y-45585095D01*
X83050095Y-48077380D02*
X83050095Y-47077380D01*
X83621523Y-48077380D02*
X83192952Y-47505952D01*
X83621523Y-47077380D02*
X83050095Y-47648809D01*
%TO.C,D10*%
X61523714Y-46299380D02*
X61523714Y-45299380D01*
X61761809Y-45299380D01*
X61904666Y-45347000D01*
X61999904Y-45442238D01*
X62047523Y-45537476D01*
X62095142Y-45727952D01*
X62095142Y-45870809D01*
X62047523Y-46061285D01*
X61999904Y-46156523D01*
X61904666Y-46251761D01*
X61761809Y-46299380D01*
X61523714Y-46299380D01*
X63047523Y-46299380D02*
X62476095Y-46299380D01*
X62761809Y-46299380D02*
X62761809Y-45299380D01*
X62666571Y-45442238D01*
X62571333Y-45537476D01*
X62476095Y-45585095D01*
X63666571Y-45299380D02*
X63761809Y-45299380D01*
X63857047Y-45347000D01*
X63904666Y-45394619D01*
X63952285Y-45489857D01*
X63999904Y-45680333D01*
X63999904Y-45918428D01*
X63952285Y-46108904D01*
X63904666Y-46204142D01*
X63857047Y-46251761D01*
X63761809Y-46299380D01*
X63666571Y-46299380D01*
X63571333Y-46251761D01*
X63523714Y-46204142D01*
X63476095Y-46108904D01*
X63428476Y-45918428D01*
X63428476Y-45680333D01*
X63476095Y-45489857D01*
X63523714Y-45394619D01*
X63571333Y-45347000D01*
X63666571Y-45299380D01*
X64000095Y-48077380D02*
X64000095Y-47077380D01*
X64571523Y-48077380D02*
X64142952Y-47505952D01*
X64571523Y-47077380D02*
X64000095Y-47648809D01*
%TO.C,D9*%
X130071904Y-84399380D02*
X130071904Y-83399380D01*
X130310000Y-83399380D01*
X130452857Y-83447000D01*
X130548095Y-83542238D01*
X130595714Y-83637476D01*
X130643333Y-83827952D01*
X130643333Y-83970809D01*
X130595714Y-84161285D01*
X130548095Y-84256523D01*
X130452857Y-84351761D01*
X130310000Y-84399380D01*
X130071904Y-84399380D01*
X131119523Y-84399380D02*
X131310000Y-84399380D01*
X131405238Y-84351761D01*
X131452857Y-84304142D01*
X131548095Y-84161285D01*
X131595714Y-83970809D01*
X131595714Y-83589857D01*
X131548095Y-83494619D01*
X131500476Y-83447000D01*
X131405238Y-83399380D01*
X131214761Y-83399380D01*
X131119523Y-83447000D01*
X131071904Y-83494619D01*
X131024285Y-83589857D01*
X131024285Y-83827952D01*
X131071904Y-83923190D01*
X131119523Y-83970809D01*
X131214761Y-84018428D01*
X131405238Y-84018428D01*
X131500476Y-83970809D01*
X131548095Y-83923190D01*
X131595714Y-83827952D01*
X128643095Y-86177380D02*
X128643095Y-85177380D01*
X129214523Y-86177380D02*
X128785952Y-85605952D01*
X129214523Y-85177380D02*
X128643095Y-85748809D01*
%TO.C,D8*%
X115974904Y-47188380D02*
X115974904Y-46188380D01*
X116213000Y-46188380D01*
X116355857Y-46236000D01*
X116451095Y-46331238D01*
X116498714Y-46426476D01*
X116546333Y-46616952D01*
X116546333Y-46759809D01*
X116498714Y-46950285D01*
X116451095Y-47045523D01*
X116355857Y-47140761D01*
X116213000Y-47188380D01*
X115974904Y-47188380D01*
X117117761Y-46616952D02*
X117022523Y-46569333D01*
X116974904Y-46521714D01*
X116927285Y-46426476D01*
X116927285Y-46378857D01*
X116974904Y-46283619D01*
X117022523Y-46236000D01*
X117117761Y-46188380D01*
X117308238Y-46188380D01*
X117403476Y-46236000D01*
X117451095Y-46283619D01*
X117498714Y-46378857D01*
X117498714Y-46426476D01*
X117451095Y-46521714D01*
X117403476Y-46569333D01*
X117308238Y-46616952D01*
X117117761Y-46616952D01*
X117022523Y-46664571D01*
X116974904Y-46712190D01*
X116927285Y-46807428D01*
X116927285Y-46997904D01*
X116974904Y-47093142D01*
X117022523Y-47140761D01*
X117117761Y-47188380D01*
X117308238Y-47188380D01*
X117403476Y-47140761D01*
X117451095Y-47093142D01*
X117498714Y-46997904D01*
X117498714Y-46807428D01*
X117451095Y-46712190D01*
X117403476Y-46664571D01*
X117308238Y-46616952D01*
X118006845Y-48871130D02*
X118006845Y-47871130D01*
X118578273Y-48871130D02*
X118149702Y-48299702D01*
X118578273Y-47871130D02*
X118006845Y-48442559D01*
%TO.C,D7*%
X96924904Y-47188380D02*
X96924904Y-46188380D01*
X97163000Y-46188380D01*
X97305857Y-46236000D01*
X97401095Y-46331238D01*
X97448714Y-46426476D01*
X97496333Y-46616952D01*
X97496333Y-46759809D01*
X97448714Y-46950285D01*
X97401095Y-47045523D01*
X97305857Y-47140761D01*
X97163000Y-47188380D01*
X96924904Y-47188380D01*
X97829666Y-46188380D02*
X98496333Y-46188380D01*
X98067761Y-47188380D01*
X98925095Y-48839380D02*
X98925095Y-47839380D01*
X99496523Y-48839380D02*
X99067952Y-48267952D01*
X99496523Y-47839380D02*
X98925095Y-48410809D01*
%TO.C,D6*%
X77874904Y-45537380D02*
X77874904Y-44537380D01*
X78113000Y-44537380D01*
X78255857Y-44585000D01*
X78351095Y-44680238D01*
X78398714Y-44775476D01*
X78446333Y-44965952D01*
X78446333Y-45108809D01*
X78398714Y-45299285D01*
X78351095Y-45394523D01*
X78255857Y-45489761D01*
X78113000Y-45537380D01*
X77874904Y-45537380D01*
X79303476Y-44537380D02*
X79113000Y-44537380D01*
X79017761Y-44585000D01*
X78970142Y-44632619D01*
X78874904Y-44775476D01*
X78827285Y-44965952D01*
X78827285Y-45346904D01*
X78874904Y-45442142D01*
X78922523Y-45489761D01*
X79017761Y-45537380D01*
X79208238Y-45537380D01*
X79303476Y-45489761D01*
X79351095Y-45442142D01*
X79398714Y-45346904D01*
X79398714Y-45108809D01*
X79351095Y-45013571D01*
X79303476Y-44965952D01*
X79208238Y-44918333D01*
X79017761Y-44918333D01*
X78922523Y-44965952D01*
X78874904Y-45013571D01*
X78827285Y-45108809D01*
X79875095Y-47315380D02*
X79875095Y-46315380D01*
X80446523Y-47315380D02*
X80017952Y-46743952D01*
X80446523Y-46315380D02*
X79875095Y-46886809D01*
%TO.C,D5*%
X58824904Y-45537380D02*
X58824904Y-44537380D01*
X59063000Y-44537380D01*
X59205857Y-44585000D01*
X59301095Y-44680238D01*
X59348714Y-44775476D01*
X59396333Y-44965952D01*
X59396333Y-45108809D01*
X59348714Y-45299285D01*
X59301095Y-45394523D01*
X59205857Y-45489761D01*
X59063000Y-45537380D01*
X58824904Y-45537380D01*
X60301095Y-44537380D02*
X59824904Y-44537380D01*
X59777285Y-45013571D01*
X59824904Y-44965952D01*
X59920142Y-44918333D01*
X60158238Y-44918333D01*
X60253476Y-44965952D01*
X60301095Y-45013571D01*
X60348714Y-45108809D01*
X60348714Y-45346904D01*
X60301095Y-45442142D01*
X60253476Y-45489761D01*
X60158238Y-45537380D01*
X59920142Y-45537380D01*
X59824904Y-45489761D01*
X59777285Y-45442142D01*
X60825095Y-47188380D02*
X60825095Y-46188380D01*
X61396523Y-47188380D02*
X60967952Y-46616952D01*
X61396523Y-46188380D02*
X60825095Y-46759809D01*
%TO.C,D4*%
X112799904Y-47950380D02*
X112799904Y-46950380D01*
X113038000Y-46950380D01*
X113180857Y-46998000D01*
X113276095Y-47093238D01*
X113323714Y-47188476D01*
X113371333Y-47378952D01*
X113371333Y-47521809D01*
X113323714Y-47712285D01*
X113276095Y-47807523D01*
X113180857Y-47902761D01*
X113038000Y-47950380D01*
X112799904Y-47950380D01*
X114228476Y-47283714D02*
X114228476Y-47950380D01*
X113990380Y-46902761D02*
X113752285Y-47617047D01*
X114371333Y-47617047D01*
X114831845Y-49664880D02*
X114831845Y-48664880D01*
X115403273Y-49664880D02*
X114974702Y-49093452D01*
X115403273Y-48664880D02*
X114831845Y-49236309D01*
%TO.C,D3*%
X93749904Y-47950380D02*
X93749904Y-46950380D01*
X93988000Y-46950380D01*
X94130857Y-46998000D01*
X94226095Y-47093238D01*
X94273714Y-47188476D01*
X94321333Y-47378952D01*
X94321333Y-47521809D01*
X94273714Y-47712285D01*
X94226095Y-47807523D01*
X94130857Y-47902761D01*
X93988000Y-47950380D01*
X93749904Y-47950380D01*
X94654666Y-46950380D02*
X95273714Y-46950380D01*
X94940380Y-47331333D01*
X95083238Y-47331333D01*
X95178476Y-47378952D01*
X95226095Y-47426571D01*
X95273714Y-47521809D01*
X95273714Y-47759904D01*
X95226095Y-47855142D01*
X95178476Y-47902761D01*
X95083238Y-47950380D01*
X94797523Y-47950380D01*
X94702285Y-47902761D01*
X94654666Y-47855142D01*
X95750095Y-49728380D02*
X95750095Y-48728380D01*
X96321523Y-49728380D02*
X95892952Y-49156952D01*
X96321523Y-48728380D02*
X95750095Y-49299809D01*
%TO.C,D2*%
X74699904Y-44775380D02*
X74699904Y-43775380D01*
X74938000Y-43775380D01*
X75080857Y-43823000D01*
X75176095Y-43918238D01*
X75223714Y-44013476D01*
X75271333Y-44203952D01*
X75271333Y-44346809D01*
X75223714Y-44537285D01*
X75176095Y-44632523D01*
X75080857Y-44727761D01*
X74938000Y-44775380D01*
X74699904Y-44775380D01*
X75652285Y-43870619D02*
X75699904Y-43823000D01*
X75795142Y-43775380D01*
X76033238Y-43775380D01*
X76128476Y-43823000D01*
X76176095Y-43870619D01*
X76223714Y-43965857D01*
X76223714Y-44061095D01*
X76176095Y-44203952D01*
X75604666Y-44775380D01*
X76223714Y-44775380D01*
X76700095Y-46426380D02*
X76700095Y-45426380D01*
X77271523Y-46426380D02*
X76842952Y-45854952D01*
X77271523Y-45426380D02*
X76700095Y-45997809D01*
%TO.C,D1*%
X55618154Y-44902380D02*
X55618154Y-43902380D01*
X55856250Y-43902380D01*
X55999107Y-43950000D01*
X56094345Y-44045238D01*
X56141964Y-44140476D01*
X56189583Y-44330952D01*
X56189583Y-44473809D01*
X56141964Y-44664285D01*
X56094345Y-44759523D01*
X55999107Y-44854761D01*
X55856250Y-44902380D01*
X55618154Y-44902380D01*
X57141964Y-44902380D02*
X56570535Y-44902380D01*
X56856250Y-44902380D02*
X56856250Y-43902380D01*
X56761011Y-44045238D01*
X56665773Y-44140476D01*
X56570535Y-44188095D01*
X57523095Y-46680380D02*
X57523095Y-45680380D01*
X58094523Y-46680380D02*
X57665952Y-46108952D01*
X58094523Y-45680380D02*
X57523095Y-46251809D01*
%TO.C,7*%
X52879666Y-153097380D02*
X53546333Y-153097380D01*
X53117761Y-154097380D01*
%TO.C,6*%
X148653476Y-152589380D02*
X148463000Y-152589380D01*
X148367761Y-152637000D01*
X148320142Y-152684619D01*
X148224904Y-152827476D01*
X148177285Y-153017952D01*
X148177285Y-153398904D01*
X148224904Y-153494142D01*
X148272523Y-153541761D01*
X148367761Y-153589380D01*
X148558238Y-153589380D01*
X148653476Y-153541761D01*
X148701095Y-153494142D01*
X148748714Y-153398904D01*
X148748714Y-153160809D01*
X148701095Y-153065571D01*
X148653476Y-153017952D01*
X148558238Y-152970333D01*
X148367761Y-152970333D01*
X148272523Y-153017952D01*
X148224904Y-153065571D01*
X148177285Y-153160809D01*
%TO.C,1*%
X56641964Y-41727380D02*
X56070535Y-41727380D01*
X56356250Y-41727380D02*
X56356250Y-40727380D01*
X56261011Y-40870238D01*
X56165773Y-40965476D01*
X56070535Y-41013095D01*
%TO.C,2*%
X75152285Y-58602619D02*
X75199904Y-58555000D01*
X75295142Y-58507380D01*
X75533238Y-58507380D01*
X75628476Y-58555000D01*
X75676095Y-58602619D01*
X75723714Y-58697857D01*
X75723714Y-58793095D01*
X75676095Y-58935952D01*
X75104666Y-59507380D01*
X75723714Y-59507380D01*
%TO.C,3*%
X106473666Y-58380380D02*
X107092714Y-58380380D01*
X106759380Y-58761333D01*
X106902238Y-58761333D01*
X106997476Y-58808952D01*
X107045095Y-58856571D01*
X107092714Y-58951809D01*
X107092714Y-59189904D01*
X107045095Y-59285142D01*
X106997476Y-59332761D01*
X106902238Y-59380380D01*
X106616523Y-59380380D01*
X106521285Y-59332761D01*
X106473666Y-59285142D01*
%TO.C,4*%
X125666476Y-41822714D02*
X125666476Y-42489380D01*
X125428380Y-41441761D02*
X125190285Y-42156047D01*
X125809333Y-42156047D01*
%TO.C,5*%
X145526095Y-41489380D02*
X145049904Y-41489380D01*
X145002285Y-41965571D01*
X145049904Y-41917952D01*
X145145142Y-41870333D01*
X145383238Y-41870333D01*
X145478476Y-41917952D01*
X145526095Y-41965571D01*
X145573714Y-42060809D01*
X145573714Y-42298904D01*
X145526095Y-42394142D01*
X145478476Y-42441761D01*
X145383238Y-42489380D01*
X145145142Y-42489380D01*
X145049904Y-42441761D01*
X145002285Y-42394142D01*
%TO.C,RESET*%
X137453869Y-94210130D02*
X137120535Y-93733940D01*
X136882440Y-94210130D02*
X136882440Y-93210130D01*
X137263392Y-93210130D01*
X137358630Y-93257750D01*
X137406250Y-93305369D01*
X137453869Y-93400607D01*
X137453869Y-93543464D01*
X137406250Y-93638702D01*
X137358630Y-93686321D01*
X137263392Y-93733940D01*
X136882440Y-93733940D01*
X137882440Y-93686321D02*
X138215773Y-93686321D01*
X138358630Y-94210130D02*
X137882440Y-94210130D01*
X137882440Y-93210130D01*
X138358630Y-93210130D01*
X138739583Y-94162511D02*
X138882440Y-94210130D01*
X139120535Y-94210130D01*
X139215773Y-94162511D01*
X139263392Y-94114892D01*
X139311011Y-94019654D01*
X139311011Y-93924416D01*
X139263392Y-93829178D01*
X139215773Y-93781559D01*
X139120535Y-93733940D01*
X138930059Y-93686321D01*
X138834821Y-93638702D01*
X138787202Y-93591083D01*
X138739583Y-93495845D01*
X138739583Y-93400607D01*
X138787202Y-93305369D01*
X138834821Y-93257750D01*
X138930059Y-93210130D01*
X139168154Y-93210130D01*
X139311011Y-93257750D01*
X139739583Y-93686321D02*
X140072916Y-93686321D01*
X140215773Y-94210130D02*
X139739583Y-94210130D01*
X139739583Y-93210130D01*
X140215773Y-93210130D01*
X140501488Y-93210130D02*
X141072916Y-93210130D01*
X140787202Y-94210130D02*
X140787202Y-93210130D01*
%TO.C,RE2*%
X146503380Y-142738047D02*
X146027190Y-143071380D01*
X146503380Y-143309476D02*
X145503380Y-143309476D01*
X145503380Y-142928523D01*
X145551000Y-142833285D01*
X145598619Y-142785666D01*
X145693857Y-142738047D01*
X145836714Y-142738047D01*
X145931952Y-142785666D01*
X145979571Y-142833285D01*
X146027190Y-142928523D01*
X146027190Y-143309476D01*
X145979571Y-142309476D02*
X145979571Y-141976142D01*
X146503380Y-141833285D02*
X146503380Y-142309476D01*
X145503380Y-142309476D01*
X145503380Y-141833285D01*
X145598619Y-141452333D02*
X145551000Y-141404714D01*
X145503380Y-141309476D01*
X145503380Y-141071380D01*
X145551000Y-140976142D01*
X145598619Y-140928523D01*
X145693857Y-140880904D01*
X145789095Y-140880904D01*
X145931952Y-140928523D01*
X146503380Y-141499952D01*
X146503380Y-140880904D01*
%TO.C,RE1*%
X146503380Y-123815047D02*
X146027190Y-124148380D01*
X146503380Y-124386476D02*
X145503380Y-124386476D01*
X145503380Y-124005523D01*
X145551000Y-123910285D01*
X145598619Y-123862666D01*
X145693857Y-123815047D01*
X145836714Y-123815047D01*
X145931952Y-123862666D01*
X145979571Y-123910285D01*
X146027190Y-124005523D01*
X146027190Y-124386476D01*
X145979571Y-123386476D02*
X145979571Y-123053142D01*
X146503380Y-122910285D02*
X146503380Y-123386476D01*
X145503380Y-123386476D01*
X145503380Y-122910285D01*
X146503380Y-121957904D02*
X146503380Y-122529333D01*
X146503380Y-122243619D02*
X145503380Y-122243619D01*
X145646238Y-122338857D01*
X145741476Y-122434095D01*
X145789095Y-122529333D01*
%TO.C,10k*%
X139739761Y-80288630D02*
X139168333Y-80288630D01*
X139454047Y-80288630D02*
X139454047Y-79288630D01*
X139358809Y-79431488D01*
X139263571Y-79526726D01*
X139168333Y-79574345D01*
X140358809Y-79288630D02*
X140454047Y-79288630D01*
X140549285Y-79336250D01*
X140596904Y-79383869D01*
X140644523Y-79479107D01*
X140692142Y-79669583D01*
X140692142Y-79907678D01*
X140644523Y-80098154D01*
X140596904Y-80193392D01*
X140549285Y-80241011D01*
X140454047Y-80288630D01*
X140358809Y-80288630D01*
X140263571Y-80241011D01*
X140215952Y-80193392D01*
X140168333Y-80098154D01*
X140120714Y-79907678D01*
X140120714Y-79669583D01*
X140168333Y-79479107D01*
X140215952Y-79383869D01*
X140263571Y-79336250D01*
X140358809Y-79288630D01*
X141120714Y-80288630D02*
X141120714Y-79288630D01*
X141215952Y-79907678D02*
X141501666Y-80288630D01*
X141501666Y-79621964D02*
X141120714Y-80002916D01*
%TO.C,OLED*%
X138501619Y-75271380D02*
X138692095Y-75271380D01*
X138787333Y-75319000D01*
X138882571Y-75414238D01*
X138930190Y-75604714D01*
X138930190Y-75938047D01*
X138882571Y-76128523D01*
X138787333Y-76223761D01*
X138692095Y-76271380D01*
X138501619Y-76271380D01*
X138406380Y-76223761D01*
X138311142Y-76128523D01*
X138263523Y-75938047D01*
X138263523Y-75604714D01*
X138311142Y-75414238D01*
X138406380Y-75319000D01*
X138501619Y-75271380D01*
X139834952Y-76271380D02*
X139358761Y-76271380D01*
X139358761Y-75271380D01*
X140168285Y-75747571D02*
X140501619Y-75747571D01*
X140644476Y-76271380D02*
X140168285Y-76271380D01*
X140168285Y-75271380D01*
X140644476Y-75271380D01*
X141073047Y-76271380D02*
X141073047Y-75271380D01*
X141311142Y-75271380D01*
X141454000Y-75319000D01*
X141549238Y-75414238D01*
X141596857Y-75509476D01*
X141644476Y-75699952D01*
X141644476Y-75842809D01*
X141596857Y-76033285D01*
X141549238Y-76128523D01*
X141454000Y-76223761D01*
X141311142Y-76271380D01*
X141073047Y-76271380D01*
%TO.C,100nF*%
X53538380Y-49553619D02*
X53538380Y-50125047D01*
X53538380Y-49839333D02*
X52538380Y-49839333D01*
X52681238Y-49934571D01*
X52776476Y-50029809D01*
X52824095Y-50125047D01*
X52538380Y-48934571D02*
X52538380Y-48839333D01*
X52586000Y-48744095D01*
X52633619Y-48696476D01*
X52728857Y-48648857D01*
X52919333Y-48601238D01*
X53157428Y-48601238D01*
X53347904Y-48648857D01*
X53443142Y-48696476D01*
X53490761Y-48744095D01*
X53538380Y-48839333D01*
X53538380Y-48934571D01*
X53490761Y-49029809D01*
X53443142Y-49077428D01*
X53347904Y-49125047D01*
X53157428Y-49172666D01*
X52919333Y-49172666D01*
X52728857Y-49125047D01*
X52633619Y-49077428D01*
X52586000Y-49029809D01*
X52538380Y-48934571D01*
X52538380Y-47982190D02*
X52538380Y-47886952D01*
X52586000Y-47791714D01*
X52633619Y-47744095D01*
X52728857Y-47696476D01*
X52919333Y-47648857D01*
X53157428Y-47648857D01*
X53347904Y-47696476D01*
X53443142Y-47744095D01*
X53490761Y-47791714D01*
X53538380Y-47886952D01*
X53538380Y-47982190D01*
X53490761Y-48077428D01*
X53443142Y-48125047D01*
X53347904Y-48172666D01*
X53157428Y-48220285D01*
X52919333Y-48220285D01*
X52728857Y-48172666D01*
X52633619Y-48125047D01*
X52586000Y-48077428D01*
X52538380Y-47982190D01*
X52871714Y-47220285D02*
X53538380Y-47220285D01*
X52966952Y-47220285D02*
X52919333Y-47172666D01*
X52871714Y-47077428D01*
X52871714Y-46934571D01*
X52919333Y-46839333D01*
X53014571Y-46791714D01*
X53538380Y-46791714D01*
X53014571Y-45982190D02*
X53014571Y-46315523D01*
X53538380Y-46315523D02*
X52538380Y-46315523D01*
X52538380Y-45839333D01*
X53677380Y-57139880D02*
X53105952Y-57139880D01*
X53391666Y-57139880D02*
X53391666Y-56139880D01*
X53296428Y-56282738D01*
X53201190Y-56377976D01*
X53105952Y-56425595D01*
X54296428Y-56139880D02*
X54391666Y-56139880D01*
X54486904Y-56187500D01*
X54534523Y-56235119D01*
X54582142Y-56330357D01*
X54629761Y-56520833D01*
X54629761Y-56758928D01*
X54582142Y-56949404D01*
X54534523Y-57044642D01*
X54486904Y-57092261D01*
X54391666Y-57139880D01*
X54296428Y-57139880D01*
X54201190Y-57092261D01*
X54153571Y-57044642D01*
X54105952Y-56949404D01*
X54058333Y-56758928D01*
X54058333Y-56520833D01*
X54105952Y-56330357D01*
X54153571Y-56235119D01*
X54201190Y-56187500D01*
X54296428Y-56139880D01*
X55248809Y-56139880D02*
X55344047Y-56139880D01*
X55439285Y-56187500D01*
X55486904Y-56235119D01*
X55534523Y-56330357D01*
X55582142Y-56520833D01*
X55582142Y-56758928D01*
X55534523Y-56949404D01*
X55486904Y-57044642D01*
X55439285Y-57092261D01*
X55344047Y-57139880D01*
X55248809Y-57139880D01*
X55153571Y-57092261D01*
X55105952Y-57044642D01*
X55058333Y-56949404D01*
X55010714Y-56758928D01*
X55010714Y-56520833D01*
X55058333Y-56330357D01*
X55105952Y-56235119D01*
X55153571Y-56187500D01*
X55248809Y-56139880D01*
X56010714Y-56473214D02*
X56010714Y-57139880D01*
X56010714Y-56568452D02*
X56058333Y-56520833D01*
X56153571Y-56473214D01*
X56296428Y-56473214D01*
X56391666Y-56520833D01*
X56439285Y-56616071D01*
X56439285Y-57139880D01*
X57248809Y-56616071D02*
X56915476Y-56616071D01*
X56915476Y-57139880D02*
X56915476Y-56139880D01*
X57391666Y-56139880D01*
X148534380Y-124991619D02*
X148534380Y-125563047D01*
X148534380Y-125277333D02*
X147534380Y-125277333D01*
X147677238Y-125372571D01*
X147772476Y-125467809D01*
X147820095Y-125563047D01*
X147534380Y-124372571D02*
X147534380Y-124277333D01*
X147582000Y-124182095D01*
X147629619Y-124134476D01*
X147724857Y-124086857D01*
X147915333Y-124039238D01*
X148153428Y-124039238D01*
X148343904Y-124086857D01*
X148439142Y-124134476D01*
X148486761Y-124182095D01*
X148534380Y-124277333D01*
X148534380Y-124372571D01*
X148486761Y-124467809D01*
X148439142Y-124515428D01*
X148343904Y-124563047D01*
X148153428Y-124610666D01*
X147915333Y-124610666D01*
X147724857Y-124563047D01*
X147629619Y-124515428D01*
X147582000Y-124467809D01*
X147534380Y-124372571D01*
X147534380Y-123420190D02*
X147534380Y-123324952D01*
X147582000Y-123229714D01*
X147629619Y-123182095D01*
X147724857Y-123134476D01*
X147915333Y-123086857D01*
X148153428Y-123086857D01*
X148343904Y-123134476D01*
X148439142Y-123182095D01*
X148486761Y-123229714D01*
X148534380Y-123324952D01*
X148534380Y-123420190D01*
X148486761Y-123515428D01*
X148439142Y-123563047D01*
X148343904Y-123610666D01*
X148153428Y-123658285D01*
X147915333Y-123658285D01*
X147724857Y-123610666D01*
X147629619Y-123563047D01*
X147582000Y-123515428D01*
X147534380Y-123420190D01*
X147867714Y-122658285D02*
X148534380Y-122658285D01*
X147962952Y-122658285D02*
X147915333Y-122610666D01*
X147867714Y-122515428D01*
X147867714Y-122372571D01*
X147915333Y-122277333D01*
X148010571Y-122229714D01*
X148534380Y-122229714D01*
X148010571Y-121420190D02*
X148010571Y-121753523D01*
X148534380Y-121753523D02*
X147534380Y-121753523D01*
X147534380Y-121277333D01*
X131675380Y-79827380D02*
X131103952Y-79827380D01*
X131389666Y-79827380D02*
X131389666Y-78827380D01*
X131294428Y-78970238D01*
X131199190Y-79065476D01*
X131103952Y-79113095D01*
X132294428Y-78827380D02*
X132389666Y-78827380D01*
X132484904Y-78875000D01*
X132532523Y-78922619D01*
X132580142Y-79017857D01*
X132627761Y-79208333D01*
X132627761Y-79446428D01*
X132580142Y-79636904D01*
X132532523Y-79732142D01*
X132484904Y-79779761D01*
X132389666Y-79827380D01*
X132294428Y-79827380D01*
X132199190Y-79779761D01*
X132151571Y-79732142D01*
X132103952Y-79636904D01*
X132056333Y-79446428D01*
X132056333Y-79208333D01*
X132103952Y-79017857D01*
X132151571Y-78922619D01*
X132199190Y-78875000D01*
X132294428Y-78827380D01*
X133246809Y-78827380D02*
X133342047Y-78827380D01*
X133437285Y-78875000D01*
X133484904Y-78922619D01*
X133532523Y-79017857D01*
X133580142Y-79208333D01*
X133580142Y-79446428D01*
X133532523Y-79636904D01*
X133484904Y-79732142D01*
X133437285Y-79779761D01*
X133342047Y-79827380D01*
X133246809Y-79827380D01*
X133151571Y-79779761D01*
X133103952Y-79732142D01*
X133056333Y-79636904D01*
X133008714Y-79446428D01*
X133008714Y-79208333D01*
X133056333Y-79017857D01*
X133103952Y-78922619D01*
X133151571Y-78875000D01*
X133246809Y-78827380D01*
X134008714Y-79160714D02*
X134008714Y-79827380D01*
X134008714Y-79255952D02*
X134056333Y-79208333D01*
X134151571Y-79160714D01*
X134294428Y-79160714D01*
X134389666Y-79208333D01*
X134437285Y-79303571D01*
X134437285Y-79827380D01*
X135246809Y-79303571D02*
X134913476Y-79303571D01*
X134913476Y-79827380D02*
X134913476Y-78827380D01*
X135389666Y-78827380D01*
%TO.C,PRO MICRO BOARD*%
D13*
X135534400Y-43773271D02*
X135534400Y-43163671D01*
X135766628Y-43163671D01*
X135824685Y-43192700D01*
X135853714Y-43221728D01*
X135882742Y-43279785D01*
X135882742Y-43366871D01*
X135853714Y-43424928D01*
X135824685Y-43453957D01*
X135766628Y-43482985D01*
X135534400Y-43482985D01*
X136492342Y-43773271D02*
X136289142Y-43482985D01*
X136144000Y-43773271D02*
X136144000Y-43163671D01*
X136376228Y-43163671D01*
X136434285Y-43192700D01*
X136463314Y-43221728D01*
X136492342Y-43279785D01*
X136492342Y-43366871D01*
X136463314Y-43424928D01*
X136434285Y-43453957D01*
X136376228Y-43482985D01*
X136144000Y-43482985D01*
X136869714Y-43163671D02*
X136985828Y-43163671D01*
X137043885Y-43192700D01*
X137101942Y-43250757D01*
X137130971Y-43366871D01*
X137130971Y-43570071D01*
X137101942Y-43686185D01*
X137043885Y-43744242D01*
X136985828Y-43773271D01*
X136869714Y-43773271D01*
X136811657Y-43744242D01*
X136753600Y-43686185D01*
X136724571Y-43570071D01*
X136724571Y-43366871D01*
X136753600Y-43250757D01*
X136811657Y-43192700D01*
X136869714Y-43163671D01*
X137856685Y-43773271D02*
X137856685Y-43163671D01*
X138059885Y-43599100D01*
X138263085Y-43163671D01*
X138263085Y-43773271D01*
X138553371Y-43773271D02*
X138553371Y-43163671D01*
X139192000Y-43715214D02*
X139162971Y-43744242D01*
X139075885Y-43773271D01*
X139017828Y-43773271D01*
X138930742Y-43744242D01*
X138872685Y-43686185D01*
X138843657Y-43628128D01*
X138814628Y-43512014D01*
X138814628Y-43424928D01*
X138843657Y-43308814D01*
X138872685Y-43250757D01*
X138930742Y-43192700D01*
X139017828Y-43163671D01*
X139075885Y-43163671D01*
X139162971Y-43192700D01*
X139192000Y-43221728D01*
X139801600Y-43773271D02*
X139598400Y-43482985D01*
X139453257Y-43773271D02*
X139453257Y-43163671D01*
X139685485Y-43163671D01*
X139743542Y-43192700D01*
X139772571Y-43221728D01*
X139801600Y-43279785D01*
X139801600Y-43366871D01*
X139772571Y-43424928D01*
X139743542Y-43453957D01*
X139685485Y-43482985D01*
X139453257Y-43482985D01*
X140178971Y-43163671D02*
X140295085Y-43163671D01*
X140353142Y-43192700D01*
X140411200Y-43250757D01*
X140440228Y-43366871D01*
X140440228Y-43570071D01*
X140411200Y-43686185D01*
X140353142Y-43744242D01*
X140295085Y-43773271D01*
X140178971Y-43773271D01*
X140120914Y-43744242D01*
X140062857Y-43686185D01*
X140033828Y-43570071D01*
X140033828Y-43366871D01*
X140062857Y-43250757D01*
X140120914Y-43192700D01*
X140178971Y-43163671D01*
X141369142Y-43453957D02*
X141456228Y-43482985D01*
X141485257Y-43512014D01*
X141514285Y-43570071D01*
X141514285Y-43657157D01*
X141485257Y-43715214D01*
X141456228Y-43744242D01*
X141398171Y-43773271D01*
X141165942Y-43773271D01*
X141165942Y-43163671D01*
X141369142Y-43163671D01*
X141427200Y-43192700D01*
X141456228Y-43221728D01*
X141485257Y-43279785D01*
X141485257Y-43337842D01*
X141456228Y-43395900D01*
X141427200Y-43424928D01*
X141369142Y-43453957D01*
X141165942Y-43453957D01*
X141891657Y-43163671D02*
X142007771Y-43163671D01*
X142065828Y-43192700D01*
X142123885Y-43250757D01*
X142152914Y-43366871D01*
X142152914Y-43570071D01*
X142123885Y-43686185D01*
X142065828Y-43744242D01*
X142007771Y-43773271D01*
X141891657Y-43773271D01*
X141833600Y-43744242D01*
X141775542Y-43686185D01*
X141746514Y-43570071D01*
X141746514Y-43366871D01*
X141775542Y-43250757D01*
X141833600Y-43192700D01*
X141891657Y-43163671D01*
X142385142Y-43599100D02*
X142675428Y-43599100D01*
X142327085Y-43773271D02*
X142530285Y-43163671D01*
X142733485Y-43773271D01*
X143285028Y-43773271D02*
X143081828Y-43482985D01*
X142936685Y-43773271D02*
X142936685Y-43163671D01*
X143168914Y-43163671D01*
X143226971Y-43192700D01*
X143256000Y-43221728D01*
X143285028Y-43279785D01*
X143285028Y-43366871D01*
X143256000Y-43424928D01*
X143226971Y-43453957D01*
X143168914Y-43482985D01*
X142936685Y-43482985D01*
X143546285Y-43773271D02*
X143546285Y-43163671D01*
X143691428Y-43163671D01*
X143778514Y-43192700D01*
X143836571Y-43250757D01*
X143865600Y-43308814D01*
X143894628Y-43424928D01*
X143894628Y-43512014D01*
X143865600Y-43628128D01*
X143836571Y-43686185D01*
X143778514Y-43744242D01*
X143691428Y-43773271D01*
X143546285Y-43773271D01*
X134634514Y-74224242D02*
X134721600Y-74253271D01*
X134866742Y-74253271D01*
X134924800Y-74224242D01*
X134953828Y-74195214D01*
X134982857Y-74137157D01*
X134982857Y-74079100D01*
X134953828Y-74021042D01*
X134924800Y-73992014D01*
X134866742Y-73962985D01*
X134750628Y-73933957D01*
X134692571Y-73904928D01*
X134663542Y-73875900D01*
X134634514Y-73817842D01*
X134634514Y-73759785D01*
X134663542Y-73701728D01*
X134692571Y-73672700D01*
X134750628Y-73643671D01*
X134895771Y-73643671D01*
X134982857Y-73672700D01*
X135244114Y-74253271D02*
X135244114Y-73643671D01*
X135476342Y-73643671D01*
X135534400Y-73672700D01*
X135563428Y-73701728D01*
X135592457Y-73759785D01*
X135592457Y-73846871D01*
X135563428Y-73904928D01*
X135534400Y-73933957D01*
X135476342Y-73962985D01*
X135244114Y-73962985D01*
X135824685Y-74079100D02*
X136114971Y-74079100D01*
X135766628Y-74253271D02*
X135969828Y-73643671D01*
X136173028Y-74253271D01*
X136724571Y-74253271D02*
X136521371Y-73962985D01*
X136376228Y-74253271D02*
X136376228Y-73643671D01*
X136608457Y-73643671D01*
X136666514Y-73672700D01*
X136695542Y-73701728D01*
X136724571Y-73759785D01*
X136724571Y-73846871D01*
X136695542Y-73904928D01*
X136666514Y-73933957D01*
X136608457Y-73962985D01*
X136376228Y-73962985D01*
X136985828Y-74253271D02*
X136985828Y-73643671D01*
X137334171Y-74253271D02*
X137072914Y-73904928D01*
X137334171Y-73643671D02*
X136985828Y-73992014D01*
X137798628Y-73933957D02*
X137595428Y-73933957D01*
X137595428Y-74253271D02*
X137595428Y-73643671D01*
X137885714Y-73643671D01*
X138117942Y-73643671D02*
X138117942Y-74137157D01*
X138146971Y-74195214D01*
X138176000Y-74224242D01*
X138234057Y-74253271D01*
X138350171Y-74253271D01*
X138408228Y-74224242D01*
X138437257Y-74195214D01*
X138466285Y-74137157D01*
X138466285Y-73643671D01*
X138756571Y-74253271D02*
X138756571Y-73643671D01*
X139104914Y-74253271D01*
X139104914Y-73643671D01*
X139250057Y-74311328D02*
X139714514Y-74311328D01*
X139859657Y-74253271D02*
X139859657Y-73643671D01*
X140091885Y-73643671D01*
X140149942Y-73672700D01*
X140178971Y-73701728D01*
X140208000Y-73759785D01*
X140208000Y-73846871D01*
X140178971Y-73904928D01*
X140149942Y-73933957D01*
X140091885Y-73962985D01*
X139859657Y-73962985D01*
X140817600Y-74253271D02*
X140614400Y-73962985D01*
X140469257Y-74253271D02*
X140469257Y-73643671D01*
X140701485Y-73643671D01*
X140759542Y-73672700D01*
X140788571Y-73701728D01*
X140817600Y-73759785D01*
X140817600Y-73846871D01*
X140788571Y-73904928D01*
X140759542Y-73933957D01*
X140701485Y-73962985D01*
X140469257Y-73962985D01*
X141194971Y-73643671D02*
X141311085Y-73643671D01*
X141369142Y-73672700D01*
X141427200Y-73730757D01*
X141456228Y-73846871D01*
X141456228Y-74050071D01*
X141427200Y-74166185D01*
X141369142Y-74224242D01*
X141311085Y-74253271D01*
X141194971Y-74253271D01*
X141136914Y-74224242D01*
X141078857Y-74166185D01*
X141049828Y-74050071D01*
X141049828Y-73846871D01*
X141078857Y-73730757D01*
X141136914Y-73672700D01*
X141194971Y-73643671D01*
X141572342Y-74311328D02*
X142036800Y-74311328D01*
X142181942Y-74253271D02*
X142181942Y-73643671D01*
X142385142Y-74079100D01*
X142588342Y-73643671D01*
X142588342Y-74253271D01*
X142878628Y-74253271D02*
X142878628Y-73643671D01*
X143517257Y-74195214D02*
X143488228Y-74224242D01*
X143401142Y-74253271D01*
X143343085Y-74253271D01*
X143256000Y-74224242D01*
X143197942Y-74166185D01*
X143168914Y-74108128D01*
X143139885Y-73992014D01*
X143139885Y-73904928D01*
X143168914Y-73788814D01*
X143197942Y-73730757D01*
X143256000Y-73672700D01*
X143343085Y-73643671D01*
X143401142Y-73643671D01*
X143488228Y-73672700D01*
X143517257Y-73701728D01*
X144126857Y-74253271D02*
X143923657Y-73962985D01*
X143778514Y-74253271D02*
X143778514Y-73643671D01*
X144010742Y-73643671D01*
X144068800Y-73672700D01*
X144097828Y-73701728D01*
X144126857Y-73759785D01*
X144126857Y-73846871D01*
X144097828Y-73904928D01*
X144068800Y-73933957D01*
X144010742Y-73962985D01*
X143778514Y-73962985D01*
X144504228Y-73643671D02*
X144620342Y-73643671D01*
X144678400Y-73672700D01*
X144736457Y-73730757D01*
X144765485Y-73846871D01*
X144765485Y-74050071D01*
X144736457Y-74166185D01*
X144678400Y-74224242D01*
X144620342Y-74253271D01*
X144504228Y-74253271D01*
X144446171Y-74224242D01*
X144388114Y-74166185D01*
X144359085Y-74050071D01*
X144359085Y-73846871D01*
X144388114Y-73730757D01*
X144446171Y-73672700D01*
X144504228Y-73643671D01*
%TD*%
M02*
