M48
; DRILL file {KiCad (5.1.8)-1} date 05/23/21 17:34:52
; FORMAT={-:-/ absolute / inch / decimal}
; #@! TF.CreationDate,2021-05-23T17:34:52+02:00
; #@! TF.GenerationSoftware,Kicad,Pcbnew,(5.1.8)-1
; #@! TF.FileFunction,NonPlated,1,2,NPTH
FMAT,2
INCH
T1C0.0689
T2C0.0866
T3C0.1570
%
G90
G05
T1
X2.2687Y-4.2812
X2.6687Y-4.2812
X3.0187Y-4.2812
X3.4187Y-4.2812
X4.5187Y-4.2812
X4.9188Y-4.2812
X2.2687Y-5.7812
X2.6687Y-5.7812
X4.5187Y-5.7812
X4.9188Y-5.7812
X4.5187Y-2.7812
X4.9188Y-2.7812
X3.0187Y-2.7812
X3.4187Y-2.7812
X2.2687Y-5.0312
X2.6687Y-5.0312
X2.6437Y-5.7812
X3.0437Y-5.7812
X2.2687Y-3.5312
X2.6687Y-3.5312
X4.5187Y-5.0312
X4.9188Y-5.0312
X3.0187Y-5.7812
X3.4187Y-5.7812
X3.7687Y-5.0312
X4.1688Y-5.0312
X2.2687Y-2.7812
X2.6687Y-2.7812
X3.7687Y-4.2812
X4.1688Y-4.2812
X3.7687Y-5.7812
X4.1688Y-5.7812
X3.7687Y-3.5312
X4.1688Y-3.5312
X4.5187Y-5.4062
X4.9188Y-5.4062
X3.0187Y-3.5312
X3.4187Y-3.5312
X4.5187Y-3.5312
X4.9188Y-3.5312
X3.0187Y-5.0312
X3.4187Y-5.0312
X5.2687Y-4.2812
X5.6688Y-4.2812
X4.5187Y-3.9062
X4.9188Y-3.9062
X3.7687Y-2.7812
X4.1688Y-2.7812
T2
X5.845Y-1.655
X2.845Y-2.325
X5.065Y-1.655
X2.095Y-6.155
X5.845Y-6.155
X2.095Y-1.655
X4.345Y-2.325
T3
X3.2188Y-4.2812
X4.7188Y-4.2812
X2.4688Y-5.7812
X4.7188Y-5.7812
X4.7188Y-2.7812
X3.2188Y-2.7812
X2.4688Y-5.0312
X2.8438Y-5.7812
X2.4688Y-3.5312
X4.7188Y-5.0312
X3.2188Y-5.7812
X3.9688Y-5.0312
X2.4688Y-2.7812
X3.9688Y-4.2812
X3.9688Y-5.7812
X3.9688Y-3.5312
X4.7188Y-5.4062
X3.2188Y-3.5312
X4.7188Y-3.5312
X3.2188Y-5.0312
X5.4688Y-4.2812
X4.7188Y-3.9062
X3.9688Y-2.7812
X2.4688Y-4.2812
T0
M30
