M48
; DRILL file {KiCad (5.1.8)-1} date 05/23/21 17:34:52
; FORMAT={-:-/ absolute / inch / decimal}
; #@! TF.CreationDate,2021-05-23T17:34:52+02:00
; #@! TF.GenerationSoftware,Kicad,Pcbnew,(5.1.8)-1
; #@! TF.FileFunction,Plated,1,2,PTH
FMAT,2
INCH
T1C0.0157
T2C0.0197
T3C0.0276
T4C0.0315
T5C0.0394
T6C0.0400
T7C0.0579
T8C0.0591
%
G90
G05
T1
X2.2812Y-5.1875
X2.2812Y-5.2812
X2.4062Y-5.1875
X2.4062Y-5.1875
X2.4062Y-5.2812
X3.61Y-4.54
X3.9Y-4.54
X4.3675Y-2.5275
X4.37Y-4.45
X4.39Y-4.51
X4.49Y-2.33
X4.54Y-2.385
X4.635Y-4.08
X4.645Y-4.475
X4.9Y-2.27
X4.94Y-4.505
X4.98Y-2.375
X5.085Y-3.58
X5.13Y-4.04
X5.145Y-5.495
X5.22Y-4.365
X5.24Y-3.27
X5.455Y-2.675
X5.465Y-1.99
X5.465Y-3.365
X5.47Y-5.335
X5.5025Y-1.8725
X5.565Y-2.525
X5.595Y-4.555
X5.655Y-2.215
X5.705Y-2.11
X5.715Y-3.06
X5.74Y-3.245
X5.7465Y-5.39
X5.758Y-4.6167
X5.76Y-4.535
X5.825Y-3.245
X5.8285Y-4.645
T2
X5.4513Y-3.055
X5.4906Y-3.055
X5.53Y-3.055
X5.5694Y-3.055
T3
X5.375Y-3.2188
X5.675Y-3.2188
T4
X2.2188Y-1.8125
X2.2188Y-2.1125
X4.5938Y-1.9062
X4.5938Y-2.2062
X2.0938Y-2.0266
X2.0938Y-2.125
X3.4688Y-1.9375
X3.4688Y-2.2375
X2.7188Y-1.9375
X2.7188Y-2.2375
X2.9688Y-1.8125
X2.9688Y-2.1125
X4.9688Y-1.8125
X4.9688Y-2.1125
X4.7188Y-1.875
X4.7188Y-2.175
X4.2188Y-1.8125
X4.2188Y-2.1125
X3.7188Y-1.9375
X3.7188Y-2.2375
X5.15Y-3.375
X5.15Y-3.675
X5.785Y-3.375
X5.785Y-3.675
X2.3438Y-1.8438
X2.3438Y-2.1437
X5.83Y-4.9916
X5.83Y-5.09
X2.4688Y-1.875
X2.4688Y-2.175
X5.25Y-3.375
X5.25Y-3.675
X5.195Y-3.045
X5.2934Y-3.045
X4.4688Y-1.9375
X4.4688Y-2.2375
X2.125Y-2.3125
X2.2234Y-2.3125
X3.2188Y-1.875
X3.2188Y-2.175
X3.3438Y-1.9062
X3.3438Y-2.2062
X3.0938Y-1.8438
X3.0938Y-2.1437
X3.9688Y-1.875
X3.9688Y-2.175
X4.0938Y-1.8438
X4.0938Y-2.1437
X3.8438Y-1.9062
X3.8438Y-2.2062
X2.5938Y-1.9062
X2.5938Y-2.2062
X4.8438Y-1.8438
X4.8438Y-2.1437
T5
X5.3681Y-4.74
X5.3681Y-5.3109
X5.4666Y-4.74
X5.565Y-4.74
X5.565Y-5.3109
X5.3681Y-5.485
X5.3681Y-6.0559
X5.4666Y-5.485
X5.565Y-5.485
X5.565Y-6.0559
X5.3408Y-3.4427
X5.3408Y-3.6198
X5.5967Y-3.4427
X5.5967Y-3.6198
T6
X5.2Y-1.8125
X5.2Y-1.9125
X5.2Y-2.0125
X5.2Y-2.1125
X5.2Y-2.2125
X5.2Y-2.3125
X5.2Y-2.4125
X5.2Y-2.5125
X5.2Y-2.6125
X5.2Y-2.7125
X5.2Y-2.8125
X5.2Y-2.9125
X5.8Y-1.8125
X5.8Y-1.9125
X5.8Y-2.0125
X5.8Y-2.1125
X5.8Y-2.2125
X5.8Y-2.3125
X5.8Y-2.4125
X5.8Y-2.5125
X5.8Y-2.6125
X5.8Y-2.7125
X5.8Y-2.8125
X5.8Y-2.9125
T7
X4.5687Y-4.1812
X4.8187Y-4.0812
X2.3188Y-5.6812
X2.5688Y-5.5812
X4.5687Y-5.6812
X4.8187Y-5.5812
X4.5687Y-2.6812
X4.8187Y-2.5812
X3.0688Y-2.6812
X3.3188Y-2.5812
X2.3188Y-4.9312
X2.5688Y-4.8312
X2.6938Y-5.6812
X2.9438Y-5.5812
X2.3188Y-3.4312
X2.5688Y-3.3312
X4.5687Y-4.9312
X4.8187Y-4.8312
X3.0688Y-5.6812
X3.3188Y-5.5812
X3.8188Y-4.9312
X4.0687Y-4.8312
X2.3188Y-2.6812
X2.5688Y-2.5812
X3.8188Y-4.1812
X4.0687Y-4.0812
X3.8188Y-5.6812
X4.0687Y-5.5812
X3.8188Y-3.4312
X4.0687Y-3.3312
X4.5687Y-5.3062
X4.8187Y-5.2062
X3.0688Y-3.4312
X3.3188Y-3.3312
X4.5687Y-3.4312
X4.8187Y-3.3312
X3.0688Y-4.9312
X3.3188Y-4.8312
X5.3187Y-4.1812
X5.5687Y-4.0812
X4.5687Y-3.8062
X4.8187Y-3.7062
X3.8188Y-2.6812
X4.0687Y-2.5812
X2.3188Y-4.1812
X2.5688Y-4.0812
X3.0688Y-4.1812
X3.3188Y-4.0812
T8
G00X5.2461Y-5.0097
M15
G01X5.2461Y-5.0609
M16
G05
G00X5.687Y-5.0097
M15
G01X5.687Y-5.0609
M16
G05
G00X5.2461Y-5.7547
M15
G01X5.2461Y-5.8059
M16
G05
G00X5.687Y-5.7547
M15
G01X5.687Y-5.8059
M16
G05
T0
M30
