%TF.GenerationSoftware,KiCad,Pcbnew,(5.1.8)-1*%
%TF.CreationDate,2021-05-23T17:25:15+02:00*%
%TF.ProjectId,HERMES PCB,4845524d-4553-4205-9043-422e6b696361,rev?*%
%TF.SameCoordinates,Original*%
%TF.FileFunction,Soldermask,Bot*%
%TF.FilePolarity,Negative*%
%FSLAX46Y46*%
G04 Gerber Fmt 4.6, Leading zero omitted, Abs format (unit mm)*
G04 Created by KiCad (PCBNEW (5.1.8)-1) date 2021-05-23 17:25:15*
%MOMM*%
%LPD*%
G01*
G04 APERTURE LIST*
%ADD10C,0.010000*%
%ADD11R,2.000000X2.000000*%
%ADD12C,2.000000*%
%ADD13R,2.000000X3.200000*%
%ADD14C,2.082800*%
%ADD15O,1.600000X1.600000*%
%ADD16R,1.600000X1.600000*%
%ADD17C,2.200000*%
%ADD18C,2.250000*%
%ADD19C,3.987800*%
%ADD20C,1.750000*%
%ADD21C,1.800000*%
%ADD22O,1.400000X1.400000*%
%ADD23C,1.400000*%
%ADD24R,1.500000X1.000000*%
%ADD25R,1.000000X1.500000*%
%ADD26O,0.850000X0.850000*%
%ADD27R,0.850000X0.850000*%
%ADD28C,1.600000*%
G04 APERTURE END LIST*
D10*
%TO.C,G\u002A\u002A\u002A*%
G36*
X80448489Y-61557570D02*
G01*
X80238767Y-61863631D01*
X80218882Y-62168080D01*
X80428694Y-63322009D01*
X80992657Y-64149504D01*
X81812564Y-64609290D01*
X82790206Y-64660090D01*
X83827376Y-64260629D01*
X84322244Y-63892698D01*
X85070296Y-63307361D01*
X85556219Y-63138204D01*
X85853647Y-63385226D01*
X86007408Y-63892698D01*
X86213494Y-64471211D01*
X86630566Y-64678836D01*
X86936514Y-64694803D01*
X87490748Y-64618789D01*
X87687428Y-64283442D01*
X87704198Y-63959540D01*
X87562676Y-63230609D01*
X87218719Y-62432352D01*
X87173391Y-62355329D01*
X86732125Y-61771746D01*
X86215742Y-61528204D01*
X85579484Y-61486382D01*
X84707033Y-61604228D01*
X83924675Y-62028335D01*
X83539733Y-62343014D01*
X82946224Y-62841989D01*
X82602833Y-63017581D01*
X82365126Y-62907337D01*
X82193588Y-62692965D01*
X81897845Y-62148729D01*
X81823093Y-61836332D01*
X81584327Y-61574521D01*
X81020987Y-61486382D01*
X80448489Y-61557570D01*
G37*
X80448489Y-61557570D02*
X80238767Y-61863631D01*
X80218882Y-62168080D01*
X80428694Y-63322009D01*
X80992657Y-64149504D01*
X81812564Y-64609290D01*
X82790206Y-64660090D01*
X83827376Y-64260629D01*
X84322244Y-63892698D01*
X85070296Y-63307361D01*
X85556219Y-63138204D01*
X85853647Y-63385226D01*
X86007408Y-63892698D01*
X86213494Y-64471211D01*
X86630566Y-64678836D01*
X86936514Y-64694803D01*
X87490748Y-64618789D01*
X87687428Y-64283442D01*
X87704198Y-63959540D01*
X87562676Y-63230609D01*
X87218719Y-62432352D01*
X87173391Y-62355329D01*
X86732125Y-61771746D01*
X86215742Y-61528204D01*
X85579484Y-61486382D01*
X84707033Y-61604228D01*
X83924675Y-62028335D01*
X83539733Y-62343014D01*
X82946224Y-62841989D01*
X82602833Y-63017581D01*
X82365126Y-62907337D01*
X82193588Y-62692965D01*
X81897845Y-62148729D01*
X81823093Y-61836332D01*
X81584327Y-61574521D01*
X81020987Y-61486382D01*
X80448489Y-61557570D01*
G36*
X136500602Y-63479078D02*
G01*
X136146067Y-63883738D01*
X136075975Y-64633898D01*
X136270157Y-65791521D01*
X136311241Y-65964803D01*
X136590859Y-66943094D01*
X136861236Y-67472355D01*
X137165357Y-67635737D01*
X137175108Y-67635856D01*
X137472275Y-67494810D01*
X137711655Y-67010072D01*
X137937685Y-66089239D01*
X137950876Y-66022770D01*
X138137348Y-64785699D01*
X138103335Y-63975716D01*
X137828406Y-63524004D01*
X137292133Y-63361746D01*
X137159745Y-63357961D01*
X136500602Y-63479078D01*
G37*
X136500602Y-63479078D02*
X136146067Y-63883738D01*
X136075975Y-64633898D01*
X136270157Y-65791521D01*
X136311241Y-65964803D01*
X136590859Y-66943094D01*
X136861236Y-67472355D01*
X137165357Y-67635737D01*
X137175108Y-67635856D01*
X137472275Y-67494810D01*
X137711655Y-67010072D01*
X137937685Y-66089239D01*
X137950876Y-66022770D01*
X138137348Y-64785699D01*
X138103335Y-63975716D01*
X137828406Y-63524004D01*
X137292133Y-63361746D01*
X137159745Y-63357961D01*
X136500602Y-63479078D01*
G36*
X131421845Y-63661712D02*
G01*
X129566195Y-63679430D01*
X128837723Y-63687418D01*
X122378670Y-63759013D01*
X121748427Y-65627785D01*
X121457199Y-66583712D01*
X121276439Y-67363203D01*
X121241240Y-67811726D01*
X121247511Y-67833575D01*
X121577135Y-68158638D01*
X122050370Y-68088135D01*
X122514745Y-67671783D01*
X122689933Y-67363224D01*
X123138630Y-66677870D01*
X123804972Y-65987076D01*
X123983071Y-65842115D01*
X124435209Y-65528191D01*
X124895512Y-65315498D01*
X125487306Y-65178338D01*
X126333921Y-65091015D01*
X127558683Y-65027832D01*
X127968857Y-65011629D01*
X131018882Y-64894883D01*
X131018882Y-70576908D01*
X130283619Y-70575417D01*
X129249471Y-70467338D01*
X128278450Y-70188791D01*
X127547113Y-69802184D01*
X127278870Y-69513313D01*
X127064240Y-68842600D01*
X127008356Y-68321854D01*
X126904362Y-67804181D01*
X126490007Y-67640139D01*
X126339935Y-67635856D01*
X125671514Y-67635856D01*
X125671514Y-74587435D01*
X126339935Y-74587435D01*
X126830783Y-74491507D01*
X126998863Y-74096052D01*
X127008356Y-73844820D01*
X127162103Y-73050057D01*
X127424569Y-72507978D01*
X127752300Y-72163546D01*
X128223945Y-71982928D01*
X129001711Y-71918057D01*
X129429832Y-71913750D01*
X131018882Y-71913750D01*
X131018882Y-77795856D01*
X128545724Y-77794364D01*
X127318381Y-77764157D01*
X126178864Y-77684871D01*
X125315158Y-77571325D01*
X125100073Y-77522750D01*
X124309936Y-77127245D01*
X123417367Y-76425822D01*
X122585649Y-75575739D01*
X121978066Y-74734251D01*
X121803479Y-74347815D01*
X121536598Y-73924524D01*
X121044548Y-73939008D01*
X121037845Y-73941055D01*
X120538519Y-74117674D01*
X120356106Y-74209917D01*
X120396310Y-74483407D01*
X120585779Y-75148802D01*
X120891204Y-76095404D01*
X121150644Y-76850386D01*
X122046906Y-79400066D01*
X135296777Y-79400066D01*
X135296777Y-78731645D01*
X135181998Y-78218416D01*
X134750446Y-78064353D01*
X134681829Y-78063224D01*
X134294413Y-78040243D01*
X133995954Y-77930274D01*
X133774883Y-77671778D01*
X133619631Y-77203216D01*
X133518627Y-76463049D01*
X133460304Y-75389739D01*
X133433091Y-73921746D01*
X133425420Y-71997531D01*
X133425198Y-71379013D01*
X133429518Y-69318289D01*
X133450192Y-67730742D01*
X133498790Y-66554832D01*
X133586879Y-65729020D01*
X133726031Y-65191769D01*
X133927813Y-64881538D01*
X134203796Y-64736789D01*
X134565548Y-64695983D01*
X134681829Y-64694803D01*
X135177045Y-64546927D01*
X135296777Y-64155313D01*
X135280457Y-63986800D01*
X135189658Y-63858530D01*
X134961618Y-63765958D01*
X134533578Y-63704536D01*
X133842776Y-63669719D01*
X132826452Y-63656960D01*
X131421845Y-63661712D01*
G37*
X131421845Y-63661712D02*
X129566195Y-63679430D01*
X128837723Y-63687418D01*
X122378670Y-63759013D01*
X121748427Y-65627785D01*
X121457199Y-66583712D01*
X121276439Y-67363203D01*
X121241240Y-67811726D01*
X121247511Y-67833575D01*
X121577135Y-68158638D01*
X122050370Y-68088135D01*
X122514745Y-67671783D01*
X122689933Y-67363224D01*
X123138630Y-66677870D01*
X123804972Y-65987076D01*
X123983071Y-65842115D01*
X124435209Y-65528191D01*
X124895512Y-65315498D01*
X125487306Y-65178338D01*
X126333921Y-65091015D01*
X127558683Y-65027832D01*
X127968857Y-65011629D01*
X131018882Y-64894883D01*
X131018882Y-70576908D01*
X130283619Y-70575417D01*
X129249471Y-70467338D01*
X128278450Y-70188791D01*
X127547113Y-69802184D01*
X127278870Y-69513313D01*
X127064240Y-68842600D01*
X127008356Y-68321854D01*
X126904362Y-67804181D01*
X126490007Y-67640139D01*
X126339935Y-67635856D01*
X125671514Y-67635856D01*
X125671514Y-74587435D01*
X126339935Y-74587435D01*
X126830783Y-74491507D01*
X126998863Y-74096052D01*
X127008356Y-73844820D01*
X127162103Y-73050057D01*
X127424569Y-72507978D01*
X127752300Y-72163546D01*
X128223945Y-71982928D01*
X129001711Y-71918057D01*
X129429832Y-71913750D01*
X131018882Y-71913750D01*
X131018882Y-77795856D01*
X128545724Y-77794364D01*
X127318381Y-77764157D01*
X126178864Y-77684871D01*
X125315158Y-77571325D01*
X125100073Y-77522750D01*
X124309936Y-77127245D01*
X123417367Y-76425822D01*
X122585649Y-75575739D01*
X121978066Y-74734251D01*
X121803479Y-74347815D01*
X121536598Y-73924524D01*
X121044548Y-73939008D01*
X121037845Y-73941055D01*
X120538519Y-74117674D01*
X120356106Y-74209917D01*
X120396310Y-74483407D01*
X120585779Y-75148802D01*
X120891204Y-76095404D01*
X121150644Y-76850386D01*
X122046906Y-79400066D01*
X135296777Y-79400066D01*
X135296777Y-78731645D01*
X135181998Y-78218416D01*
X134750446Y-78064353D01*
X134681829Y-78063224D01*
X134294413Y-78040243D01*
X133995954Y-77930274D01*
X133774883Y-77671778D01*
X133619631Y-77203216D01*
X133518627Y-76463049D01*
X133460304Y-75389739D01*
X133433091Y-73921746D01*
X133425420Y-71997531D01*
X133425198Y-71379013D01*
X133429518Y-69318289D01*
X133450192Y-67730742D01*
X133498790Y-66554832D01*
X133586879Y-65729020D01*
X133726031Y-65191769D01*
X133927813Y-64881538D01*
X134203796Y-64736789D01*
X134565548Y-64695983D01*
X134681829Y-64694803D01*
X135177045Y-64546927D01*
X135296777Y-64155313D01*
X135280457Y-63986800D01*
X135189658Y-63858530D01*
X134961618Y-63765958D01*
X134533578Y-63704536D01*
X133842776Y-63669719D01*
X132826452Y-63656960D01*
X131421845Y-63661712D01*
G36*
X82297200Y-66380184D02*
G01*
X80937102Y-66803896D01*
X79840626Y-67684827D01*
X79283093Y-68465909D01*
X79122735Y-68772269D01*
X78996478Y-69127837D01*
X78899284Y-69599473D01*
X78826116Y-70254036D01*
X78771938Y-71158386D01*
X78731712Y-72379381D01*
X78700401Y-73983882D01*
X78672968Y-76038748D01*
X78665798Y-76659540D01*
X78583240Y-83945329D01*
X81020987Y-83945329D01*
X81020987Y-70083199D01*
X81713176Y-69260580D01*
X82328358Y-68682090D01*
X83017501Y-68458714D01*
X83464348Y-68437961D01*
X84386196Y-68544982D01*
X85231311Y-68806369D01*
X85307634Y-68843539D01*
X85857354Y-69185351D01*
X86266373Y-69615005D01*
X86554714Y-70211132D01*
X86742401Y-71052365D01*
X86849457Y-72217338D01*
X86895907Y-73784684D01*
X86903093Y-75108894D01*
X86903093Y-79400066D01*
X89309408Y-79400066D01*
X89309408Y-66566382D01*
X88106250Y-66566382D01*
X87364545Y-66593161D01*
X87013143Y-66728653D01*
X86908243Y-67055588D01*
X86903093Y-67258570D01*
X86903093Y-67950759D01*
X86093117Y-67269209D01*
X84858596Y-66575236D01*
X83343248Y-66318215D01*
X82297200Y-66380184D01*
G37*
X82297200Y-66380184D02*
X80937102Y-66803896D01*
X79840626Y-67684827D01*
X79283093Y-68465909D01*
X79122735Y-68772269D01*
X78996478Y-69127837D01*
X78899284Y-69599473D01*
X78826116Y-70254036D01*
X78771938Y-71158386D01*
X78731712Y-72379381D01*
X78700401Y-73983882D01*
X78672968Y-76038748D01*
X78665798Y-76659540D01*
X78583240Y-83945329D01*
X81020987Y-83945329D01*
X81020987Y-70083199D01*
X81713176Y-69260580D01*
X82328358Y-68682090D01*
X83017501Y-68458714D01*
X83464348Y-68437961D01*
X84386196Y-68544982D01*
X85231311Y-68806369D01*
X85307634Y-68843539D01*
X85857354Y-69185351D01*
X86266373Y-69615005D01*
X86554714Y-70211132D01*
X86742401Y-71052365D01*
X86849457Y-72217338D01*
X86895907Y-73784684D01*
X86903093Y-75108894D01*
X86903093Y-79400066D01*
X89309408Y-79400066D01*
X89309408Y-66566382D01*
X88106250Y-66566382D01*
X87364545Y-66593161D01*
X87013143Y-66728653D01*
X86908243Y-67055588D01*
X86903093Y-67258570D01*
X86903093Y-67950759D01*
X86093117Y-67269209D01*
X84858596Y-66575236D01*
X83343248Y-66318215D01*
X82297200Y-66380184D01*
G36*
X102143093Y-72168538D02*
G01*
X102121963Y-73833882D01*
X102062162Y-75218469D01*
X101969072Y-76239250D01*
X101848075Y-76813173D01*
X101841041Y-76829414D01*
X101244621Y-77570351D01*
X100350054Y-77909868D01*
X99212111Y-77848283D01*
X97885561Y-77385917D01*
X96836945Y-76800245D01*
X95679997Y-76057961D01*
X95772227Y-73038916D01*
X95831776Y-71606874D01*
X95933395Y-70625099D01*
X96115992Y-70009129D01*
X96418481Y-69674506D01*
X96879771Y-69536767D01*
X97397303Y-69511529D01*
X97960600Y-69400190D01*
X98132303Y-69024718D01*
X98132566Y-69001303D01*
X98039515Y-68614133D01*
X97703062Y-68364894D01*
X97037257Y-68227040D01*
X95956148Y-68174023D01*
X95443046Y-68170592D01*
X93599366Y-68170592D01*
X93526493Y-73050066D01*
X93453619Y-77929540D01*
X92584672Y-78013322D01*
X91973598Y-78143791D01*
X91739717Y-78458419D01*
X91715724Y-78748585D01*
X91742763Y-79080029D01*
X91898922Y-79274324D01*
X92296766Y-79368041D01*
X93048862Y-79397750D01*
X93720987Y-79400066D01*
X95726250Y-79400066D01*
X95726250Y-78597961D01*
X95766708Y-78034343D01*
X95864159Y-77795902D01*
X95865667Y-77795856D01*
X96153578Y-77930331D01*
X96716961Y-78269495D01*
X97001983Y-78453946D01*
X98090124Y-79011453D01*
X99307544Y-79387487D01*
X100468254Y-79541503D01*
X101386271Y-79432955D01*
X101426286Y-79418462D01*
X102143093Y-79145933D01*
X102143093Y-84212698D01*
X104282040Y-84212698D01*
X104282040Y-77377226D01*
X104293084Y-75158855D01*
X104325061Y-73276698D01*
X104376241Y-71776728D01*
X104444893Y-70704918D01*
X104529288Y-70107241D01*
X104558815Y-70024594D01*
X105028872Y-69616304D01*
X105761973Y-69507435D01*
X106408167Y-69442796D01*
X106664404Y-69199925D01*
X106688356Y-69001303D01*
X106595595Y-68614545D01*
X106260024Y-68365424D01*
X105595707Y-68227455D01*
X104516708Y-68174156D01*
X103992804Y-68170592D01*
X102143093Y-68170592D01*
X102143093Y-72168538D01*
G37*
X102143093Y-72168538D02*
X102121963Y-73833882D01*
X102062162Y-75218469D01*
X101969072Y-76239250D01*
X101848075Y-76813173D01*
X101841041Y-76829414D01*
X101244621Y-77570351D01*
X100350054Y-77909868D01*
X99212111Y-77848283D01*
X97885561Y-77385917D01*
X96836945Y-76800245D01*
X95679997Y-76057961D01*
X95772227Y-73038916D01*
X95831776Y-71606874D01*
X95933395Y-70625099D01*
X96115992Y-70009129D01*
X96418481Y-69674506D01*
X96879771Y-69536767D01*
X97397303Y-69511529D01*
X97960600Y-69400190D01*
X98132303Y-69024718D01*
X98132566Y-69001303D01*
X98039515Y-68614133D01*
X97703062Y-68364894D01*
X97037257Y-68227040D01*
X95956148Y-68174023D01*
X95443046Y-68170592D01*
X93599366Y-68170592D01*
X93526493Y-73050066D01*
X93453619Y-77929540D01*
X92584672Y-78013322D01*
X91973598Y-78143791D01*
X91739717Y-78458419D01*
X91715724Y-78748585D01*
X91742763Y-79080029D01*
X91898922Y-79274324D01*
X92296766Y-79368041D01*
X93048862Y-79397750D01*
X93720987Y-79400066D01*
X95726250Y-79400066D01*
X95726250Y-78597961D01*
X95766708Y-78034343D01*
X95864159Y-77795902D01*
X95865667Y-77795856D01*
X96153578Y-77930331D01*
X96716961Y-78269495D01*
X97001983Y-78453946D01*
X98090124Y-79011453D01*
X99307544Y-79387487D01*
X100468254Y-79541503D01*
X101386271Y-79432955D01*
X101426286Y-79418462D01*
X102143093Y-79145933D01*
X102143093Y-84212698D01*
X104282040Y-84212698D01*
X104282040Y-77377226D01*
X104293084Y-75158855D01*
X104325061Y-73276698D01*
X104376241Y-71776728D01*
X104444893Y-70704918D01*
X104529288Y-70107241D01*
X104558815Y-70024594D01*
X105028872Y-69616304D01*
X105761973Y-69507435D01*
X106408167Y-69442796D01*
X106664404Y-69199925D01*
X106688356Y-69001303D01*
X106595595Y-68614545D01*
X106260024Y-68365424D01*
X105595707Y-68227455D01*
X104516708Y-68174156D01*
X103992804Y-68170592D01*
X102143093Y-68170592D01*
X102143093Y-72168538D01*
G36*
X111506620Y-68301103D02*
G01*
X110269974Y-68730530D01*
X109228402Y-69515720D01*
X108912908Y-69851838D01*
X108064685Y-71190293D01*
X107630556Y-72713857D01*
X107591144Y-74312548D01*
X107927077Y-75876386D01*
X108618979Y-77295387D01*
X109647476Y-78459570D01*
X110533561Y-79051784D01*
X111430883Y-79341915D01*
X112585633Y-79484913D01*
X113801729Y-79480680D01*
X114883089Y-79329116D01*
X115598268Y-79054349D01*
X116128204Y-78734216D01*
X116435750Y-78598008D01*
X116437896Y-78597961D01*
X116496637Y-78846903D01*
X116543692Y-79520090D01*
X116573431Y-80507067D01*
X116580987Y-81405329D01*
X116580987Y-84212698D01*
X118763016Y-84212698D01*
X118674563Y-77996382D01*
X118639792Y-75872611D01*
X118593078Y-74209085D01*
X118539680Y-73284491D01*
X116250129Y-73284491D01*
X116193436Y-74715654D01*
X115922215Y-76043705D01*
X115664260Y-76689520D01*
X114942569Y-77605511D01*
X113994169Y-78146612D01*
X112950670Y-78277188D01*
X111943683Y-77961604D01*
X111665387Y-77772248D01*
X110770147Y-76750109D01*
X110204924Y-75440308D01*
X109977707Y-73982084D01*
X110096486Y-72514673D01*
X110569251Y-71177312D01*
X111234734Y-70267291D01*
X112176696Y-69649961D01*
X113214709Y-69489113D01*
X114241949Y-69746472D01*
X115151596Y-70383759D01*
X115836828Y-71362699D01*
X116070639Y-72000111D01*
X116250129Y-73284491D01*
X118539680Y-73284491D01*
X118519283Y-72931320D01*
X118403270Y-71964833D01*
X118229898Y-71235142D01*
X117984030Y-70667764D01*
X117650528Y-70188215D01*
X117214252Y-69722013D01*
X116939068Y-69457602D01*
X116013584Y-68753032D01*
X114969432Y-68345980D01*
X113641014Y-68181230D01*
X113079205Y-68170592D01*
X111506620Y-68301103D01*
G37*
X111506620Y-68301103D02*
X110269974Y-68730530D01*
X109228402Y-69515720D01*
X108912908Y-69851838D01*
X108064685Y-71190293D01*
X107630556Y-72713857D01*
X107591144Y-74312548D01*
X107927077Y-75876386D01*
X108618979Y-77295387D01*
X109647476Y-78459570D01*
X110533561Y-79051784D01*
X111430883Y-79341915D01*
X112585633Y-79484913D01*
X113801729Y-79480680D01*
X114883089Y-79329116D01*
X115598268Y-79054349D01*
X116128204Y-78734216D01*
X116435750Y-78598008D01*
X116437896Y-78597961D01*
X116496637Y-78846903D01*
X116543692Y-79520090D01*
X116573431Y-80507067D01*
X116580987Y-81405329D01*
X116580987Y-84212698D01*
X118763016Y-84212698D01*
X118674563Y-77996382D01*
X118639792Y-75872611D01*
X118593078Y-74209085D01*
X118539680Y-73284491D01*
X116250129Y-73284491D01*
X116193436Y-74715654D01*
X115922215Y-76043705D01*
X115664260Y-76689520D01*
X114942569Y-77605511D01*
X113994169Y-78146612D01*
X112950670Y-78277188D01*
X111943683Y-77961604D01*
X111665387Y-77772248D01*
X110770147Y-76750109D01*
X110204924Y-75440308D01*
X109977707Y-73982084D01*
X110096486Y-72514673D01*
X110569251Y-71177312D01*
X111234734Y-70267291D01*
X112176696Y-69649961D01*
X113214709Y-69489113D01*
X114241949Y-69746472D01*
X115151596Y-70383759D01*
X115836828Y-71362699D01*
X116070639Y-72000111D01*
X116250129Y-73284491D01*
X118539680Y-73284491D01*
X118519283Y-72931320D01*
X118403270Y-71964833D01*
X118229898Y-71235142D01*
X117984030Y-70667764D01*
X117650528Y-70188215D01*
X117214252Y-69722013D01*
X116939068Y-69457602D01*
X116013584Y-68753032D01*
X114969432Y-68345980D01*
X113641014Y-68181230D01*
X113079205Y-68170592D01*
X111506620Y-68301103D01*
G36*
X69508830Y-68199960D02*
G01*
X68339368Y-68430361D01*
X68271551Y-68454970D01*
X67308864Y-68983357D01*
X66581524Y-69694963D01*
X66146656Y-70482442D01*
X66061388Y-71238444D01*
X66382847Y-71855621D01*
X66436578Y-71903102D01*
X67042506Y-72106532D01*
X67713264Y-71825457D01*
X68379160Y-71092910D01*
X68482161Y-70933481D01*
X69306808Y-69985858D01*
X70289020Y-69487330D01*
X71342810Y-69473042D01*
X71742126Y-69601053D01*
X72673497Y-70213131D01*
X73354534Y-71198915D01*
X73832019Y-72626634D01*
X73839824Y-72660212D01*
X73984451Y-73779510D01*
X73801008Y-74675134D01*
X73235257Y-75430288D01*
X72232958Y-76128178D01*
X71258721Y-76619725D01*
X70315883Y-77043335D01*
X69557980Y-77361615D01*
X69116233Y-77520137D01*
X69067850Y-77528487D01*
X68745838Y-77685648D01*
X68180879Y-78084910D01*
X67847169Y-78350058D01*
X67227929Y-78922553D01*
X66936158Y-79449481D01*
X66852727Y-80179379D01*
X66850461Y-80429514D01*
X67071310Y-81805913D01*
X67743470Y-82914797D01*
X68881366Y-83775220D01*
X69648286Y-84125515D01*
X70632677Y-84352854D01*
X71880910Y-84436777D01*
X73161802Y-84379702D01*
X74244166Y-84184049D01*
X74554661Y-84074156D01*
X75149550Y-83747747D01*
X75365575Y-83345984D01*
X75356767Y-82814622D01*
X75103446Y-82113952D01*
X74565930Y-81828371D01*
X73817220Y-81975029D01*
X73241726Y-82317752D01*
X72210099Y-82790690D01*
X71117595Y-82821561D01*
X70111497Y-82440192D01*
X69339089Y-81676408D01*
X69239843Y-81507372D01*
X69111539Y-80943555D01*
X69364546Y-80375443D01*
X70035062Y-79767732D01*
X71159284Y-79085118D01*
X72319032Y-78504156D01*
X73461159Y-77924701D01*
X74483556Y-77336930D01*
X75245447Y-76825256D01*
X75528670Y-76579586D01*
X76177172Y-75512179D01*
X76436694Y-74227078D01*
X76337616Y-72838371D01*
X75910320Y-71460149D01*
X75185185Y-70206501D01*
X74192593Y-69191515D01*
X73436424Y-68722484D01*
X72296660Y-68358416D01*
X70907695Y-68180110D01*
X69508830Y-68199960D01*
G37*
X69508830Y-68199960D02*
X68339368Y-68430361D01*
X68271551Y-68454970D01*
X67308864Y-68983357D01*
X66581524Y-69694963D01*
X66146656Y-70482442D01*
X66061388Y-71238444D01*
X66382847Y-71855621D01*
X66436578Y-71903102D01*
X67042506Y-72106532D01*
X67713264Y-71825457D01*
X68379160Y-71092910D01*
X68482161Y-70933481D01*
X69306808Y-69985858D01*
X70289020Y-69487330D01*
X71342810Y-69473042D01*
X71742126Y-69601053D01*
X72673497Y-70213131D01*
X73354534Y-71198915D01*
X73832019Y-72626634D01*
X73839824Y-72660212D01*
X73984451Y-73779510D01*
X73801008Y-74675134D01*
X73235257Y-75430288D01*
X72232958Y-76128178D01*
X71258721Y-76619725D01*
X70315883Y-77043335D01*
X69557980Y-77361615D01*
X69116233Y-77520137D01*
X69067850Y-77528487D01*
X68745838Y-77685648D01*
X68180879Y-78084910D01*
X67847169Y-78350058D01*
X67227929Y-78922553D01*
X66936158Y-79449481D01*
X66852727Y-80179379D01*
X66850461Y-80429514D01*
X67071310Y-81805913D01*
X67743470Y-82914797D01*
X68881366Y-83775220D01*
X69648286Y-84125515D01*
X70632677Y-84352854D01*
X71880910Y-84436777D01*
X73161802Y-84379702D01*
X74244166Y-84184049D01*
X74554661Y-84074156D01*
X75149550Y-83747747D01*
X75365575Y-83345984D01*
X75356767Y-82814622D01*
X75103446Y-82113952D01*
X74565930Y-81828371D01*
X73817220Y-81975029D01*
X73241726Y-82317752D01*
X72210099Y-82790690D01*
X71117595Y-82821561D01*
X70111497Y-82440192D01*
X69339089Y-81676408D01*
X69239843Y-81507372D01*
X69111539Y-80943555D01*
X69364546Y-80375443D01*
X70035062Y-79767732D01*
X71159284Y-79085118D01*
X72319032Y-78504156D01*
X73461159Y-77924701D01*
X74483556Y-77336930D01*
X75245447Y-76825256D01*
X75528670Y-76579586D01*
X76177172Y-75512179D01*
X76436694Y-74227078D01*
X76337616Y-72838371D01*
X75910320Y-71460149D01*
X75185185Y-70206501D01*
X74192593Y-69191515D01*
X73436424Y-68722484D01*
X72296660Y-68358416D01*
X70907695Y-68180110D01*
X69508830Y-68199960D01*
G36*
X57722743Y-86084277D02*
G01*
X145226600Y-86084277D01*
X145055724Y-84881119D01*
X57893619Y-84881119D01*
X57722743Y-86084277D01*
G37*
X57722743Y-86084277D02*
X145226600Y-86084277D01*
X145055724Y-84881119D01*
X57893619Y-84881119D01*
X57722743Y-86084277D01*
G36*
X96616238Y-89214387D02*
G01*
X96528356Y-89560066D01*
X96717414Y-90006921D01*
X97063093Y-90094803D01*
X97509947Y-89905745D01*
X97597829Y-89560066D01*
X97408771Y-89113211D01*
X97063093Y-89025329D01*
X96616238Y-89214387D01*
G37*
X96616238Y-89214387D02*
X96528356Y-89560066D01*
X96717414Y-90006921D01*
X97063093Y-90094803D01*
X97509947Y-89905745D01*
X97597829Y-89560066D01*
X97408771Y-89113211D01*
X97063093Y-89025329D01*
X96616238Y-89214387D01*
G36*
X91041849Y-87667962D02*
G01*
X90960994Y-88326673D01*
X90917637Y-89274522D01*
X90913619Y-89693750D01*
X90903668Y-90798771D01*
X90857413Y-91473741D01*
X90750253Y-91823221D01*
X90557585Y-91951769D01*
X90378882Y-91966382D01*
X89943395Y-92133560D01*
X89844145Y-92367435D01*
X89967346Y-92600308D01*
X90404085Y-92725336D01*
X91255066Y-92767696D01*
X91448356Y-92768487D01*
X92379848Y-92737687D01*
X92879962Y-92628502D01*
X93049403Y-92415757D01*
X93052566Y-92367435D01*
X92829662Y-92040819D01*
X92517829Y-91966382D01*
X92228438Y-91912217D01*
X92067096Y-91670950D01*
X91997446Y-91124423D01*
X91983093Y-90228487D01*
X91999759Y-89287966D01*
X92073995Y-88763603D01*
X92242157Y-88537240D01*
X92517829Y-88490592D01*
X92971434Y-88366164D01*
X93022441Y-88081866D01*
X92715345Y-87771179D01*
X92217040Y-87588224D01*
X91561491Y-87470716D01*
X91149763Y-87421126D01*
X91147566Y-87421119D01*
X91041849Y-87667962D01*
G37*
X91041849Y-87667962D02*
X90960994Y-88326673D01*
X90917637Y-89274522D01*
X90913619Y-89693750D01*
X90903668Y-90798771D01*
X90857413Y-91473741D01*
X90750253Y-91823221D01*
X90557585Y-91951769D01*
X90378882Y-91966382D01*
X89943395Y-92133560D01*
X89844145Y-92367435D01*
X89967346Y-92600308D01*
X90404085Y-92725336D01*
X91255066Y-92767696D01*
X91448356Y-92768487D01*
X92379848Y-92737687D01*
X92879962Y-92628502D01*
X93049403Y-92415757D01*
X93052566Y-92367435D01*
X92829662Y-92040819D01*
X92517829Y-91966382D01*
X92228438Y-91912217D01*
X92067096Y-91670950D01*
X91997446Y-91124423D01*
X91983093Y-90228487D01*
X91999759Y-89287966D01*
X92073995Y-88763603D01*
X92242157Y-88537240D01*
X92517829Y-88490592D01*
X92971434Y-88366164D01*
X93022441Y-88081866D01*
X92715345Y-87771179D01*
X92217040Y-87588224D01*
X91561491Y-87470716D01*
X91149763Y-87421126D01*
X91147566Y-87421119D01*
X91041849Y-87667962D01*
G36*
X96616238Y-91888071D02*
G01*
X96528356Y-92233750D01*
X96717414Y-92680605D01*
X97063093Y-92768487D01*
X97509947Y-92579429D01*
X97597829Y-92233750D01*
X97408771Y-91786895D01*
X97063093Y-91699013D01*
X96616238Y-91888071D01*
G37*
X96616238Y-91888071D02*
X96528356Y-92233750D01*
X96717414Y-92680605D01*
X97063093Y-92768487D01*
X97509947Y-92579429D01*
X97597829Y-92233750D01*
X97408771Y-91786895D01*
X97063093Y-91699013D01*
X96616238Y-91888071D01*
G36*
X100483353Y-87436472D02*
G01*
X100342673Y-87539031D01*
X100341179Y-87813547D01*
X100492971Y-88344770D01*
X100812146Y-89217450D01*
X101227256Y-90295329D01*
X101778335Y-91632142D01*
X102229816Y-92456218D01*
X102629120Y-92767339D01*
X103023665Y-92565289D01*
X103460871Y-91849850D01*
X103988157Y-90620804D01*
X104120731Y-90282053D01*
X104528376Y-89212285D01*
X104850593Y-88333024D01*
X105045523Y-87760443D01*
X105084145Y-87608369D01*
X104861794Y-87451189D01*
X104598853Y-87421119D01*
X104261363Y-87582676D01*
X103917959Y-88116835D01*
X103521746Y-89097823D01*
X103498967Y-89162030D01*
X103166334Y-90048769D01*
X102880135Y-90713828D01*
X102701243Y-91016025D01*
X102698971Y-91017526D01*
X102529783Y-90842110D01*
X102252815Y-90273515D01*
X101923335Y-89427834D01*
X101870147Y-89276615D01*
X101466439Y-88231339D01*
X101124619Y-87638128D01*
X100801089Y-87424817D01*
X100749120Y-87421119D01*
X100483353Y-87436472D01*
G37*
X100483353Y-87436472D02*
X100342673Y-87539031D01*
X100341179Y-87813547D01*
X100492971Y-88344770D01*
X100812146Y-89217450D01*
X101227256Y-90295329D01*
X101778335Y-91632142D01*
X102229816Y-92456218D01*
X102629120Y-92767339D01*
X103023665Y-92565289D01*
X103460871Y-91849850D01*
X103988157Y-90620804D01*
X104120731Y-90282053D01*
X104528376Y-89212285D01*
X104850593Y-88333024D01*
X105045523Y-87760443D01*
X105084145Y-87608369D01*
X104861794Y-87451189D01*
X104598853Y-87421119D01*
X104261363Y-87582676D01*
X103917959Y-88116835D01*
X103521746Y-89097823D01*
X103498967Y-89162030D01*
X103166334Y-90048769D01*
X102880135Y-90713828D01*
X102701243Y-91016025D01*
X102698971Y-91017526D01*
X102529783Y-90842110D01*
X102252815Y-90273515D01*
X101923335Y-89427834D01*
X101870147Y-89276615D01*
X101466439Y-88231339D01*
X101124619Y-87638128D01*
X100801089Y-87424817D01*
X100749120Y-87421119D01*
X100483353Y-87436472D01*
G36*
X106114597Y-87447893D02*
G01*
X105572793Y-87543564D01*
X105364239Y-87731152D01*
X105351514Y-87822171D01*
X105508972Y-88086510D01*
X106044365Y-88206917D01*
X106554672Y-88223224D01*
X107297115Y-88250929D01*
X107648878Y-88387107D01*
X107753234Y-88711357D01*
X107757829Y-88891645D01*
X107707961Y-89304114D01*
X107462840Y-89499537D01*
X106879189Y-89557513D01*
X106554672Y-89560066D01*
X105761655Y-89612552D01*
X105400435Y-89791016D01*
X105351514Y-89961119D01*
X105508972Y-90225458D01*
X106044365Y-90345864D01*
X106554672Y-90362171D01*
X107294512Y-90385423D01*
X107644924Y-90519675D01*
X107751028Y-90861674D01*
X107757829Y-91164277D01*
X107722952Y-91657503D01*
X107521573Y-91891112D01*
X107008575Y-91961848D01*
X106554672Y-91966382D01*
X105761655Y-92018868D01*
X105400435Y-92197332D01*
X105351514Y-92367435D01*
X105467536Y-92592391D01*
X105882110Y-92717423D01*
X106694992Y-92765550D01*
X107089408Y-92768487D01*
X108827303Y-92768487D01*
X108827303Y-87421119D01*
X107089408Y-87421119D01*
X106114597Y-87447893D01*
G37*
X106114597Y-87447893D02*
X105572793Y-87543564D01*
X105364239Y-87731152D01*
X105351514Y-87822171D01*
X105508972Y-88086510D01*
X106044365Y-88206917D01*
X106554672Y-88223224D01*
X107297115Y-88250929D01*
X107648878Y-88387107D01*
X107753234Y-88711357D01*
X107757829Y-88891645D01*
X107707961Y-89304114D01*
X107462840Y-89499537D01*
X106879189Y-89557513D01*
X106554672Y-89560066D01*
X105761655Y-89612552D01*
X105400435Y-89791016D01*
X105351514Y-89961119D01*
X105508972Y-90225458D01*
X106044365Y-90345864D01*
X106554672Y-90362171D01*
X107294512Y-90385423D01*
X107644924Y-90519675D01*
X107751028Y-90861674D01*
X107757829Y-91164277D01*
X107722952Y-91657503D01*
X107521573Y-91891112D01*
X107008575Y-91961848D01*
X106554672Y-91966382D01*
X105761655Y-92018868D01*
X105400435Y-92197332D01*
X105351514Y-92367435D01*
X105467536Y-92592391D01*
X105882110Y-92717423D01*
X106694992Y-92765550D01*
X107089408Y-92768487D01*
X108827303Y-92768487D01*
X108827303Y-87421119D01*
X107089408Y-87421119D01*
X106114597Y-87447893D01*
G36*
X111694664Y-87503128D02*
G01*
X110911388Y-87703893D01*
X110832482Y-87737174D01*
X110420804Y-87980441D01*
X110227315Y-88330350D01*
X110187585Y-88958262D01*
X110204188Y-89408227D01*
X110109733Y-90766487D01*
X109815801Y-91618894D01*
X109474165Y-92303503D01*
X109402333Y-92643613D01*
X109603592Y-92758315D01*
X109847543Y-92768487D01*
X110296116Y-92536453D01*
X110801212Y-91920368D01*
X110934125Y-91699013D01*
X111476175Y-90948414D01*
X111989118Y-90634409D01*
X112052832Y-90629540D01*
X112392753Y-90725495D01*
X112542653Y-91104985D01*
X112570461Y-91699013D01*
X112615304Y-92398702D01*
X112796549Y-92707937D01*
X113105198Y-92768487D01*
X113348577Y-92731792D01*
X113504378Y-92557181D01*
X113591960Y-92147869D01*
X113630678Y-91407069D01*
X113639891Y-90237995D01*
X113639935Y-90094803D01*
X113639935Y-89025329D01*
X112570461Y-89025329D01*
X112481303Y-89619083D01*
X112162781Y-89822741D01*
X112068462Y-89827435D01*
X111488132Y-89633283D01*
X111209607Y-89397449D01*
X111005880Y-89017621D01*
X111229930Y-88696250D01*
X111361655Y-88595344D01*
X112022331Y-88249466D01*
X112423712Y-88370456D01*
X112569698Y-88959701D01*
X112570461Y-89025329D01*
X113639935Y-89025329D01*
X113639935Y-87421119D01*
X112583042Y-87421119D01*
X111694664Y-87503128D01*
G37*
X111694664Y-87503128D02*
X110911388Y-87703893D01*
X110832482Y-87737174D01*
X110420804Y-87980441D01*
X110227315Y-88330350D01*
X110187585Y-88958262D01*
X110204188Y-89408227D01*
X110109733Y-90766487D01*
X109815801Y-91618894D01*
X109474165Y-92303503D01*
X109402333Y-92643613D01*
X109603592Y-92758315D01*
X109847543Y-92768487D01*
X110296116Y-92536453D01*
X110801212Y-91920368D01*
X110934125Y-91699013D01*
X111476175Y-90948414D01*
X111989118Y-90634409D01*
X112052832Y-90629540D01*
X112392753Y-90725495D01*
X112542653Y-91104985D01*
X112570461Y-91699013D01*
X112615304Y-92398702D01*
X112796549Y-92707937D01*
X113105198Y-92768487D01*
X113348577Y-92731792D01*
X113504378Y-92557181D01*
X113591960Y-92147869D01*
X113630678Y-91407069D01*
X113639891Y-90237995D01*
X113639935Y-90094803D01*
X113639935Y-89025329D01*
X112570461Y-89025329D01*
X112481303Y-89619083D01*
X112162781Y-89822741D01*
X112068462Y-89827435D01*
X111488132Y-89633283D01*
X111209607Y-89397449D01*
X111005880Y-89017621D01*
X111229930Y-88696250D01*
X111361655Y-88595344D01*
X112022331Y-88249466D01*
X112423712Y-88370456D01*
X112569698Y-88959701D01*
X112570461Y-89025329D01*
X113639935Y-89025329D01*
X113639935Y-87421119D01*
X112583042Y-87421119D01*
X111694664Y-87503128D01*
G36*
X90875445Y-132897448D02*
G01*
X91094060Y-132907900D01*
X91242740Y-132922557D01*
X91352999Y-132953824D01*
X91434764Y-133007203D01*
X91497963Y-133088193D01*
X91529695Y-133149277D01*
X91538195Y-133168218D01*
X91545736Y-133188086D01*
X91552384Y-133211832D01*
X91558205Y-133242409D01*
X91563265Y-133282768D01*
X91567630Y-133335862D01*
X91571365Y-133404643D01*
X91574536Y-133492062D01*
X91577210Y-133601072D01*
X91579452Y-133734625D01*
X91581328Y-133895672D01*
X91582904Y-134087167D01*
X91584246Y-134312060D01*
X91585419Y-134573304D01*
X91586491Y-134873851D01*
X91587526Y-135216653D01*
X91588590Y-135604662D01*
X91589144Y-135812727D01*
X91595909Y-138362270D01*
X91849593Y-138355208D01*
X92103277Y-138348145D01*
X93653570Y-135800461D01*
X93852170Y-135474104D01*
X94044094Y-135158747D01*
X94227709Y-134857070D01*
X94401381Y-134571757D01*
X94563477Y-134305488D01*
X94712366Y-134060946D01*
X94846412Y-133840812D01*
X94963984Y-133647769D01*
X95063448Y-133484499D01*
X95143171Y-133353683D01*
X95201520Y-133258004D01*
X95236862Y-133200143D01*
X95247045Y-133183566D01*
X95254382Y-133173544D01*
X95260824Y-133170402D01*
X95266418Y-133177018D01*
X95271214Y-133196270D01*
X95275259Y-133231037D01*
X95278603Y-133284198D01*
X95281293Y-133358629D01*
X95283378Y-133457209D01*
X95284906Y-133582817D01*
X95285927Y-133738331D01*
X95286487Y-133926629D01*
X95286636Y-134150589D01*
X95286421Y-134413090D01*
X95285892Y-134717009D01*
X95285097Y-135065226D01*
X95284252Y-135396387D01*
X95283266Y-135788718D01*
X95282372Y-136134546D01*
X95281401Y-136436977D01*
X95280178Y-136699115D01*
X95278533Y-136924067D01*
X95276293Y-137114937D01*
X95273286Y-137274833D01*
X95269339Y-137406858D01*
X95264281Y-137514119D01*
X95257939Y-137599720D01*
X95250142Y-137666769D01*
X95240717Y-137718369D01*
X95229491Y-137757627D01*
X95216294Y-137787648D01*
X95200952Y-137811538D01*
X95183294Y-137832402D01*
X95163147Y-137853346D01*
X95147132Y-137870081D01*
X95092470Y-137917988D01*
X95025445Y-137952357D01*
X94935345Y-137976619D01*
X94811460Y-137994204D01*
X94737692Y-138001208D01*
X94544373Y-138017717D01*
X94558941Y-138348145D01*
X95544928Y-138354631D01*
X96530914Y-138361116D01*
X96530914Y-138020414D01*
X96329746Y-138003637D01*
X96175878Y-137984824D01*
X96061764Y-137955599D01*
X95978042Y-137912534D01*
X95915349Y-137852204D01*
X95915046Y-137851819D01*
X95895560Y-137826606D01*
X95878392Y-137801486D01*
X95863393Y-137773322D01*
X95850419Y-137738974D01*
X95839321Y-137695302D01*
X95829954Y-137639167D01*
X95822171Y-137567430D01*
X95815825Y-137476952D01*
X95810768Y-137364593D01*
X95806856Y-137227215D01*
X95803941Y-137061678D01*
X95801876Y-136864843D01*
X95800515Y-136633570D01*
X95799711Y-136364720D01*
X95799318Y-136055155D01*
X95799188Y-135701735D01*
X95799176Y-135371582D01*
X95799223Y-134989010D01*
X95799404Y-134652914D01*
X95799779Y-134360159D01*
X95800408Y-134107612D01*
X95801351Y-133892140D01*
X95802669Y-133710607D01*
X95804421Y-133559880D01*
X95806667Y-133436826D01*
X95809467Y-133338311D01*
X95812882Y-133261200D01*
X95816971Y-133202360D01*
X95821794Y-133158657D01*
X95827412Y-133126958D01*
X95833884Y-133104128D01*
X95841271Y-133087034D01*
X95843004Y-133083770D01*
X95892944Y-133014872D01*
X95960976Y-132965981D01*
X96055609Y-132933748D01*
X96185351Y-132914824D01*
X96289068Y-132908223D01*
X96530914Y-132897746D01*
X96530914Y-132556250D01*
X94732574Y-132557690D01*
X93431842Y-134704009D01*
X93250963Y-135002261D01*
X93077128Y-135288479D01*
X92912082Y-135559815D01*
X92757569Y-135813418D01*
X92615335Y-136046440D01*
X92487123Y-136256030D01*
X92374678Y-136439340D01*
X92279745Y-136593520D01*
X92204068Y-136715721D01*
X92149392Y-136803092D01*
X92117461Y-136852786D01*
X92109644Y-136863594D01*
X92106140Y-136841680D01*
X92103036Y-136773795D01*
X92100362Y-136663577D01*
X92098144Y-136514663D01*
X92096413Y-136330691D01*
X92095196Y-136115298D01*
X92094521Y-135872122D01*
X92094418Y-135604799D01*
X92094913Y-135316968D01*
X92095727Y-135082425D01*
X92097238Y-134739149D01*
X92098745Y-134441943D01*
X92100344Y-134187268D01*
X92102132Y-133971587D01*
X92104207Y-133791360D01*
X92106664Y-133643049D01*
X92109603Y-133523115D01*
X92113118Y-133428019D01*
X92117308Y-133354222D01*
X92122270Y-133298186D01*
X92128100Y-133256372D01*
X92134896Y-133225241D01*
X92142754Y-133201255D01*
X92147631Y-133189678D01*
X92219596Y-133067399D01*
X92311941Y-132981941D01*
X92431501Y-132929457D01*
X92585113Y-132906103D01*
X92655182Y-132904061D01*
X92835015Y-132903516D01*
X92835015Y-132556250D01*
X90875445Y-132556250D01*
X90875445Y-132897448D01*
G37*
X90875445Y-132897448D02*
X91094060Y-132907900D01*
X91242740Y-132922557D01*
X91352999Y-132953824D01*
X91434764Y-133007203D01*
X91497963Y-133088193D01*
X91529695Y-133149277D01*
X91538195Y-133168218D01*
X91545736Y-133188086D01*
X91552384Y-133211832D01*
X91558205Y-133242409D01*
X91563265Y-133282768D01*
X91567630Y-133335862D01*
X91571365Y-133404643D01*
X91574536Y-133492062D01*
X91577210Y-133601072D01*
X91579452Y-133734625D01*
X91581328Y-133895672D01*
X91582904Y-134087167D01*
X91584246Y-134312060D01*
X91585419Y-134573304D01*
X91586491Y-134873851D01*
X91587526Y-135216653D01*
X91588590Y-135604662D01*
X91589144Y-135812727D01*
X91595909Y-138362270D01*
X91849593Y-138355208D01*
X92103277Y-138348145D01*
X93653570Y-135800461D01*
X93852170Y-135474104D01*
X94044094Y-135158747D01*
X94227709Y-134857070D01*
X94401381Y-134571757D01*
X94563477Y-134305488D01*
X94712366Y-134060946D01*
X94846412Y-133840812D01*
X94963984Y-133647769D01*
X95063448Y-133484499D01*
X95143171Y-133353683D01*
X95201520Y-133258004D01*
X95236862Y-133200143D01*
X95247045Y-133183566D01*
X95254382Y-133173544D01*
X95260824Y-133170402D01*
X95266418Y-133177018D01*
X95271214Y-133196270D01*
X95275259Y-133231037D01*
X95278603Y-133284198D01*
X95281293Y-133358629D01*
X95283378Y-133457209D01*
X95284906Y-133582817D01*
X95285927Y-133738331D01*
X95286487Y-133926629D01*
X95286636Y-134150589D01*
X95286421Y-134413090D01*
X95285892Y-134717009D01*
X95285097Y-135065226D01*
X95284252Y-135396387D01*
X95283266Y-135788718D01*
X95282372Y-136134546D01*
X95281401Y-136436977D01*
X95280178Y-136699115D01*
X95278533Y-136924067D01*
X95276293Y-137114937D01*
X95273286Y-137274833D01*
X95269339Y-137406858D01*
X95264281Y-137514119D01*
X95257939Y-137599720D01*
X95250142Y-137666769D01*
X95240717Y-137718369D01*
X95229491Y-137757627D01*
X95216294Y-137787648D01*
X95200952Y-137811538D01*
X95183294Y-137832402D01*
X95163147Y-137853346D01*
X95147132Y-137870081D01*
X95092470Y-137917988D01*
X95025445Y-137952357D01*
X94935345Y-137976619D01*
X94811460Y-137994204D01*
X94737692Y-138001208D01*
X94544373Y-138017717D01*
X94558941Y-138348145D01*
X95544928Y-138354631D01*
X96530914Y-138361116D01*
X96530914Y-138020414D01*
X96329746Y-138003637D01*
X96175878Y-137984824D01*
X96061764Y-137955599D01*
X95978042Y-137912534D01*
X95915349Y-137852204D01*
X95915046Y-137851819D01*
X95895560Y-137826606D01*
X95878392Y-137801486D01*
X95863393Y-137773322D01*
X95850419Y-137738974D01*
X95839321Y-137695302D01*
X95829954Y-137639167D01*
X95822171Y-137567430D01*
X95815825Y-137476952D01*
X95810768Y-137364593D01*
X95806856Y-137227215D01*
X95803941Y-137061678D01*
X95801876Y-136864843D01*
X95800515Y-136633570D01*
X95799711Y-136364720D01*
X95799318Y-136055155D01*
X95799188Y-135701735D01*
X95799176Y-135371582D01*
X95799223Y-134989010D01*
X95799404Y-134652914D01*
X95799779Y-134360159D01*
X95800408Y-134107612D01*
X95801351Y-133892140D01*
X95802669Y-133710607D01*
X95804421Y-133559880D01*
X95806667Y-133436826D01*
X95809467Y-133338311D01*
X95812882Y-133261200D01*
X95816971Y-133202360D01*
X95821794Y-133158657D01*
X95827412Y-133126958D01*
X95833884Y-133104128D01*
X95841271Y-133087034D01*
X95843004Y-133083770D01*
X95892944Y-133014872D01*
X95960976Y-132965981D01*
X96055609Y-132933748D01*
X96185351Y-132914824D01*
X96289068Y-132908223D01*
X96530914Y-132897746D01*
X96530914Y-132556250D01*
X94732574Y-132557690D01*
X93431842Y-134704009D01*
X93250963Y-135002261D01*
X93077128Y-135288479D01*
X92912082Y-135559815D01*
X92757569Y-135813418D01*
X92615335Y-136046440D01*
X92487123Y-136256030D01*
X92374678Y-136439340D01*
X92279745Y-136593520D01*
X92204068Y-136715721D01*
X92149392Y-136803092D01*
X92117461Y-136852786D01*
X92109644Y-136863594D01*
X92106140Y-136841680D01*
X92103036Y-136773795D01*
X92100362Y-136663577D01*
X92098144Y-136514663D01*
X92096413Y-136330691D01*
X92095196Y-136115298D01*
X92094521Y-135872122D01*
X92094418Y-135604799D01*
X92094913Y-135316968D01*
X92095727Y-135082425D01*
X92097238Y-134739149D01*
X92098745Y-134441943D01*
X92100344Y-134187268D01*
X92102132Y-133971587D01*
X92104207Y-133791360D01*
X92106664Y-133643049D01*
X92109603Y-133523115D01*
X92113118Y-133428019D01*
X92117308Y-133354222D01*
X92122270Y-133298186D01*
X92128100Y-133256372D01*
X92134896Y-133225241D01*
X92142754Y-133201255D01*
X92147631Y-133189678D01*
X92219596Y-133067399D01*
X92311941Y-132981941D01*
X92431501Y-132929457D01*
X92585113Y-132906103D01*
X92655182Y-132904061D01*
X92835015Y-132903516D01*
X92835015Y-132556250D01*
X90875445Y-132556250D01*
X90875445Y-132897448D01*
G36*
X88910300Y-132777057D02*
G01*
X88619118Y-132839421D01*
X88356310Y-132935541D01*
X88124739Y-133064371D01*
X87927263Y-133224859D01*
X87766746Y-133415959D01*
X87765330Y-133418031D01*
X87637714Y-133646112D01*
X87553556Y-133886962D01*
X87511159Y-134135140D01*
X87508827Y-134385204D01*
X87544864Y-134631711D01*
X87617574Y-134869220D01*
X87725262Y-135092288D01*
X87866231Y-135295474D01*
X88038785Y-135473336D01*
X88241228Y-135620432D01*
X88471865Y-135731319D01*
X88488122Y-135737263D01*
X88579598Y-135775387D01*
X88629480Y-135808546D01*
X88637446Y-135827147D01*
X88610941Y-135849997D01*
X88546054Y-135877486D01*
X88453196Y-135905276D01*
X88444586Y-135907454D01*
X88271146Y-135962445D01*
X88087701Y-136040578D01*
X87910337Y-136133677D01*
X87755136Y-136233564D01*
X87670877Y-136300824D01*
X87537262Y-136440568D01*
X87412709Y-136607710D01*
X87310075Y-136783518D01*
X87257932Y-136902330D01*
X87196975Y-137128237D01*
X87167958Y-137380083D01*
X87170799Y-137645911D01*
X87205418Y-137913767D01*
X87266328Y-138155041D01*
X87378284Y-138425628D01*
X87532278Y-138675252D01*
X87723520Y-138899325D01*
X87947219Y-139093257D01*
X88198585Y-139252461D01*
X88472827Y-139372347D01*
X88569288Y-139403008D01*
X88798998Y-139450588D01*
X89056163Y-139471747D01*
X89329214Y-139467818D01*
X89606583Y-139440138D01*
X89876700Y-139390041D01*
X90127996Y-139318862D01*
X90348903Y-139227935D01*
X90420975Y-139189349D01*
X90484308Y-139154330D01*
X90528483Y-139132778D01*
X90538798Y-139129493D01*
X90541873Y-139153427D01*
X90544719Y-139221753D01*
X90547263Y-139329252D01*
X90549429Y-139470705D01*
X90551145Y-139640894D01*
X90552337Y-139834601D01*
X90552931Y-140046608D01*
X90552984Y-140134082D01*
X90552984Y-141138672D01*
X91348089Y-141138672D01*
X91342089Y-138457691D01*
X90555680Y-138457691D01*
X90411705Y-138529690D01*
X90196370Y-138622786D01*
X89970836Y-138689051D01*
X89813108Y-138720309D01*
X89642490Y-138741239D01*
X89452401Y-138751770D01*
X89259662Y-138751907D01*
X89081093Y-138741659D01*
X88933514Y-138721031D01*
X88928277Y-138719944D01*
X88689020Y-138647611D01*
X88483576Y-138539386D01*
X88312933Y-138396571D01*
X88178080Y-138220473D01*
X88080005Y-138012395D01*
X88019697Y-137773643D01*
X87998144Y-137505520D01*
X87998101Y-137492383D01*
X88014784Y-137241184D01*
X88066020Y-137023829D01*
X88153591Y-136836917D01*
X88279279Y-136677048D01*
X88444867Y-136540821D01*
X88522110Y-136492515D01*
X88684284Y-136416719D01*
X88884889Y-136352797D01*
X89113718Y-136302866D01*
X89360562Y-136269041D01*
X89615213Y-136253439D01*
X89679319Y-136252633D01*
X89884658Y-136252149D01*
X89877756Y-135911084D01*
X89870855Y-135570020D01*
X89573199Y-135554873D01*
X89325772Y-135533927D01*
X89118265Y-135496597D01*
X88942840Y-135439925D01*
X88791657Y-135360954D01*
X88656880Y-135256724D01*
X88579881Y-135180026D01*
X88483865Y-135058048D01*
X88414203Y-134923645D01*
X88366733Y-134765796D01*
X88337290Y-134573477D01*
X88332871Y-134526072D01*
X88332114Y-134283746D01*
X88372541Y-134067589D01*
X88453450Y-133878823D01*
X88574140Y-133718672D01*
X88733911Y-133588358D01*
X88925944Y-133491469D01*
X89048884Y-133457626D01*
X89202728Y-133435834D01*
X89370097Y-133426758D01*
X89533609Y-133431061D01*
X89675884Y-133449406D01*
X89723617Y-133461016D01*
X89936654Y-133546522D01*
X90118746Y-133670353D01*
X90270208Y-133832860D01*
X90391354Y-134034394D01*
X90482502Y-134275307D01*
X90494868Y-134319571D01*
X90502665Y-134352636D01*
X90509506Y-134391829D01*
X90515475Y-134440573D01*
X90520652Y-134502290D01*
X90525121Y-134580404D01*
X90528963Y-134678337D01*
X90532261Y-134799513D01*
X90535097Y-134947354D01*
X90537553Y-135125284D01*
X90539712Y-135336724D01*
X90541655Y-135585099D01*
X90543464Y-135873831D01*
X90545223Y-136206344D01*
X90546473Y-136468152D01*
X90555680Y-138457691D01*
X91342089Y-138457691D01*
X91340497Y-137746631D01*
X91332904Y-134354590D01*
X91276999Y-134143750D01*
X91192835Y-133884763D01*
X91084345Y-133660002D01*
X90944666Y-133457261D01*
X90801877Y-133298715D01*
X90586582Y-133111004D01*
X90354153Y-132964937D01*
X90099329Y-132858208D01*
X89816847Y-132788515D01*
X89566343Y-132757797D01*
X89226995Y-132749500D01*
X88910300Y-132777057D01*
G37*
X88910300Y-132777057D02*
X88619118Y-132839421D01*
X88356310Y-132935541D01*
X88124739Y-133064371D01*
X87927263Y-133224859D01*
X87766746Y-133415959D01*
X87765330Y-133418031D01*
X87637714Y-133646112D01*
X87553556Y-133886962D01*
X87511159Y-134135140D01*
X87508827Y-134385204D01*
X87544864Y-134631711D01*
X87617574Y-134869220D01*
X87725262Y-135092288D01*
X87866231Y-135295474D01*
X88038785Y-135473336D01*
X88241228Y-135620432D01*
X88471865Y-135731319D01*
X88488122Y-135737263D01*
X88579598Y-135775387D01*
X88629480Y-135808546D01*
X88637446Y-135827147D01*
X88610941Y-135849997D01*
X88546054Y-135877486D01*
X88453196Y-135905276D01*
X88444586Y-135907454D01*
X88271146Y-135962445D01*
X88087701Y-136040578D01*
X87910337Y-136133677D01*
X87755136Y-136233564D01*
X87670877Y-136300824D01*
X87537262Y-136440568D01*
X87412709Y-136607710D01*
X87310075Y-136783518D01*
X87257932Y-136902330D01*
X87196975Y-137128237D01*
X87167958Y-137380083D01*
X87170799Y-137645911D01*
X87205418Y-137913767D01*
X87266328Y-138155041D01*
X87378284Y-138425628D01*
X87532278Y-138675252D01*
X87723520Y-138899325D01*
X87947219Y-139093257D01*
X88198585Y-139252461D01*
X88472827Y-139372347D01*
X88569288Y-139403008D01*
X88798998Y-139450588D01*
X89056163Y-139471747D01*
X89329214Y-139467818D01*
X89606583Y-139440138D01*
X89876700Y-139390041D01*
X90127996Y-139318862D01*
X90348903Y-139227935D01*
X90420975Y-139189349D01*
X90484308Y-139154330D01*
X90528483Y-139132778D01*
X90538798Y-139129493D01*
X90541873Y-139153427D01*
X90544719Y-139221753D01*
X90547263Y-139329252D01*
X90549429Y-139470705D01*
X90551145Y-139640894D01*
X90552337Y-139834601D01*
X90552931Y-140046608D01*
X90552984Y-140134082D01*
X90552984Y-141138672D01*
X91348089Y-141138672D01*
X91342089Y-138457691D01*
X90555680Y-138457691D01*
X90411705Y-138529690D01*
X90196370Y-138622786D01*
X89970836Y-138689051D01*
X89813108Y-138720309D01*
X89642490Y-138741239D01*
X89452401Y-138751770D01*
X89259662Y-138751907D01*
X89081093Y-138741659D01*
X88933514Y-138721031D01*
X88928277Y-138719944D01*
X88689020Y-138647611D01*
X88483576Y-138539386D01*
X88312933Y-138396571D01*
X88178080Y-138220473D01*
X88080005Y-138012395D01*
X88019697Y-137773643D01*
X87998144Y-137505520D01*
X87998101Y-137492383D01*
X88014784Y-137241184D01*
X88066020Y-137023829D01*
X88153591Y-136836917D01*
X88279279Y-136677048D01*
X88444867Y-136540821D01*
X88522110Y-136492515D01*
X88684284Y-136416719D01*
X88884889Y-136352797D01*
X89113718Y-136302866D01*
X89360562Y-136269041D01*
X89615213Y-136253439D01*
X89679319Y-136252633D01*
X89884658Y-136252149D01*
X89877756Y-135911084D01*
X89870855Y-135570020D01*
X89573199Y-135554873D01*
X89325772Y-135533927D01*
X89118265Y-135496597D01*
X88942840Y-135439925D01*
X88791657Y-135360954D01*
X88656880Y-135256724D01*
X88579881Y-135180026D01*
X88483865Y-135058048D01*
X88414203Y-134923645D01*
X88366733Y-134765796D01*
X88337290Y-134573477D01*
X88332871Y-134526072D01*
X88332114Y-134283746D01*
X88372541Y-134067589D01*
X88453450Y-133878823D01*
X88574140Y-133718672D01*
X88733911Y-133588358D01*
X88925944Y-133491469D01*
X89048884Y-133457626D01*
X89202728Y-133435834D01*
X89370097Y-133426758D01*
X89533609Y-133431061D01*
X89675884Y-133449406D01*
X89723617Y-133461016D01*
X89936654Y-133546522D01*
X90118746Y-133670353D01*
X90270208Y-133832860D01*
X90391354Y-134034394D01*
X90482502Y-134275307D01*
X90494868Y-134319571D01*
X90502665Y-134352636D01*
X90509506Y-134391829D01*
X90515475Y-134440573D01*
X90520652Y-134502290D01*
X90525121Y-134580404D01*
X90528963Y-134678337D01*
X90532261Y-134799513D01*
X90535097Y-134947354D01*
X90537553Y-135125284D01*
X90539712Y-135336724D01*
X90541655Y-135585099D01*
X90543464Y-135873831D01*
X90545223Y-136206344D01*
X90546473Y-136468152D01*
X90555680Y-138457691D01*
X91342089Y-138457691D01*
X91340497Y-137746631D01*
X91332904Y-134354590D01*
X91276999Y-134143750D01*
X91192835Y-133884763D01*
X91084345Y-133660002D01*
X90944666Y-133457261D01*
X90801877Y-133298715D01*
X90586582Y-133111004D01*
X90354153Y-132964937D01*
X90099329Y-132858208D01*
X89816847Y-132788515D01*
X89566343Y-132757797D01*
X89226995Y-132749500D01*
X88910300Y-132777057D01*
G36*
X92661383Y-141262696D02*
G01*
X92239703Y-141262696D01*
X92239703Y-141485938D01*
X92781272Y-141485938D01*
X92940404Y-141485212D01*
X93082562Y-141483180D01*
X93200349Y-141480061D01*
X93286364Y-141476075D01*
X93333208Y-141471441D01*
X93339377Y-141469401D01*
X93350088Y-141435905D01*
X93355680Y-141373938D01*
X93355914Y-141357780D01*
X93355914Y-141262696D01*
X92908645Y-141262696D01*
X92915238Y-140574366D01*
X92921832Y-139886035D01*
X93140311Y-139878848D01*
X93358791Y-139871660D01*
X93351151Y-139779629D01*
X93343512Y-139687598D01*
X93198442Y-139672014D01*
X93061173Y-139643161D01*
X92962654Y-139588075D01*
X92897351Y-139502887D01*
X92874791Y-139445752D01*
X92849227Y-139415280D01*
X92790496Y-139403082D01*
X92761380Y-139402344D01*
X92661383Y-139402344D01*
X92661383Y-141262696D01*
G37*
X92661383Y-141262696D02*
X92239703Y-141262696D01*
X92239703Y-141485938D01*
X92781272Y-141485938D01*
X92940404Y-141485212D01*
X93082562Y-141483180D01*
X93200349Y-141480061D01*
X93286364Y-141476075D01*
X93333208Y-141471441D01*
X93339377Y-141469401D01*
X93350088Y-141435905D01*
X93355680Y-141373938D01*
X93355914Y-141357780D01*
X93355914Y-141262696D01*
X92908645Y-141262696D01*
X92915238Y-140574366D01*
X92921832Y-139886035D01*
X93140311Y-139878848D01*
X93358791Y-139871660D01*
X93351151Y-139779629D01*
X93343512Y-139687598D01*
X93198442Y-139672014D01*
X93061173Y-139643161D01*
X92962654Y-139588075D01*
X92897351Y-139502887D01*
X92874791Y-139445752D01*
X92849227Y-139415280D01*
X92790496Y-139403082D01*
X92761380Y-139402344D01*
X92661383Y-139402344D01*
X92661383Y-141262696D01*
G36*
X94659908Y-139379403D02*
G01*
X94600724Y-139381926D01*
X94445220Y-139397673D01*
X94325539Y-139431786D01*
X94229526Y-139490029D01*
X94145022Y-139578166D01*
X94121770Y-139608982D01*
X94053081Y-139721089D01*
X94002274Y-139846914D01*
X93967543Y-139994695D01*
X93947083Y-140172674D01*
X93939089Y-140389090D01*
X93938824Y-140444141D01*
X93939820Y-140601498D01*
X93943566Y-140720800D01*
X93951199Y-140813572D01*
X93963853Y-140891342D01*
X93982666Y-140965637D01*
X93993836Y-141002246D01*
X94056892Y-141166293D01*
X94131809Y-141290364D01*
X94225099Y-141383801D01*
X94290311Y-141427712D01*
X94362244Y-141464518D01*
X94434564Y-141486559D01*
X94525676Y-141498181D01*
X94606266Y-141502296D01*
X94711127Y-141502879D01*
X94805259Y-141497985D01*
X94870843Y-141488641D01*
X94878087Y-141486615D01*
X95008900Y-141421641D01*
X95124714Y-141320881D01*
X95200075Y-141215649D01*
X95273090Y-141041464D01*
X95324241Y-140832708D01*
X95352078Y-140600023D01*
X95354024Y-140444141D01*
X95055035Y-140444141D01*
X95054771Y-140611509D01*
X95053416Y-140737522D01*
X95050128Y-140830432D01*
X95044065Y-140898493D01*
X95034385Y-140949958D01*
X95020246Y-140993080D01*
X95000806Y-141036112D01*
X94993023Y-141051820D01*
X94939347Y-141137188D01*
X94875200Y-141209033D01*
X94846728Y-141231654D01*
X94738217Y-141276459D01*
X94612890Y-141286181D01*
X94489446Y-141260373D01*
X94446933Y-141241165D01*
X94369833Y-141182887D01*
X94310559Y-141097171D01*
X94266547Y-140977987D01*
X94235233Y-140819306D01*
X94222524Y-140713297D01*
X94210809Y-140525699D01*
X94211436Y-140334616D01*
X94223458Y-140151868D01*
X94245928Y-139989273D01*
X94277897Y-139858650D01*
X94294543Y-139814771D01*
X94366287Y-139702822D01*
X94464914Y-139632308D01*
X94592026Y-139602207D01*
X94629607Y-139600874D01*
X94762594Y-139614509D01*
X94863335Y-139659908D01*
X94942214Y-139743462D01*
X94986247Y-139820376D01*
X95009889Y-139869880D01*
X95027379Y-139913927D01*
X95039645Y-139960922D01*
X95047612Y-140019267D01*
X95052209Y-140097365D01*
X95054362Y-140203622D01*
X95054997Y-140346438D01*
X95055035Y-140444141D01*
X95354024Y-140444141D01*
X95355149Y-140354051D01*
X95341563Y-140177721D01*
X95306142Y-139956759D01*
X95254557Y-139778465D01*
X95184165Y-139637778D01*
X95092325Y-139529634D01*
X94976393Y-139448971D01*
X94955683Y-139438399D01*
X94883452Y-139405593D01*
X94821485Y-139386639D01*
X94752673Y-139378817D01*
X94659908Y-139379403D01*
G37*
X94659908Y-139379403D02*
X94600724Y-139381926D01*
X94445220Y-139397673D01*
X94325539Y-139431786D01*
X94229526Y-139490029D01*
X94145022Y-139578166D01*
X94121770Y-139608982D01*
X94053081Y-139721089D01*
X94002274Y-139846914D01*
X93967543Y-139994695D01*
X93947083Y-140172674D01*
X93939089Y-140389090D01*
X93938824Y-140444141D01*
X93939820Y-140601498D01*
X93943566Y-140720800D01*
X93951199Y-140813572D01*
X93963853Y-140891342D01*
X93982666Y-140965637D01*
X93993836Y-141002246D01*
X94056892Y-141166293D01*
X94131809Y-141290364D01*
X94225099Y-141383801D01*
X94290311Y-141427712D01*
X94362244Y-141464518D01*
X94434564Y-141486559D01*
X94525676Y-141498181D01*
X94606266Y-141502296D01*
X94711127Y-141502879D01*
X94805259Y-141497985D01*
X94870843Y-141488641D01*
X94878087Y-141486615D01*
X95008900Y-141421641D01*
X95124714Y-141320881D01*
X95200075Y-141215649D01*
X95273090Y-141041464D01*
X95324241Y-140832708D01*
X95352078Y-140600023D01*
X95354024Y-140444141D01*
X95055035Y-140444141D01*
X95054771Y-140611509D01*
X95053416Y-140737522D01*
X95050128Y-140830432D01*
X95044065Y-140898493D01*
X95034385Y-140949958D01*
X95020246Y-140993080D01*
X95000806Y-141036112D01*
X94993023Y-141051820D01*
X94939347Y-141137188D01*
X94875200Y-141209033D01*
X94846728Y-141231654D01*
X94738217Y-141276459D01*
X94612890Y-141286181D01*
X94489446Y-141260373D01*
X94446933Y-141241165D01*
X94369833Y-141182887D01*
X94310559Y-141097171D01*
X94266547Y-140977987D01*
X94235233Y-140819306D01*
X94222524Y-140713297D01*
X94210809Y-140525699D01*
X94211436Y-140334616D01*
X94223458Y-140151868D01*
X94245928Y-139989273D01*
X94277897Y-139858650D01*
X94294543Y-139814771D01*
X94366287Y-139702822D01*
X94464914Y-139632308D01*
X94592026Y-139602207D01*
X94629607Y-139600874D01*
X94762594Y-139614509D01*
X94863335Y-139659908D01*
X94942214Y-139743462D01*
X94986247Y-139820376D01*
X95009889Y-139869880D01*
X95027379Y-139913927D01*
X95039645Y-139960922D01*
X95047612Y-140019267D01*
X95052209Y-140097365D01*
X95054362Y-140203622D01*
X95054997Y-140346438D01*
X95055035Y-140444141D01*
X95354024Y-140444141D01*
X95355149Y-140354051D01*
X95341563Y-140177721D01*
X95306142Y-139956759D01*
X95254557Y-139778465D01*
X95184165Y-139637778D01*
X95092325Y-139529634D01*
X94976393Y-139448971D01*
X94955683Y-139438399D01*
X94883452Y-139405593D01*
X94821485Y-139386639D01*
X94752673Y-139378817D01*
X94659908Y-139379403D01*
%TD*%
D11*
%TO.C,SW2*%
X141351000Y-139319000D03*
D12*
X138851000Y-139319000D03*
X136351000Y-139319000D03*
D13*
X144451000Y-146819000D03*
X133251000Y-146819000D03*
D12*
X141351000Y-153819000D03*
X136351000Y-153819000D03*
%TD*%
D14*
%TO.C,B1*%
X147320000Y-46037500D03*
X147320000Y-48577500D03*
X147320000Y-51117500D03*
X147320000Y-53657500D03*
X147320000Y-56197500D03*
X147320000Y-58737500D03*
X147320000Y-61277500D03*
X147320000Y-63817500D03*
X147320000Y-66357500D03*
X147320000Y-68897500D03*
X147320000Y-71437500D03*
X147320000Y-73977500D03*
X132080000Y-73977500D03*
X132080000Y-71437500D03*
X132080000Y-68897500D03*
X132080000Y-66357500D03*
X132080000Y-63817500D03*
X132080000Y-61277500D03*
X132080000Y-58737500D03*
X132080000Y-56197500D03*
X132080000Y-53657500D03*
X132080000Y-51117500D03*
X132080000Y-48577500D03*
X132080000Y-46037500D03*
%TD*%
D15*
%TO.C,D23*%
X146939000Y-93345000D03*
D16*
X146939000Y-85725000D03*
%TD*%
D15*
%TO.C,D22*%
X126206250Y-53657500D03*
D16*
X126206250Y-46037500D03*
%TD*%
D15*
%TO.C,D21*%
X107156250Y-53657500D03*
D16*
X107156250Y-46037500D03*
%TD*%
D15*
%TO.C,D20*%
X88106250Y-56832500D03*
D16*
X88106250Y-49212500D03*
%TD*%
D15*
%TO.C,D19*%
X69056250Y-56832500D03*
D16*
X69056250Y-49212500D03*
%TD*%
D15*
%TO.C,D18*%
X123031250Y-54451250D03*
D16*
X123031250Y-46831250D03*
%TD*%
D15*
%TO.C,D17*%
X103981250Y-54451250D03*
D16*
X103981250Y-46831250D03*
%TD*%
D15*
%TO.C,D16*%
X84931250Y-56038750D03*
D16*
X84931250Y-48418750D03*
%TD*%
D15*
%TO.C,D15*%
X65881250Y-56038750D03*
D16*
X65881250Y-48418750D03*
%TD*%
D15*
%TO.C,D14*%
X133350000Y-93345000D03*
D16*
X133350000Y-85725000D03*
%TD*%
D15*
%TO.C,D13*%
X119856250Y-55245000D03*
D16*
X119856250Y-47625000D03*
%TD*%
D15*
%TO.C,D12*%
X100806250Y-55245000D03*
D16*
X100806250Y-47625000D03*
%TD*%
D15*
%TO.C,D11*%
X81756250Y-55245000D03*
D16*
X81756250Y-47625000D03*
%TD*%
D15*
%TO.C,D10*%
X62706250Y-55245000D03*
D16*
X62706250Y-47625000D03*
%TD*%
D15*
%TO.C,D9*%
X130810000Y-93345000D03*
D16*
X130810000Y-85725000D03*
%TD*%
D15*
%TO.C,D8*%
X116681250Y-56038750D03*
D16*
X116681250Y-48418750D03*
%TD*%
D15*
%TO.C,D7*%
X97631250Y-56038750D03*
D16*
X97631250Y-48418750D03*
%TD*%
D15*
%TO.C,D6*%
X78581250Y-54451250D03*
D16*
X78581250Y-46831250D03*
%TD*%
D15*
%TO.C,D5*%
X59531250Y-54451250D03*
D16*
X59531250Y-46831250D03*
%TD*%
D15*
%TO.C,D4*%
X113506250Y-56832500D03*
D16*
X113506250Y-49212500D03*
%TD*%
D15*
%TO.C,D3*%
X94456250Y-56832500D03*
D16*
X94456250Y-49212500D03*
%TD*%
D15*
%TO.C,D2*%
X75406250Y-53657500D03*
D16*
X75406250Y-46037500D03*
%TD*%
D15*
%TO.C,D1*%
X56356250Y-53657500D03*
D16*
X56356250Y-46037500D03*
%TD*%
D17*
%TO.C,7*%
X53213000Y-156337000D03*
%TD*%
%TO.C,6*%
X148463000Y-156337000D03*
%TD*%
%TO.C,1*%
X53213000Y-42037000D03*
%TD*%
%TO.C,2*%
X72263000Y-59055000D03*
%TD*%
%TO.C,3*%
X110363000Y-59055000D03*
%TD*%
%TO.C,4*%
X128651000Y-42037000D03*
%TD*%
%TO.C,5*%
X148463000Y-42037000D03*
%TD*%
D18*
%TO.C,MX16*%
X84296250Y-122713750D03*
D19*
X81756250Y-127793750D03*
D18*
X77946250Y-125253750D03*
D20*
X76676250Y-127793750D03*
X86836250Y-127793750D03*
%TD*%
D18*
%TO.C,MX24*%
X122396250Y-141763750D03*
D19*
X119856250Y-146843750D03*
D18*
X116046250Y-144303750D03*
D20*
X114776250Y-146843750D03*
X124936250Y-146843750D03*
%TD*%
D18*
%TO.C,MX23*%
X103346250Y-141763750D03*
D19*
X100806250Y-146843750D03*
D18*
X96996250Y-144303750D03*
D20*
X95726250Y-146843750D03*
X105886250Y-146843750D03*
%TD*%
D18*
%TO.C,MX22*%
X84296250Y-141763750D03*
D19*
X81756250Y-146843750D03*
D18*
X77946250Y-144303750D03*
D20*
X76676250Y-146843750D03*
X86836250Y-146843750D03*
%TD*%
D18*
%TO.C,MX21*%
X74771250Y-141763750D03*
D19*
X72231250Y-146843750D03*
D18*
X68421250Y-144303750D03*
D20*
X67151250Y-146843750D03*
X77311250Y-146843750D03*
%TD*%
D18*
%TO.C,MX20*%
X65246250Y-141763750D03*
D19*
X62706250Y-146843750D03*
D18*
X58896250Y-144303750D03*
D20*
X57626250Y-146843750D03*
X67786250Y-146843750D03*
%TD*%
D18*
%TO.C,MX19*%
X122396250Y-132238750D03*
D19*
X119856250Y-137318750D03*
D18*
X116046250Y-134778750D03*
D20*
X114776250Y-137318750D03*
X124936250Y-137318750D03*
%TD*%
D18*
%TO.C,MX18*%
X122396250Y-122713750D03*
D19*
X119856250Y-127793750D03*
D18*
X116046250Y-125253750D03*
D20*
X114776250Y-127793750D03*
X124936250Y-127793750D03*
%TD*%
D18*
%TO.C,MX17*%
X103346250Y-122713750D03*
D19*
X100806250Y-127793750D03*
D18*
X96996250Y-125253750D03*
D20*
X95726250Y-127793750D03*
X105886250Y-127793750D03*
%TD*%
D18*
%TO.C,MX15*%
X65246250Y-122713750D03*
D19*
X62706250Y-127793750D03*
D18*
X58896250Y-125253750D03*
D20*
X57626250Y-127793750D03*
X67786250Y-127793750D03*
%TD*%
D18*
%TO.C,MX14*%
X122396250Y-103663750D03*
D19*
X119856250Y-108743750D03*
D18*
X116046250Y-106203750D03*
D20*
X114776250Y-108743750D03*
X124936250Y-108743750D03*
%TD*%
D18*
%TO.C,MX13*%
X103346250Y-103663750D03*
D19*
X100806250Y-108743750D03*
D18*
X96996250Y-106203750D03*
D20*
X95726250Y-108743750D03*
X105886250Y-108743750D03*
%TD*%
D18*
%TO.C,MX12*%
X84296250Y-103663750D03*
D19*
X81756250Y-108743750D03*
D18*
X77946250Y-106203750D03*
D20*
X76676250Y-108743750D03*
X86836250Y-108743750D03*
%TD*%
D18*
%TO.C,MX11*%
X65246250Y-103663750D03*
D19*
X62706250Y-108743750D03*
D18*
X58896250Y-106203750D03*
D20*
X57626250Y-108743750D03*
X67786250Y-108743750D03*
%TD*%
D18*
%TO.C,MX10*%
X141446250Y-103663750D03*
D19*
X138906250Y-108743750D03*
D18*
X135096250Y-106203750D03*
D20*
X133826250Y-108743750D03*
X143986250Y-108743750D03*
%TD*%
D18*
%TO.C,MX9*%
X122396250Y-94138750D03*
D19*
X119856250Y-99218750D03*
D18*
X116046250Y-96678750D03*
D20*
X114776250Y-99218750D03*
X124936250Y-99218750D03*
%TD*%
D18*
%TO.C,MX8*%
X122396250Y-84613750D03*
D19*
X119856250Y-89693750D03*
D18*
X116046250Y-87153750D03*
D20*
X114776250Y-89693750D03*
X124936250Y-89693750D03*
%TD*%
D18*
%TO.C,MX7*%
X103346250Y-84613750D03*
D19*
X100806250Y-89693750D03*
D18*
X96996250Y-87153750D03*
D20*
X95726250Y-89693750D03*
X105886250Y-89693750D03*
%TD*%
D18*
%TO.C,MX6*%
X84296250Y-84613750D03*
D19*
X81756250Y-89693750D03*
D18*
X77946250Y-87153750D03*
D20*
X76676250Y-89693750D03*
X86836250Y-89693750D03*
%TD*%
D18*
%TO.C,MX5*%
X65246250Y-84613750D03*
D19*
X62706250Y-89693750D03*
D18*
X58896250Y-87153750D03*
D20*
X57626250Y-89693750D03*
X67786250Y-89693750D03*
%TD*%
D18*
%TO.C,MX4*%
X122396250Y-65563750D03*
D19*
X119856250Y-70643750D03*
D18*
X116046250Y-68103750D03*
D20*
X114776250Y-70643750D03*
X124936250Y-70643750D03*
%TD*%
D18*
%TO.C,MX3*%
X103346250Y-65563750D03*
D19*
X100806250Y-70643750D03*
D18*
X96996250Y-68103750D03*
D20*
X95726250Y-70643750D03*
X105886250Y-70643750D03*
%TD*%
D18*
%TO.C,MX2*%
X84296250Y-65563750D03*
D19*
X81756250Y-70643750D03*
D18*
X77946250Y-68103750D03*
D20*
X76676250Y-70643750D03*
X86836250Y-70643750D03*
%TD*%
D18*
%TO.C,MX1*%
X65246250Y-65563750D03*
D19*
X62706250Y-70643750D03*
D18*
X58896250Y-68103750D03*
D20*
X57626250Y-70643750D03*
X67786250Y-70643750D03*
%TD*%
D21*
%TO.C,SW3*%
X135656250Y-87443750D03*
X142156250Y-91943750D03*
X135656250Y-91943750D03*
X142156250Y-87443750D03*
%TD*%
D11*
%TO.C,SW1*%
X141351000Y-120396000D03*
D12*
X138851000Y-120396000D03*
X136351000Y-120396000D03*
D13*
X144451000Y-127896000D03*
X133251000Y-127896000D03*
D12*
X141351000Y-134896000D03*
X136351000Y-134896000D03*
%TD*%
D22*
%TO.C,R1*%
X144145000Y-81756250D03*
D23*
X136525000Y-81756250D03*
%TD*%
D24*
%TO.C,LED4*%
X69781250Y-79387500D03*
X69781250Y-76187500D03*
X74681250Y-79387500D03*
X74681250Y-76187500D03*
%TD*%
D25*
%TO.C,LED3*%
X70917000Y-129757000D03*
X74117000Y-129757000D03*
X70917000Y-134657000D03*
X74117000Y-134657000D03*
%TD*%
%TO.C,LED2*%
X140506250Y-130243750D03*
X137306250Y-130243750D03*
X140506250Y-125343750D03*
X137306250Y-125343750D03*
%TD*%
D24*
%TO.C,LED1*%
X142150000Y-58725000D03*
X142150000Y-61925000D03*
X137250000Y-58725000D03*
X137250000Y-61925000D03*
%TD*%
D26*
%TO.C,J1*%
X141462000Y-77597000D03*
X140462000Y-77597000D03*
X139462000Y-77597000D03*
D27*
X138462000Y-77597000D03*
%TD*%
D28*
%TO.C,C4*%
X53181250Y-51475000D03*
X53181250Y-53975000D03*
%TD*%
%TO.C,C3*%
X56475000Y-58737500D03*
X53975000Y-58737500D03*
%TD*%
%TO.C,C2*%
X148082000Y-126786000D03*
X148082000Y-129286000D03*
%TD*%
%TO.C,C1*%
X134453000Y-77343000D03*
X131953000Y-77343000D03*
%TD*%
M02*
